{"glyphs":{"0":{"ha":1014,"x_min":67,"x_max":953,"o":"m 431 -33 q 411 -31 424 -33 q 379 -26 399 -29 l 304 -11 q 288 -5 296 -7 q 275 0 281 -3 q 267 4 272 1 q 261 11 261 7 q 231 25 249 15 q 200 39 213 31 l 181 53 q 161 67 167 61 q 99 165 121 101 q 71 289 81 218 q 67 397 67 331 q 75 521 67 476 q 104 644 82 572 q 136 699 114 653 q 144 713 142 706 q 151 726 147 721 q 156 734 153 728 q 164 740 160 740 q 196 761 175 740 q 215 778 203 765 q 233 792 225 788 q 331 825 272 815 q 356 828 340 826 q 382 831 372 831 q 413 832 400 831 q 435 835 425 833 q 581 824 522 832 q 710 803 632 818 q 724 799 714 803 q 793 771 769 783 q 810 754 810 763 l 810 742 q 842 728 825 742 q 872 693 858 715 q 896 651 888 674 q 904 615 904 629 q 919 614 917 615 q 921 601 921 613 q 935 546 928 567 q 941 522 938 535 q 949 490 944 508 l 950 479 l 953 428 l 953 393 q 939 231 953 289 q 863 90 919 140 q 817 57 842 72 l 768 25 q 707 1 726 11 l 647 -19 q 540 -26 600 -19 q 431 -33 494 -33 m 511 168 q 574 206 554 168 q 582 243 581 222 q 583 268 583 264 l 585 307 q 589 388 589 349 q 590 421 590 400 q 583 485 590 454 q 568 544 576 517 q 557 581 560 572 q 545 619 554 606 q 514 633 536 633 q 458 589 472 633 q 449 550 451 572 q 444 513 449 542 l 435 444 q 425 376 425 414 q 435 289 425 328 q 447 245 438 268 q 458 213 456 222 q 483 185 460 199 q 499 173 490 178 q 511 168 507 168 z "},"1":{"ha":740,"x_min":53,"x_max":661,"o":"m 615 0 q 479 1 518 0 l 428 1 q 328 4 394 4 l 269 4 q 214 15 228 4 q 194 75 194 31 l 196 88 q 197 97 196 92 q 199 108 199 101 l 201 139 l 199 178 q 197 188 199 183 q 196 199 196 193 l 194 208 q 193 261 193 222 l 193 386 q 192 486 192 429 q 188 501 192 501 q 171 490 182 501 q 118 438 146 460 q 88 428 104 428 q 63 436 72 428 q 53 456 53 444 l 53 721 q 56 728 53 726 q 61 732 58 729 q 68 736 64 735 q 90 749 76 740 q 122 768 103 757 q 181 800 161 794 q 213 807 199 807 q 418 806 354 807 l 624 804 q 650 793 639 804 q 661 768 661 782 l 661 306 q 657 192 661 244 q 653 85 653 136 q 647 29 653 46 q 615 0 640 0 z "},"2":{"ha":861,"x_min":68,"x_max":792,"o":"m 296 0 q 138 7 188 0 q 89 19 100 14 q 71 42 71 28 q 108 115 71 78 l 108 114 q 117 122 108 114 q 179 196 126 132 q 257 296 217 239 q 273 320 264 307 q 286 342 282 333 q 324 407 304 365 q 338 447 332 426 q 344 483 344 467 q 321 536 344 521 q 242 553 299 553 q 168 546 207 553 q 88 511 143 539 q 86 517 88 513 q 83 526 85 521 q 75 618 79 557 l 71 690 l 69 719 l 68 744 l 68 754 l 129 782 q 285 818 206 806 q 442 831 364 831 q 571 816 508 831 q 681 772 633 801 q 790 567 790 704 q 742 424 790 493 q 592 282 693 354 l 650 282 l 707 282 q 763 276 747 282 q 792 244 792 267 q 789 154 792 201 l 789 119 l 789 82 q 778 25 789 43 q 717 6 763 6 q 699 1 713 1 q 594 0 675 0 l 464 0 l 414 0 l 354 0 l 296 0 z "},"3":{"ha":844,"x_min":63,"x_max":783,"o":"m 363 -40 q 313 -35 346 -40 q 240 -22 267 -29 q 210 -14 217 -17 q 199 -7 199 -11 q 184 -3 192 -6 q 167 1 176 0 q 137 13 151 4 q 118 25 122 22 l 99 35 l 113 226 q 275 203 211 203 q 349 219 325 203 q 379 276 379 238 q 292 335 379 328 q 178 331 240 335 l 178 481 l 201 481 q 228 479 210 479 q 307 492 275 479 q 342 549 342 506 q 314 596 342 583 q 240 608 290 608 q 76 567 183 608 l 63 763 q 221 811 143 797 q 410 831 315 831 l 507 824 q 590 807 554 815 q 594 806 592 807 q 601 804 597 806 q 646 785 633 792 q 657 775 657 781 l 657 764 q 703 724 682 764 q 712 707 708 715 q 719 692 715 699 l 729 665 q 740 629 740 640 q 749 588 743 608 q 728 506 749 546 q 672 438 710 467 q 783 261 783 374 q 749 78 783 150 q 719 32 735 50 q 692 11 703 14 q 532 -33 618 -26 q 363 -40 476 -40 z "},"4":{"ha":1011,"x_min":46,"x_max":963,"o":"m 546 -74 q 518 -32 524 -74 q 517 -14 518 -22 q 515 4 515 -6 q 514 26 515 22 l 511 78 l 506 78 l 407 78 q 213 76 279 78 q 108 74 181 76 q 57 88 74 75 q 46 101 46 92 l 46 175 q 53 265 46 235 q 75 361 54 289 l 97 442 l 106 463 q 132 528 110 475 l 160 594 l 238 768 q 275 840 267 826 q 286 849 276 842 q 293 854 290 851 q 299 858 296 857 l 386 858 q 467 854 417 858 q 514 861 478 861 q 569 860 553 861 q 626 858 588 858 l 629 858 l 632 860 l 685 860 q 693 858 688 858 l 703 858 q 722 858 714 861 l 729 858 l 747 858 l 768 858 l 789 858 q 804 856 796 856 q 819 838 817 856 q 821 814 821 831 l 819 767 q 817 704 817 728 q 821 643 817 675 l 821 624 q 817 483 817 557 q 814 354 814 446 l 814 331 l 914 331 q 956 275 942 331 q 963 189 963 244 q 960 171 963 179 q 958 139 960 150 q 957 111 958 118 q 956 96 957 99 q 946 90 954 93 q 911 88 936 88 q 894 85 904 85 l 853 85 q 811 83 825 85 l 810 61 q 807 13 807 43 q 797 -53 807 -36 q 775 -60 790 -60 q 772 -58 774 -60 q 771 -57 771 -57 q 765 -60 768 -57 l 761 -60 q 754 -61 756 -60 l 726 -60 l 719 -60 q 710 -57 715 -57 q 701 -61 706 -57 l 611 -61 l 601 -62 q 580 -68 590 -65 q 560 -74 569 -71 l 546 -74 m 497 331 l 497 696 l 476 636 q 462 597 468 614 q 451 568 456 581 q 428 499 442 546 q 381 376 407 449 q 365 332 368 343 q 429 331 407 332 l 497 331 z "},"5":{"ha":817,"x_min":68,"x_max":754,"o":"m 331 -40 q 282 -35 311 -40 q 207 -22 238 -29 q 179 -14 183 -17 q 165 -7 167 -12 q 136 1 144 0 q 106 13 117 7 l 68 35 l 76 82 l 75 132 l 78 171 l 82 226 q 244 203 176 203 q 318 219 292 203 q 347 276 347 236 q 261 335 347 328 q 113 331 194 335 l 108 386 l 110 408 l 110 438 l 110 458 q 111 469 110 467 l 110 504 q 109 510 110 506 q 108 529 108 515 q 103 594 103 547 l 103 796 q 107 803 104 799 q 115 810 110 807 l 118 810 q 124 807 119 807 q 141 808 133 807 q 157 810 149 810 q 189 814 172 814 q 242 811 211 814 q 297 810 261 810 l 303 813 l 365 813 q 375 810 367 810 l 379 810 l 386 810 q 394 811 389 811 q 400 813 396 813 l 417 810 l 636 810 q 641 806 638 807 q 646 804 644 804 q 653 806 650 804 q 665 807 661 806 q 678 810 672 807 l 685 810 q 699 793 693 810 q 713 699 708 769 q 714 636 714 678 q 710 626 714 629 q 700 621 706 622 q 692 618 694 619 q 683 617 688 618 q 671 618 678 617 l 651 618 l 636 618 q 601 615 618 618 q 586 614 596 615 q 560 613 576 613 l 533 613 q 518 615 519 613 l 507 608 l 501 582 q 493 515 494 561 q 597 497 561 508 l 606 494 q 653 476 628 490 q 664 464 664 469 l 664 456 q 710 414 688 456 l 726 381 q 735 358 729 369 q 749 317 747 329 q 754 275 754 283 q 719 82 754 169 q 688 33 704 51 q 660 11 672 14 q 500 -33 588 -26 q 331 -40 444 -40 z "},"6":{"ha":1001,"x_min":60,"x_max":943,"o":"m 532 -15 q 307 32 410 -15 q 129 174 193 83 q 60 414 60 271 q 65 523 60 479 q 85 606 69 567 q 206 772 118 692 q 569 865 344 865 q 758 838 656 865 l 804 821 q 846 796 832 808 q 851 792 849 794 q 860 789 854 790 q 876 757 876 783 q 861 685 876 738 l 840 638 q 806 597 825 603 l 799 597 q 772 601 789 597 q 654 619 708 619 q 539 597 581 619 q 494 549 503 578 q 486 506 489 528 q 653 533 571 533 q 825 492 760 533 q 912 406 881 460 q 943 282 943 353 q 910 154 943 211 q 817 60 876 97 q 685 4 760 24 q 532 -15 611 -15 m 594 208 q 665 276 665 208 q 601 328 665 328 q 529 317 560 328 q 497 306 510 313 q 594 208 519 208 z "},"7":{"ha":832,"x_min":50,"x_max":789,"o":"m 425 -133 q 376 -122 407 -133 q 313 -92 344 -111 q 189 -8 236 -50 q 132 63 132 39 q 134 68 132 64 q 139 82 136 72 q 154 115 149 101 q 188 186 171 156 l 204 221 q 219 256 208 233 q 240 296 224 263 q 254 326 251 321 l 311 446 q 319 463 315 454 q 325 479 324 472 q 292 481 314 479 q 257 483 271 482 l 200 483 l 150 483 l 103 483 q 57 561 69 483 q 50 681 50 604 q 53 701 50 692 l 53 735 q 54 765 53 756 q 56 781 54 778 q 67 789 58 785 q 86 792 75 790 q 104 793 97 793 l 122 793 q 203 797 128 793 q 283 803 256 803 q 719 806 568 803 q 775 793 757 804 q 789 775 789 783 l 789 553 q 781 517 789 536 q 757 463 774 497 l 722 390 l 675 292 q 672 281 674 288 q 665 265 669 275 q 608 139 656 235 q 554 33 589 97 l 519 -32 q 483 -87 510 -51 q 453 -122 474 -101 q 442 -131 450 -128 q 425 -133 433 -133 z "},"8":{"ha":1032,"x_min":67,"x_max":969,"o":"m 528 -15 q 381 -6 450 -15 q 178 60 260 10 l 158 67 q 143 76 146 71 q 81 153 93 107 q 67 261 67 193 q 82 363 67 322 q 150 438 100 408 q 94 506 117 463 q 74 588 74 546 q 117 724 74 665 q 136 743 121 731 q 147 751 142 746 q 157 758 151 756 q 214 796 193 789 q 379 838 276 828 l 469 838 l 560 838 q 672 826 614 838 q 772 796 728 818 q 851 753 818 778 q 897 707 883 729 q 929 590 929 650 q 914 507 929 549 q 858 438 892 464 q 969 261 969 374 q 922 104 969 163 q 858 50 892 68 q 769 11 828 31 l 729 1 q 701 -1 713 -1 q 646 -7 682 -1 q 574 -14 614 -14 q 528 -15 560 -15 m 506 479 q 547 497 536 479 q 563 576 563 521 q 543 665 563 639 q 521 680 533 676 q 504 685 508 683 q 489 681 501 683 q 467 668 476 679 q 451 636 457 658 q 446 576 446 608 q 463 494 446 518 q 506 479 478 479 m 525 136 q 547 140 538 136 q 563 157 556 144 q 574 199 569 168 q 578 269 578 222 q 564 347 578 324 q 525 372 546 372 l 504 372 q 476 347 488 372 q 464 269 464 317 q 483 157 464 183 q 499 140 489 144 q 525 136 510 136 z "},"9":{"ha":1001,"x_min":60,"x_max":943,"o":"m 432 -15 q 242 14 344 -15 q 199 32 207 28 q 171 44 185 36 q 154 54 157 53 q 143 61 151 57 q 125 106 121 71 q 140 165 125 124 q 160 213 157 197 q 178 242 169 232 q 199 254 186 251 q 229 250 215 254 q 347 231 296 231 q 463 254 422 231 q 507 303 496 272 q 515 346 511 315 q 347 317 432 317 q 175 360 244 317 q 90 444 119 392 q 60 569 60 497 q 92 697 60 640 q 185 792 125 753 q 316 847 242 828 q 469 865 390 865 q 694 818 596 865 q 872 678 810 767 q 943 438 943 578 q 938 331 943 378 q 917 244 932 285 q 797 78 886 158 q 432 -15 654 -15 m 400 522 q 472 533 433 522 q 506 546 489 538 q 408 643 481 643 q 356 626 375 643 q 338 575 338 610 q 354 533 338 547 q 400 522 369 522 z "},"\u0000":{"ha":0,"x_min":0,"x_max":0,"o":""},"\r":{"ha":358,"x_min":0,"x_max":0,"o":""}," ":{"ha":358,"x_min":0,"x_max":0,"o":""},"A":{"ha":1275,"x_min":75,"x_max":1200,"o":"m 101 -1 q 76 26 83 -1 q 75 40 75 31 q 81 82 75 54 q 85 110 83 100 q 89 126 88 121 q 171 471 131 322 l 268 910 q 272 918 268 913 q 282 925 276 924 l 289 925 q 293 924 289 924 q 331 928 310 924 q 368 932 351 932 q 425 928 399 932 q 453 926 438 928 q 485 925 468 925 q 497 928 490 925 l 522 928 l 554 928 l 588 929 q 611 931 597 931 q 622 932 622 931 l 644 932 l 692 932 l 750 932 q 853 929 828 932 q 865 928 857 929 q 874 925 872 928 q 893 926 883 925 q 911 928 903 928 q 949 932 931 932 q 965 928 957 932 q 983 924 974 924 l 990 925 l 994 925 q 1003 917 999 922 q 1008 910 1008 913 l 1106 471 q 1186 126 1150 308 q 1192 108 1186 118 q 1196 82 1193 99 q 1199 54 1199 65 q 1200 39 1200 49 q 1192 7 1200 19 q 1175 -1 1186 -1 l 1157 -1 q 1125 0 1136 -1 l 1089 0 l 1054 0 l 1026 0 q 1015 1 1015 0 l 928 1 l 928 4 q 914 7 922 7 q 913 6 914 7 q 911 4 913 6 q 908 1 911 1 l 904 1 l 893 1 q 865 4 886 4 q 800 7 824 7 q 783 57 792 19 q 764 140 774 94 q 758 171 761 163 q 682 165 729 165 l 639 165 l 599 165 l 589 121 q 560 7 571 29 q 546 4 554 7 q 541 2 543 3 q 539 1 539 1 l 533 1 q 521 4 525 1 q 514 7 518 7 l 451 4 l 429 4 l 408 4 q 394 1 403 1 l 389 1 l 261 1 l 249 1 q 186 0 233 0 l 150 0 q 118 -1 139 -1 l 101 -1 m 743 339 q 733 407 733 407 q 719 481 729 426 q 706 556 717 494 q 694 622 694 622 q 686 671 690 650 l 685 689 q 681 701 681 696 l 679 710 q 678 701 678 707 q 675 694 678 696 l 675 689 l 672 671 q 669 649 671 661 q 664 624 667 638 l 657 585 q 639 483 642 497 q 632 438 638 468 q 626 408 629 428 l 615 344 l 686 344 l 696 347 l 699 347 q 724 344 715 347 q 734 342 729 344 q 743 339 739 340 z "},"Á":{"ha":1275,"x_min":75,"x_max":1200,"o":"m 101 -1 q 76 26 83 -1 q 75 40 75 31 q 81 82 75 54 q 85 110 83 100 q 89 126 88 121 q 171 471 131 322 l 268 910 q 272 918 268 913 q 282 925 276 924 l 289 925 q 293 924 289 924 q 331 928 310 924 q 368 932 351 932 q 425 928 399 932 q 453 926 438 928 q 485 925 468 925 q 497 928 490 925 l 522 928 l 554 928 l 588 929 q 611 931 597 931 q 622 932 622 931 l 644 932 l 692 932 l 750 932 q 853 929 828 932 q 865 928 857 929 q 874 925 872 928 q 893 926 883 925 q 911 928 903 928 q 949 932 931 932 q 965 928 957 932 q 983 924 974 924 l 990 925 l 994 925 q 1003 917 999 922 q 1008 910 1008 913 l 1106 471 q 1186 126 1150 308 q 1192 108 1186 118 q 1196 82 1193 99 q 1199 54 1199 65 q 1200 39 1200 49 q 1192 7 1200 19 q 1175 -1 1186 -1 l 1157 -1 q 1125 0 1136 -1 l 1089 0 l 1054 0 l 1026 0 q 1015 1 1015 0 l 928 1 l 928 4 q 914 7 922 7 q 913 6 914 7 q 911 4 913 6 q 908 1 911 1 l 904 1 l 893 1 q 865 4 886 4 q 800 7 824 7 q 783 57 792 19 q 764 140 774 94 q 758 171 761 163 q 682 165 729 165 l 639 165 l 599 165 l 589 121 q 560 7 571 29 q 546 4 554 7 q 541 2 543 3 q 539 1 539 1 l 533 1 q 521 4 525 1 q 514 7 518 7 l 451 4 l 429 4 l 408 4 q 394 1 403 1 l 389 1 l 261 1 l 249 1 q 186 0 233 0 l 150 0 q 118 -1 139 -1 l 101 -1 m 743 339 q 733 407 733 407 q 719 481 729 426 q 706 556 717 494 q 694 622 694 622 q 686 671 690 650 l 685 689 q 681 701 681 696 l 679 710 q 678 701 678 707 q 675 694 678 696 l 675 689 l 672 671 q 669 649 671 661 q 664 624 667 638 l 657 585 q 639 483 642 497 q 632 438 638 468 q 626 408 629 428 l 615 344 l 686 344 l 696 347 l 699 347 q 724 344 715 347 q 734 342 729 344 q 743 339 739 340 m 547 1022 q 526 1033 532 1022 q 521 1064 521 1044 q 533 1210 521 1133 q 544 1282 542 1254 q 549 1313 546 1294 q 553 1356 551 1332 q 603 1571 572 1460 l 614 1579 l 674 1589 q 763 1592 736 1589 l 839 1593 l 847 1589 q 864 1592 851 1592 l 878 1592 q 880 1590 878 1592 q 885 1589 882 1589 l 893 1588 l 954 1585 l 963 1581 q 968 1582 968 1581 l 972 1582 q 1010 1571 996 1576 q 1019 1558 1019 1568 q 1017 1544 1019 1556 l 1001 1518 l 982 1485 l 961 1446 q 940 1411 947 1421 q 929 1393 933 1401 q 919 1378 925 1385 q 875 1293 897 1343 q 831 1206 858 1251 l 806 1154 q 753 1043 775 1083 q 729 1022 738 1022 l 704 1022 l 678 1022 l 669 1026 l 663 1022 l 622 1022 q 606 1023 615 1022 q 586 1022 597 1024 l 547 1022 z "},"Ă":{"ha":1275,"x_min":75,"x_max":1200,"o":"m 101 -1 q 76 26 83 -1 q 75 40 75 31 q 81 82 75 54 q 85 110 83 100 q 89 126 88 121 q 171 471 131 322 l 268 910 q 272 918 268 913 q 282 925 276 924 l 289 925 q 293 924 289 924 q 331 928 310 924 q 368 932 351 932 q 425 928 399 932 q 453 926 438 928 q 485 925 468 925 q 497 928 490 925 l 522 928 l 554 928 l 588 929 q 611 931 597 931 q 622 932 622 931 l 644 932 l 692 932 l 750 932 q 853 929 828 932 q 865 928 857 929 q 874 925 872 928 q 893 926 883 925 q 911 928 903 928 q 949 932 931 932 q 965 928 957 932 q 983 924 974 924 l 990 925 l 994 925 q 1003 917 999 922 q 1008 910 1008 913 l 1106 471 q 1186 126 1150 308 q 1192 108 1186 118 q 1196 82 1193 99 q 1199 54 1199 65 q 1200 39 1200 49 q 1192 7 1200 19 q 1175 -1 1186 -1 l 1157 -1 q 1125 0 1136 -1 l 1089 0 l 1054 0 l 1026 0 q 1015 1 1015 0 l 928 1 l 928 4 q 914 7 922 7 q 913 6 914 7 q 911 4 913 6 q 908 1 911 1 l 904 1 l 893 1 q 865 4 886 4 q 800 7 824 7 q 783 57 792 19 q 764 140 774 94 q 758 171 761 163 q 682 165 729 165 l 639 165 l 599 165 l 589 121 q 560 7 571 29 q 546 4 554 7 q 541 2 543 3 q 539 1 539 1 l 533 1 q 521 4 525 1 q 514 7 518 7 l 451 4 l 429 4 l 408 4 q 394 1 403 1 l 389 1 l 261 1 l 249 1 q 186 0 233 0 l 150 0 q 118 -1 139 -1 l 101 -1 m 743 339 q 733 407 733 407 q 719 481 729 426 q 706 556 717 494 q 694 622 694 622 q 686 671 690 650 l 685 689 q 681 701 681 696 l 679 710 q 678 701 678 707 q 675 694 678 696 l 675 689 l 672 671 q 669 649 671 661 q 664 624 667 638 l 657 585 q 639 483 642 497 q 632 438 638 468 q 626 408 629 428 l 615 344 l 686 344 l 696 347 l 699 347 q 724 344 715 347 q 734 342 729 344 q 743 339 739 340 m 621 1013 q 501 1033 560 1013 q 394 1088 442 1053 q 321 1171 347 1122 q 294 1275 294 1219 q 322 1392 294 1335 l 539 1390 q 526 1294 526 1340 l 528 1265 q 529 1263 528 1265 q 532 1258 531 1261 q 588 1219 540 1238 q 651 1211 611 1211 q 725 1244 692 1211 q 754 1321 754 1274 q 743 1404 754 1364 l 968 1397 q 982 1297 982 1357 q 959 1204 982 1250 q 892 1106 936 1158 q 764 1029 844 1053 q 621 1013 708 1013 z "},"Ắ":{"ha":1275,"x_min":75,"x_max":1200,"o":"m 101 -1 q 76 26 83 -1 q 75 40 75 31 q 81 82 75 54 q 85 110 83 100 q 89 126 88 121 q 171 471 131 322 l 268 910 q 272 918 268 913 q 282 925 276 924 l 289 925 q 293 924 289 924 q 331 928 310 924 q 368 932 351 932 q 425 928 399 932 q 453 926 438 928 q 485 925 468 925 q 497 928 490 925 l 522 928 l 554 928 l 588 929 q 611 931 597 931 q 622 932 622 931 l 644 932 l 692 932 l 750 932 q 853 929 828 932 q 865 928 857 929 q 874 925 872 928 q 893 926 883 925 q 911 928 903 928 q 949 932 931 932 q 965 928 957 932 q 983 924 974 924 l 990 925 l 994 925 q 1003 917 999 922 q 1008 910 1008 913 l 1106 471 q 1186 126 1150 308 q 1192 108 1186 118 q 1196 82 1193 99 q 1199 54 1199 65 q 1200 39 1200 49 q 1192 7 1200 19 q 1175 -1 1186 -1 l 1157 -1 q 1125 0 1136 -1 l 1089 0 l 1054 0 l 1026 0 q 1015 1 1015 0 l 928 1 l 928 4 q 914 7 922 7 q 913 6 914 7 q 911 4 913 6 q 908 1 911 1 l 904 1 l 893 1 q 865 4 886 4 q 800 7 824 7 q 783 57 792 19 q 764 140 774 94 q 758 171 761 163 q 682 165 729 165 l 639 165 l 599 165 l 589 121 q 560 7 571 29 q 546 4 554 7 q 541 2 543 3 q 539 1 539 1 l 533 1 q 521 4 525 1 q 514 7 518 7 l 451 4 l 429 4 l 408 4 q 394 1 403 1 l 389 1 l 261 1 l 249 1 q 186 0 233 0 l 150 0 q 118 -1 139 -1 l 101 -1 m 743 339 q 733 407 733 407 q 719 481 729 426 q 706 556 717 494 q 694 622 694 622 q 686 671 690 650 l 685 689 q 681 701 681 696 l 679 710 q 678 701 678 707 q 675 694 678 696 l 675 689 l 672 671 q 669 649 671 661 q 664 624 667 638 l 657 585 q 639 483 642 497 q 632 438 638 468 q 626 408 629 428 l 615 344 l 686 344 l 696 347 l 699 347 q 724 344 715 347 q 734 342 729 344 q 743 339 739 340 m 614 1018 q 524 1033 568 1018 q 444 1074 479 1047 q 379 1172 379 1125 q 385 1246 379 1211 l 547 1246 q 543 1222 543 1229 q 547 1203 543 1215 q 589 1172 556 1182 q 638 1165 621 1165 q 693 1192 667 1165 q 710 1226 710 1208 q 707 1244 710 1231 l 875 1239 q 864 1171 881 1221 q 818 1088 847 1121 q 722 1031 782 1047 q 614 1018 683 1018 m 610 1294 l 604 1290 l 572 1290 q 551 1301 556 1290 q 546 1332 546 1313 q 547 1403 546 1381 q 549 1429 549 1411 q 546 1488 549 1443 q 542 1592 542 1575 l 553 1600 l 588 1611 q 676 1613 650 1611 l 764 1606 l 775 1603 q 778 1604 778 1603 l 785 1604 q 806 1599 793 1601 q 822 1592 818 1596 q 831 1579 831 1588 q 826 1565 831 1574 q 813 1540 825 1557 q 798 1508 808 1532 q 774 1460 788 1483 q 749 1413 758 1438 q 694 1311 726 1354 q 672 1290 682 1290 l 644 1290 l 621 1290 l 610 1294 z "},"Ặ":{"ha":1275,"x_min":75,"x_max":1200,"o":"m 101 -1 q 76 26 83 -1 q 75 40 75 31 q 81 82 75 54 q 85 110 83 100 q 89 126 88 121 q 171 471 131 322 l 268 910 q 272 918 268 913 q 282 925 276 924 l 289 925 q 293 924 289 924 q 331 928 310 924 q 368 932 351 932 q 425 928 399 932 q 453 926 438 928 q 485 925 468 925 q 497 928 490 925 l 522 928 l 554 928 l 588 929 q 611 931 597 931 q 622 932 622 931 l 644 932 l 692 932 l 750 932 q 853 929 828 932 q 865 928 857 929 q 874 925 872 928 q 893 926 883 925 q 911 928 903 928 q 949 932 931 932 q 965 928 957 932 q 983 924 974 924 l 990 925 l 994 925 q 1003 917 999 922 q 1008 910 1008 913 l 1106 471 q 1186 126 1150 308 q 1192 108 1186 118 q 1196 82 1193 99 q 1199 54 1199 65 q 1200 39 1200 49 q 1192 7 1200 19 q 1175 -1 1186 -1 l 1157 -1 q 1125 0 1136 -1 l 1089 0 l 1054 0 l 1026 0 q 1015 1 1015 0 l 928 1 l 928 4 q 914 7 922 7 q 913 6 914 7 q 911 4 913 6 q 908 1 911 1 l 904 1 l 893 1 q 865 4 886 4 q 800 7 824 7 q 783 57 792 19 q 764 140 774 94 q 758 171 761 163 q 682 165 729 165 l 639 165 l 599 165 l 589 121 q 560 7 571 29 q 546 4 554 7 q 541 2 543 3 q 539 1 539 1 l 533 1 q 521 4 525 1 q 514 7 518 7 l 451 4 l 429 4 l 408 4 q 394 1 403 1 l 389 1 l 261 1 l 249 1 q 186 0 233 0 l 150 0 q 118 -1 139 -1 l 101 -1 m 743 339 q 733 407 733 407 q 719 481 729 426 q 706 556 717 494 q 694 622 694 622 q 686 671 690 650 l 685 689 q 681 701 681 696 l 679 710 q 678 701 678 707 q 675 694 678 696 l 675 689 l 672 671 q 669 649 671 661 q 664 624 667 638 l 657 585 q 639 483 642 497 q 632 438 638 468 q 626 408 629 428 l 615 344 l 686 344 l 696 347 l 699 347 q 724 344 715 347 q 734 342 729 344 q 743 339 739 340 m 614 1018 q 524 1033 568 1018 q 444 1074 479 1047 q 379 1172 379 1125 q 385 1246 379 1211 l 547 1246 q 543 1222 543 1229 q 547 1203 543 1215 q 589 1172 556 1182 q 638 1165 621 1165 q 693 1192 667 1165 q 710 1226 710 1208 q 707 1244 710 1231 l 875 1239 q 864 1171 881 1221 q 818 1088 847 1121 q 722 1031 782 1047 q 614 1018 683 1018 m 617 -381 q 597 -379 611 -379 l 507 -369 l 500 -362 q 499 -312 499 -353 q 503 -226 499 -271 l 506 -186 l 506 -157 q 535 -140 507 -140 l 575 -140 q 614 -143 588 -143 l 639 -143 q 672 -140 650 -140 l 683 -140 l 694 -140 l 707 -140 q 715 -143 711 -143 q 729 -140 725 -143 l 743 -140 q 771 -153 771 -140 l 771 -157 q 769 -172 769 -164 l 769 -182 l 769 -199 l 769 -235 l 769 -342 q 767 -354 769 -349 q 754 -369 763 -368 q 740 -374 751 -374 l 736 -372 l 733 -372 l 733 -372 l 726 -374 l 700 -376 l 693 -379 l 685 -381 l 676 -379 q 672 -378 674 -379 q 669 -376 671 -376 q 665 -379 665 -376 l 658 -381 l 635 -381 l 617 -381 z "},"Ằ":{"ha":1275,"x_min":75,"x_max":1200,"o":"m 101 -1 q 76 26 83 -1 q 75 40 75 31 q 81 82 75 54 q 85 110 83 100 q 89 126 88 121 q 171 471 131 322 l 268 910 q 272 918 268 913 q 282 925 276 924 l 289 925 q 293 924 289 924 q 331 928 310 924 q 368 932 351 932 q 425 928 399 932 q 453 926 438 928 q 485 925 468 925 q 497 928 490 925 l 522 928 l 554 928 l 588 929 q 611 931 597 931 q 622 932 622 931 l 644 932 l 692 932 l 750 932 q 853 929 828 932 q 865 928 857 929 q 874 925 872 928 q 893 926 883 925 q 911 928 903 928 q 949 932 931 932 q 965 928 957 932 q 983 924 974 924 l 990 925 l 994 925 q 1003 917 999 922 q 1008 910 1008 913 l 1106 471 q 1186 126 1150 308 q 1192 108 1186 118 q 1196 82 1193 99 q 1199 54 1199 65 q 1200 39 1200 49 q 1192 7 1200 19 q 1175 -1 1186 -1 l 1157 -1 q 1125 0 1136 -1 l 1089 0 l 1054 0 l 1026 0 q 1015 1 1015 0 l 928 1 l 928 4 q 914 7 922 7 q 913 6 914 7 q 911 4 913 6 q 908 1 911 1 l 904 1 l 893 1 q 865 4 886 4 q 800 7 824 7 q 783 57 792 19 q 764 140 774 94 q 758 171 761 163 q 682 165 729 165 l 639 165 l 599 165 l 589 121 q 560 7 571 29 q 546 4 554 7 q 541 2 543 3 q 539 1 539 1 l 533 1 q 521 4 525 1 q 514 7 518 7 l 451 4 l 429 4 l 408 4 q 394 1 403 1 l 389 1 l 261 1 l 249 1 q 186 0 233 0 l 150 0 q 118 -1 139 -1 l 101 -1 m 743 339 q 733 407 733 407 q 719 481 729 426 q 706 556 717 494 q 694 622 694 622 q 686 671 690 650 l 685 689 q 681 701 681 696 l 679 710 q 678 701 678 707 q 675 694 678 696 l 675 689 l 672 671 q 669 649 671 661 q 664 624 667 638 l 657 585 q 639 483 642 497 q 632 438 638 468 q 626 408 629 428 l 615 344 l 686 344 l 696 347 l 699 347 q 724 344 715 347 q 734 342 729 344 q 743 339 739 340 m 614 1018 q 524 1033 568 1018 q 444 1074 479 1047 q 379 1172 379 1125 q 385 1246 379 1211 l 547 1246 q 543 1222 543 1229 q 547 1203 543 1215 q 589 1172 556 1182 q 638 1165 621 1165 q 693 1192 667 1165 q 710 1226 710 1208 q 707 1244 710 1231 l 875 1239 q 864 1171 881 1221 q 818 1088 847 1121 q 722 1031 782 1047 q 614 1018 683 1018 m 599 1274 l 571 1274 q 547 1294 561 1274 q 494 1396 521 1333 q 483 1418 489 1406 q 469 1443 476 1431 q 442 1499 454 1468 l 429 1524 q 415 1549 421 1536 q 411 1563 411 1557 q 421 1575 411 1571 q 437 1582 425 1579 q 457 1588 449 1585 l 464 1588 q 468 1586 464 1586 l 478 1589 l 567 1596 q 656 1594 593 1594 l 690 1583 l 700 1575 q 697 1474 700 1532 q 694 1415 694 1432 q 696 1386 694 1396 q 697 1315 697 1364 q 692 1285 697 1296 q 671 1274 688 1274 l 638 1274 l 633 1278 l 622 1274 l 599 1274 z "},"Ẳ":{"ha":1275,"x_min":75,"x_max":1200,"o":"m 101 -1 q 76 26 83 -1 q 75 40 75 31 q 81 82 75 54 q 85 110 83 100 q 89 126 88 121 q 171 471 131 322 l 268 910 q 272 918 268 913 q 282 925 276 924 l 289 925 q 293 924 289 924 q 331 928 310 924 q 368 932 351 932 q 425 928 399 932 q 453 926 438 928 q 485 925 468 925 q 497 928 490 925 l 522 928 l 554 928 l 588 929 q 611 931 597 931 q 622 932 622 931 l 644 932 l 692 932 l 750 932 q 853 929 828 932 q 865 928 857 929 q 874 925 872 928 q 893 926 883 925 q 911 928 903 928 q 949 932 931 932 q 965 928 957 932 q 983 924 974 924 l 990 925 l 994 925 q 1003 917 999 922 q 1008 910 1008 913 l 1106 471 q 1186 126 1150 308 q 1192 108 1186 118 q 1196 82 1193 99 q 1199 54 1199 65 q 1200 39 1200 49 q 1192 7 1200 19 q 1175 -1 1186 -1 l 1157 -1 q 1125 0 1136 -1 l 1089 0 l 1054 0 l 1026 0 q 1015 1 1015 0 l 928 1 l 928 4 q 914 7 922 7 q 913 6 914 7 q 911 4 913 6 q 908 1 911 1 l 904 1 l 893 1 q 865 4 886 4 q 800 7 824 7 q 783 57 792 19 q 764 140 774 94 q 758 171 761 163 q 682 165 729 165 l 639 165 l 599 165 l 589 121 q 560 7 571 29 q 546 4 554 7 q 541 2 543 3 q 539 1 539 1 l 533 1 q 521 4 525 1 q 514 7 518 7 l 451 4 l 429 4 l 408 4 q 394 1 403 1 l 389 1 l 261 1 l 249 1 q 186 0 233 0 l 150 0 q 118 -1 139 -1 l 101 -1 m 743 339 q 733 407 733 407 q 719 481 729 426 q 706 556 717 494 q 694 622 694 622 q 686 671 690 650 l 685 689 q 681 701 681 696 l 679 710 q 678 701 678 707 q 675 694 678 696 l 675 689 l 672 671 q 669 649 671 661 q 664 624 667 638 l 657 585 q 639 483 642 497 q 632 438 638 468 q 626 408 629 428 l 615 344 l 686 344 l 696 347 l 699 347 q 724 344 715 347 q 734 342 729 344 q 743 339 739 340 m 614 1018 q 524 1033 568 1018 q 444 1074 479 1047 q 379 1172 379 1125 q 385 1246 379 1211 l 547 1246 q 543 1222 543 1229 q 547 1203 543 1215 q 589 1172 556 1182 q 638 1165 621 1165 q 693 1192 667 1165 q 710 1226 710 1208 q 707 1244 710 1231 l 875 1239 q 864 1171 881 1221 q 818 1088 847 1121 q 722 1031 782 1047 q 614 1018 683 1018 m 581 1274 q 558 1289 564 1274 q 554 1329 554 1300 q 567 1379 554 1358 q 617 1426 579 1400 q 646 1461 646 1447 q 588 1481 646 1481 q 525 1476 543 1481 q 503 1472 507 1472 q 496 1483 496 1472 q 500 1564 496 1522 q 502 1576 501 1571 q 504 1585 503 1582 q 510 1593 506 1590 q 518 1597 514 1596 q 524 1597 522 1597 q 649 1606 585 1606 q 784 1581 731 1606 q 838 1501 838 1556 q 754 1382 838 1431 q 706 1348 719 1361 q 692 1317 692 1335 l 690 1286 q 681 1274 690 1274 l 674 1274 l 638 1275 q 618 1274 631 1275 q 581 1274 606 1274 z "},"Ẵ":{"ha":1275,"x_min":75,"x_max":1200,"o":"m 101 -1 q 76 26 83 -1 q 75 40 75 31 q 81 82 75 54 q 85 110 83 100 q 89 126 88 121 q 171 471 131 322 l 268 910 q 272 918 268 913 q 282 925 276 924 l 289 925 q 293 924 289 924 q 331 928 310 924 q 368 932 351 932 q 425 928 399 932 q 453 926 438 928 q 485 925 468 925 q 497 928 490 925 l 522 928 l 554 928 l 588 929 q 611 931 597 931 q 622 932 622 931 l 644 932 l 692 932 l 750 932 q 853 929 828 932 q 865 928 857 929 q 874 925 872 928 q 893 926 883 925 q 911 928 903 928 q 949 932 931 932 q 965 928 957 932 q 983 924 974 924 l 990 925 l 994 925 q 1003 917 999 922 q 1008 910 1008 913 l 1106 471 q 1186 126 1150 308 q 1192 108 1186 118 q 1196 82 1193 99 q 1199 54 1199 65 q 1200 39 1200 49 q 1192 7 1200 19 q 1175 -1 1186 -1 l 1157 -1 q 1125 0 1136 -1 l 1089 0 l 1054 0 l 1026 0 q 1015 1 1015 0 l 928 1 l 928 4 q 914 7 922 7 q 913 6 914 7 q 911 4 913 6 q 908 1 911 1 l 904 1 l 893 1 q 865 4 886 4 q 800 7 824 7 q 783 57 792 19 q 764 140 774 94 q 758 171 761 163 q 682 165 729 165 l 639 165 l 599 165 l 589 121 q 560 7 571 29 q 546 4 554 7 q 541 2 543 3 q 539 1 539 1 l 533 1 q 521 4 525 1 q 514 7 518 7 l 451 4 l 429 4 l 408 4 q 394 1 403 1 l 389 1 l 261 1 l 249 1 q 186 0 233 0 l 150 0 q 118 -1 139 -1 l 101 -1 m 743 339 q 733 407 733 407 q 719 481 729 426 q 706 556 717 494 q 694 622 694 622 q 686 671 690 650 l 685 689 q 681 701 681 696 l 679 710 q 678 701 678 707 q 675 694 678 696 l 675 689 l 672 671 q 669 649 671 661 q 664 624 667 638 l 657 585 q 639 483 642 497 q 632 438 638 468 q 626 408 629 428 l 615 344 l 686 344 l 696 347 l 699 347 q 724 344 715 347 q 734 342 729 344 q 743 339 739 340 m 614 1018 q 524 1033 568 1018 q 444 1074 479 1047 q 379 1172 379 1125 q 385 1246 379 1211 l 547 1246 q 543 1222 543 1229 q 547 1203 543 1215 q 589 1172 556 1182 q 638 1165 621 1165 q 693 1192 667 1165 q 710 1226 710 1208 q 707 1244 710 1231 l 875 1239 q 864 1171 881 1221 q 818 1088 847 1121 q 722 1031 782 1047 q 614 1018 683 1018 m 715 1293 q 633 1317 668 1293 q 620 1326 631 1319 q 604 1340 610 1333 q 556 1383 581 1371 q 529 1389 542 1389 q 513 1369 518 1389 q 508 1349 508 1360 q 508 1332 508 1343 q 503 1317 507 1321 q 499 1317 500 1315 q 418 1321 432 1317 q 401 1326 407 1324 q 394 1335 396 1329 q 389 1347 392 1338 q 387 1354 388 1350 q 385 1365 386 1358 q 392 1440 385 1394 q 432 1514 401 1488 q 544 1544 468 1544 q 572 1538 554 1544 q 596 1529 590 1531 q 644 1494 635 1517 q 653 1482 646 1489 q 665 1467 658 1476 q 676 1454 671 1457 q 693 1449 685 1449 q 717 1467 717 1449 q 708 1500 717 1482 l 694 1525 q 707 1532 694 1532 l 711 1532 l 842 1535 q 854 1521 850 1529 q 869 1456 868 1494 l 871 1425 q 861 1382 871 1399 q 801 1317 843 1344 q 757 1299 783 1306 q 715 1293 743 1293 z "},"Â":{"ha":1275,"x_min":75,"x_max":1200,"o":"m 101 -1 q 76 26 83 -1 q 75 40 75 31 q 81 82 75 54 q 85 110 83 100 q 89 126 88 121 q 171 471 131 322 l 268 910 q 272 918 268 913 q 282 925 276 924 l 289 925 q 293 924 289 924 q 331 928 310 924 q 368 932 351 932 q 425 928 399 932 q 453 926 438 928 q 485 925 468 925 q 497 928 490 925 l 522 928 l 554 928 l 588 929 q 611 931 597 931 q 622 932 622 931 l 644 932 l 692 932 l 750 932 q 853 929 828 932 q 865 928 857 929 q 874 925 872 928 q 893 926 883 925 q 911 928 903 928 q 949 932 931 932 q 965 928 957 932 q 983 924 974 924 l 990 925 l 994 925 q 1003 917 999 922 q 1008 910 1008 913 l 1106 471 q 1186 126 1150 308 q 1192 108 1186 118 q 1196 82 1193 99 q 1199 54 1199 65 q 1200 39 1200 49 q 1192 7 1200 19 q 1175 -1 1186 -1 l 1157 -1 q 1125 0 1136 -1 l 1089 0 l 1054 0 l 1026 0 q 1015 1 1015 0 l 928 1 l 928 4 q 914 7 922 7 q 913 6 914 7 q 911 4 913 6 q 908 1 911 1 l 904 1 l 893 1 q 865 4 886 4 q 800 7 824 7 q 783 57 792 19 q 764 140 774 94 q 758 171 761 163 q 682 165 729 165 l 639 165 l 599 165 l 589 121 q 560 7 571 29 q 546 4 554 7 q 541 2 543 3 q 539 1 539 1 l 533 1 q 521 4 525 1 q 514 7 518 7 l 451 4 l 429 4 l 408 4 q 394 1 403 1 l 389 1 l 261 1 l 249 1 q 186 0 233 0 l 150 0 q 118 -1 139 -1 l 101 -1 m 743 339 q 733 407 733 407 q 719 481 729 426 q 706 556 717 494 q 694 622 694 622 q 686 671 690 650 l 685 689 q 681 701 681 696 l 679 710 q 678 701 678 707 q 675 694 678 696 l 675 689 l 672 671 q 669 649 671 661 q 664 624 667 638 l 657 585 q 639 483 642 497 q 632 438 638 468 q 626 408 629 428 l 615 344 l 686 344 l 696 347 l 699 347 q 724 344 715 347 q 734 342 729 344 q 743 339 739 340 m 274 1022 q 259 1031 264 1022 q 254 1050 254 1039 l 254 1058 q 256 1067 254 1064 q 308 1203 265 1118 q 340 1269 318 1225 l 371 1338 l 413 1418 q 457 1497 424 1442 l 465 1508 l 531 1524 l 611 1524 l 664 1522 l 685 1522 l 700 1522 q 718 1519 706 1519 l 746 1519 l 788 1515 l 818 1497 l 878 1394 q 983 1179 954 1254 q 1019 1067 1008 1117 l 1021 1058 l 1021 1050 q 1000 1022 1021 1022 l 969 1022 l 936 1022 l 896 1022 l 844 1022 l 815 1022 q 796 1038 808 1022 q 743 1114 767 1075 q 719 1149 729 1136 q 638 1261 682 1196 q 565 1142 583 1169 l 547 1117 q 506 1060 519 1075 q 461 1022 472 1022 l 435 1022 l 406 1022 l 400 1026 l 393 1022 l 351 1022 q 338 1023 346 1022 q 315 1022 329 1024 l 274 1022 z "},"Ấ":{"ha":1275,"x_min":75,"x_max":1200,"o":"m 101 -1 q 76 26 83 -1 q 75 40 75 31 q 81 82 75 54 q 85 110 83 100 q 89 126 88 121 q 171 471 131 322 l 268 910 q 272 918 268 913 q 282 925 276 924 l 289 925 q 293 924 289 924 q 331 928 310 924 q 368 932 351 932 q 425 928 399 932 q 453 926 438 928 q 485 925 468 925 q 497 928 490 925 l 522 928 l 554 928 l 588 929 q 611 931 597 931 q 622 932 622 931 l 644 932 l 692 932 l 750 932 q 853 929 828 932 q 865 928 857 929 q 874 925 872 928 q 893 926 883 925 q 911 928 903 928 q 949 932 931 932 q 965 928 957 932 q 983 924 974 924 l 990 925 l 994 925 q 1003 917 999 922 q 1008 910 1008 913 l 1106 471 q 1186 126 1150 308 q 1192 108 1186 118 q 1196 82 1193 99 q 1199 54 1199 65 q 1200 39 1200 49 q 1192 7 1200 19 q 1175 -1 1186 -1 l 1157 -1 q 1125 0 1136 -1 l 1089 0 l 1054 0 l 1026 0 q 1015 1 1015 0 l 928 1 l 928 4 q 914 7 922 7 q 913 6 914 7 q 911 4 913 6 q 908 1 911 1 l 904 1 l 893 1 q 865 4 886 4 q 800 7 824 7 q 783 57 792 19 q 764 140 774 94 q 758 171 761 163 q 682 165 729 165 l 639 165 l 599 165 l 589 121 q 560 7 571 29 q 546 4 554 7 q 541 2 543 3 q 539 1 539 1 l 533 1 q 521 4 525 1 q 514 7 518 7 l 451 4 l 429 4 l 408 4 q 394 1 403 1 l 389 1 l 261 1 l 249 1 q 186 0 233 0 l 150 0 q 118 -1 139 -1 l 101 -1 m 743 339 q 733 407 733 407 q 719 481 729 426 q 706 556 717 494 q 694 622 694 622 q 686 671 690 650 l 685 689 q 681 701 681 696 l 679 710 q 678 701 678 707 q 675 694 678 696 l 675 689 l 672 671 q 669 649 671 661 q 664 624 667 638 l 657 585 q 639 483 642 497 q 632 438 638 468 q 626 408 629 428 l 615 344 l 686 344 l 696 347 l 699 347 q 724 344 715 347 q 734 342 729 344 q 743 339 739 340 m 353 1013 q 342 1019 346 1013 q 339 1033 339 1025 l 339 1040 q 340 1047 339 1046 q 367 1082 353 1067 q 410 1149 400 1126 l 442 1189 q 468 1219 447 1199 q 496 1249 486 1236 l 500 1258 l 547 1286 l 646 1286 l 663 1286 l 674 1286 q 686 1283 678 1283 l 707 1283 l 740 1281 l 763 1267 l 857 1124 l 881 1092 q 914 1047 897 1065 l 915 1040 l 915 1033 q 900 1013 915 1013 l 875 1013 l 850 1013 l 822 1013 l 782 1013 l 761 1013 q 746 1025 753 1013 l 713 1054 q 628 1131 665 1093 q 583 1090 604 1111 q 528 1040 533 1046 q 493 1013 503 1013 l 475 1013 l 451 1013 l 447 1017 l 443 1013 l 410 1013 l 385 1013 l 353 1013 m 961 1156 l 956 1151 l 924 1151 q 902 1163 907 1151 q 897 1193 897 1174 q 899 1264 897 1242 q 900 1290 900 1272 q 897 1349 900 1304 q 893 1453 893 1436 l 904 1461 l 939 1472 q 1028 1474 1001 1472 l 1115 1467 l 1126 1464 q 1129 1465 1129 1464 l 1136 1465 q 1157 1460 1144 1463 q 1174 1453 1169 1457 q 1182 1440 1182 1449 q 1178 1426 1182 1435 q 1164 1401 1176 1418 q 1149 1369 1160 1393 q 1125 1321 1139 1344 q 1100 1274 1110 1299 q 1046 1172 1078 1215 q 1024 1151 1033 1151 l 996 1151 l 972 1151 l 961 1156 z "},"Ậ":{"ha":1275,"x_min":75,"x_max":1200,"o":"m 101 -1 q 76 26 83 -1 q 75 40 75 31 q 81 82 75 54 q 85 110 83 100 q 89 126 88 121 q 171 471 131 322 l 268 910 q 272 918 268 913 q 282 925 276 924 l 289 925 q 293 924 289 924 q 331 928 310 924 q 368 932 351 932 q 425 928 399 932 q 453 926 438 928 q 485 925 468 925 q 497 928 490 925 l 522 928 l 554 928 l 588 929 q 611 931 597 931 q 622 932 622 931 l 644 932 l 692 932 l 750 932 q 853 929 828 932 q 865 928 857 929 q 874 925 872 928 q 893 926 883 925 q 911 928 903 928 q 949 932 931 932 q 965 928 957 932 q 983 924 974 924 l 990 925 l 994 925 q 1003 917 999 922 q 1008 910 1008 913 l 1106 471 q 1186 126 1150 308 q 1192 108 1186 118 q 1196 82 1193 99 q 1199 54 1199 65 q 1200 39 1200 49 q 1192 7 1200 19 q 1175 -1 1186 -1 l 1157 -1 q 1125 0 1136 -1 l 1089 0 l 1054 0 l 1026 0 q 1015 1 1015 0 l 928 1 l 928 4 q 914 7 922 7 q 913 6 914 7 q 911 4 913 6 q 908 1 911 1 l 904 1 l 893 1 q 865 4 886 4 q 800 7 824 7 q 783 57 792 19 q 764 140 774 94 q 758 171 761 163 q 682 165 729 165 l 639 165 l 599 165 l 589 121 q 560 7 571 29 q 546 4 554 7 q 541 2 543 3 q 539 1 539 1 l 533 1 q 521 4 525 1 q 514 7 518 7 l 451 4 l 429 4 l 408 4 q 394 1 403 1 l 389 1 l 261 1 l 249 1 q 186 0 233 0 l 150 0 q 118 -1 139 -1 l 101 -1 m 743 339 q 733 407 733 407 q 719 481 729 426 q 706 556 717 494 q 694 622 694 622 q 686 671 690 650 l 685 689 q 681 701 681 696 l 679 710 q 678 701 678 707 q 675 694 678 696 l 675 689 l 672 671 q 669 649 671 661 q 664 624 667 638 l 657 585 q 639 483 642 497 q 632 438 638 468 q 626 408 629 428 l 615 344 l 686 344 l 696 347 l 699 347 q 724 344 715 347 q 734 342 729 344 q 743 339 739 340 m 353 1013 q 342 1019 346 1013 q 339 1033 339 1025 l 339 1040 q 340 1047 339 1046 q 367 1082 353 1067 q 410 1149 400 1126 l 442 1189 q 468 1219 447 1199 q 496 1249 486 1236 l 500 1258 l 547 1286 l 646 1286 l 663 1286 l 674 1286 q 686 1283 678 1283 l 707 1283 l 740 1281 l 763 1267 l 857 1124 l 881 1092 q 914 1047 897 1065 l 915 1040 l 915 1033 q 900 1013 915 1013 l 875 1013 l 850 1013 l 822 1013 l 782 1013 l 761 1013 q 746 1025 753 1013 l 713 1054 q 628 1131 665 1093 q 583 1090 604 1111 q 528 1040 533 1046 q 493 1013 503 1013 l 475 1013 l 451 1013 l 447 1017 l 443 1013 l 410 1013 l 385 1013 l 353 1013 m 617 -381 q 597 -379 611 -379 l 507 -369 l 500 -362 q 499 -312 499 -353 q 503 -226 499 -271 l 506 -186 l 506 -157 q 535 -140 507 -140 l 575 -140 q 614 -143 588 -143 l 639 -143 q 672 -140 650 -140 l 683 -140 l 694 -140 l 707 -140 q 715 -143 711 -143 q 729 -140 725 -143 l 743 -140 q 771 -153 771 -140 l 771 -157 q 769 -172 769 -164 l 769 -182 l 769 -199 l 769 -235 l 769 -342 q 767 -354 769 -349 q 754 -369 763 -368 q 740 -374 751 -374 l 736 -372 l 733 -372 l 733 -372 l 726 -374 l 700 -376 l 693 -379 l 685 -381 l 676 -379 q 672 -378 674 -379 q 669 -376 671 -376 q 665 -379 665 -376 l 658 -381 l 635 -381 l 617 -381 z "},"Ầ":{"ha":1275,"x_min":75,"x_max":1200,"o":"m 101 -1 q 76 26 83 -1 q 75 40 75 31 q 81 82 75 54 q 85 110 83 100 q 89 126 88 121 q 171 471 131 322 l 268 910 q 272 918 268 913 q 282 925 276 924 l 289 925 q 293 924 289 924 q 331 928 310 924 q 368 932 351 932 q 425 928 399 932 q 453 926 438 928 q 485 925 468 925 q 497 928 490 925 l 522 928 l 554 928 l 588 929 q 611 931 597 931 q 622 932 622 931 l 644 932 l 692 932 l 750 932 q 853 929 828 932 q 865 928 857 929 q 874 925 872 928 q 893 926 883 925 q 911 928 903 928 q 949 932 931 932 q 965 928 957 932 q 983 924 974 924 l 990 925 l 994 925 q 1003 917 999 922 q 1008 910 1008 913 l 1106 471 q 1186 126 1150 308 q 1192 108 1186 118 q 1196 82 1193 99 q 1199 54 1199 65 q 1200 39 1200 49 q 1192 7 1200 19 q 1175 -1 1186 -1 l 1157 -1 q 1125 0 1136 -1 l 1089 0 l 1054 0 l 1026 0 q 1015 1 1015 0 l 928 1 l 928 4 q 914 7 922 7 q 913 6 914 7 q 911 4 913 6 q 908 1 911 1 l 904 1 l 893 1 q 865 4 886 4 q 800 7 824 7 q 783 57 792 19 q 764 140 774 94 q 758 171 761 163 q 682 165 729 165 l 639 165 l 599 165 l 589 121 q 560 7 571 29 q 546 4 554 7 q 541 2 543 3 q 539 1 539 1 l 533 1 q 521 4 525 1 q 514 7 518 7 l 451 4 l 429 4 l 408 4 q 394 1 403 1 l 389 1 l 261 1 l 249 1 q 186 0 233 0 l 150 0 q 118 -1 139 -1 l 101 -1 m 743 339 q 733 407 733 407 q 719 481 729 426 q 706 556 717 494 q 694 622 694 622 q 686 671 690 650 l 685 689 q 681 701 681 696 l 679 710 q 678 701 678 707 q 675 694 678 696 l 675 689 l 672 671 q 669 649 671 661 q 664 624 667 638 l 657 585 q 639 483 642 497 q 632 438 638 468 q 626 408 629 428 l 615 344 l 686 344 l 696 347 l 699 347 q 724 344 715 347 q 734 342 729 344 q 743 339 739 340 m 353 1013 q 342 1019 346 1013 q 339 1033 339 1025 l 339 1040 q 340 1047 339 1046 q 367 1082 353 1067 q 410 1149 400 1126 l 442 1189 q 468 1219 447 1199 q 496 1249 486 1236 l 500 1258 l 547 1286 l 646 1286 l 663 1286 l 674 1286 q 686 1283 678 1283 l 707 1283 l 740 1281 l 763 1267 l 857 1124 l 881 1092 q 914 1047 897 1065 l 915 1040 l 915 1033 q 900 1013 915 1013 l 875 1013 l 850 1013 l 822 1013 l 782 1013 l 761 1013 q 746 1025 753 1013 l 713 1054 q 628 1131 665 1093 q 583 1090 604 1111 q 528 1040 533 1046 q 493 1013 503 1013 l 475 1013 l 451 1013 l 447 1017 l 443 1013 l 410 1013 l 385 1013 l 353 1013 m 961 1201 l 933 1201 q 910 1222 924 1201 q 857 1324 883 1261 q 845 1346 851 1333 q 832 1371 839 1358 q 804 1426 817 1396 l 792 1451 q 778 1476 783 1464 q 774 1490 774 1485 q 783 1503 774 1499 q 799 1510 788 1507 q 819 1515 811 1513 l 826 1515 q 831 1514 826 1514 l 840 1517 l 929 1524 q 1018 1522 956 1522 l 1053 1511 l 1063 1503 q 1060 1401 1063 1460 q 1057 1343 1057 1360 q 1058 1314 1057 1324 q 1060 1243 1060 1292 q 1055 1213 1060 1224 q 1033 1201 1050 1201 l 1000 1201 l 996 1206 l 985 1201 l 961 1201 z "},"Ẩ":{"ha":1275,"x_min":75,"x_max":1200,"o":"m 101 -1 q 76 26 83 -1 q 75 40 75 31 q 81 82 75 54 q 85 110 83 100 q 89 126 88 121 q 171 471 131 322 l 268 910 q 272 918 268 913 q 282 925 276 924 l 289 925 q 293 924 289 924 q 331 928 310 924 q 368 932 351 932 q 425 928 399 932 q 453 926 438 928 q 485 925 468 925 q 497 928 490 925 l 522 928 l 554 928 l 588 929 q 611 931 597 931 q 622 932 622 931 l 644 932 l 692 932 l 750 932 q 853 929 828 932 q 865 928 857 929 q 874 925 872 928 q 893 926 883 925 q 911 928 903 928 q 949 932 931 932 q 965 928 957 932 q 983 924 974 924 l 990 925 l 994 925 q 1003 917 999 922 q 1008 910 1008 913 l 1106 471 q 1186 126 1150 308 q 1192 108 1186 118 q 1196 82 1193 99 q 1199 54 1199 65 q 1200 39 1200 49 q 1192 7 1200 19 q 1175 -1 1186 -1 l 1157 -1 q 1125 0 1136 -1 l 1089 0 l 1054 0 l 1026 0 q 1015 1 1015 0 l 928 1 l 928 4 q 914 7 922 7 q 913 6 914 7 q 911 4 913 6 q 908 1 911 1 l 904 1 l 893 1 q 865 4 886 4 q 800 7 824 7 q 783 57 792 19 q 764 140 774 94 q 758 171 761 163 q 682 165 729 165 l 639 165 l 599 165 l 589 121 q 560 7 571 29 q 546 4 554 7 q 541 2 543 3 q 539 1 539 1 l 533 1 q 521 4 525 1 q 514 7 518 7 l 451 4 l 429 4 l 408 4 q 394 1 403 1 l 389 1 l 261 1 l 249 1 q 186 0 233 0 l 150 0 q 118 -1 139 -1 l 101 -1 m 743 339 q 733 407 733 407 q 719 481 729 426 q 706 556 717 494 q 694 622 694 622 q 686 671 690 650 l 685 689 q 681 701 681 696 l 679 710 q 678 701 678 707 q 675 694 678 696 l 675 689 l 672 671 q 669 649 671 661 q 664 624 667 638 l 657 585 q 639 483 642 497 q 632 438 638 468 q 626 408 629 428 l 615 344 l 686 344 l 696 347 l 699 347 q 724 344 715 347 q 734 342 729 344 q 743 339 739 340 m 353 1013 q 342 1019 346 1013 q 339 1033 339 1025 l 339 1040 q 340 1047 339 1046 q 367 1082 353 1067 q 410 1149 400 1126 l 442 1189 q 468 1219 447 1199 q 496 1249 486 1236 l 500 1258 l 547 1286 l 646 1286 l 663 1286 l 674 1286 q 686 1283 678 1283 l 707 1283 l 740 1281 l 763 1267 l 857 1124 l 881 1092 q 914 1047 897 1065 l 915 1040 l 915 1033 q 900 1013 915 1013 l 875 1013 l 850 1013 l 822 1013 l 782 1013 l 761 1013 q 746 1025 753 1013 l 713 1054 q 628 1131 665 1093 q 583 1090 604 1111 q 528 1040 533 1046 q 493 1013 503 1013 l 475 1013 l 451 1013 l 447 1017 l 443 1013 l 410 1013 l 385 1013 l 353 1013 m 918 1161 q 896 1176 901 1161 q 892 1217 892 1188 q 904 1267 892 1246 q 954 1314 917 1288 q 983 1349 983 1335 q 925 1368 983 1368 q 863 1364 881 1368 q 840 1360 844 1360 q 833 1371 833 1360 q 838 1451 833 1410 q 840 1464 839 1458 q 842 1472 840 1469 q 847 1481 843 1478 q 856 1484 851 1483 q 861 1485 860 1485 q 986 1493 922 1493 q 1122 1468 1068 1493 q 1175 1389 1175 1443 q 1092 1269 1175 1318 q 1043 1235 1057 1249 q 1029 1204 1029 1222 l 1028 1174 q 1018 1161 1028 1161 l 1011 1161 l 975 1163 q 956 1162 968 1163 q 918 1161 943 1161 z "},"Ẫ":{"ha":1275,"x_min":75,"x_max":1200,"o":"m 101 -1 q 76 26 83 -1 q 75 40 75 31 q 81 82 75 54 q 85 110 83 100 q 89 126 88 121 q 171 471 131 322 l 268 910 q 272 918 268 913 q 282 925 276 924 l 289 925 q 293 924 289 924 q 331 928 310 924 q 368 932 351 932 q 425 928 399 932 q 453 926 438 928 q 485 925 468 925 q 497 928 490 925 l 522 928 l 554 928 l 588 929 q 611 931 597 931 q 622 932 622 931 l 644 932 l 692 932 l 750 932 q 853 929 828 932 q 865 928 857 929 q 874 925 872 928 q 893 926 883 925 q 911 928 903 928 q 949 932 931 932 q 965 928 957 932 q 983 924 974 924 l 990 925 l 994 925 q 1003 917 999 922 q 1008 910 1008 913 l 1106 471 q 1186 126 1150 308 q 1192 108 1186 118 q 1196 82 1193 99 q 1199 54 1199 65 q 1200 39 1200 49 q 1192 7 1200 19 q 1175 -1 1186 -1 l 1157 -1 q 1125 0 1136 -1 l 1089 0 l 1054 0 l 1026 0 q 1015 1 1015 0 l 928 1 l 928 4 q 914 7 922 7 q 913 6 914 7 q 911 4 913 6 q 908 1 911 1 l 904 1 l 893 1 q 865 4 886 4 q 800 7 824 7 q 783 57 792 19 q 764 140 774 94 q 758 171 761 163 q 682 165 729 165 l 639 165 l 599 165 l 589 121 q 560 7 571 29 q 546 4 554 7 q 541 2 543 3 q 539 1 539 1 l 533 1 q 521 4 525 1 q 514 7 518 7 l 451 4 l 429 4 l 408 4 q 394 1 403 1 l 389 1 l 261 1 l 249 1 q 186 0 233 0 l 150 0 q 118 -1 139 -1 l 101 -1 m 743 339 q 733 407 733 407 q 719 481 729 426 q 706 556 717 494 q 694 622 694 622 q 686 671 690 650 l 685 689 q 681 701 681 696 l 679 710 q 678 701 678 707 q 675 694 678 696 l 675 689 l 672 671 q 669 649 671 661 q 664 624 667 638 l 657 585 q 639 483 642 497 q 632 438 638 468 q 626 408 629 428 l 615 344 l 686 344 l 696 347 l 699 347 q 724 344 715 347 q 734 342 729 344 q 743 339 739 340 m 353 1013 q 342 1019 346 1013 q 339 1033 339 1025 l 339 1040 q 340 1047 339 1046 q 367 1082 353 1067 q 410 1149 400 1126 l 442 1189 q 468 1219 447 1199 q 496 1249 486 1236 l 500 1258 l 547 1286 l 646 1286 l 663 1286 l 674 1286 q 686 1283 678 1283 l 707 1283 l 740 1281 l 763 1267 l 857 1124 l 881 1092 q 914 1047 897 1065 l 915 1040 l 915 1033 q 900 1013 915 1013 l 875 1013 l 850 1013 l 822 1013 l 782 1013 l 761 1013 q 746 1025 753 1013 l 713 1054 q 628 1131 665 1093 q 583 1090 604 1111 q 528 1040 533 1046 q 493 1013 503 1013 l 475 1013 l 451 1013 l 447 1017 l 443 1013 l 410 1013 l 385 1013 l 353 1013 m 739 1317 q 657 1340 692 1317 q 644 1350 654 1343 q 628 1364 633 1357 q 579 1407 604 1394 q 553 1413 565 1413 q 536 1393 542 1413 q 532 1372 532 1383 q 531 1356 532 1367 q 526 1340 531 1344 q 522 1340 524 1339 q 442 1344 456 1340 q 425 1350 431 1347 q 418 1358 419 1353 q 413 1371 415 1361 q 410 1378 411 1374 q 408 1389 410 1382 q 415 1464 408 1418 q 456 1538 425 1511 q 568 1568 492 1568 q 596 1561 578 1568 q 619 1553 614 1554 q 668 1518 658 1540 q 676 1506 669 1513 q 688 1490 682 1500 q 700 1478 694 1481 q 717 1472 708 1472 q 740 1490 740 1472 q 732 1524 740 1506 l 718 1549 q 731 1556 718 1556 l 735 1556 l 865 1558 q 878 1544 874 1553 q 893 1479 892 1518 l 894 1449 q 885 1406 894 1422 q 825 1340 867 1368 q 781 1322 807 1329 q 739 1317 767 1317 z "},"Ȁ":{"ha":1275,"x_min":29,"x_max":1200,"o":"m 101 -1 q 76 26 83 -1 q 75 40 75 31 q 81 82 75 54 q 85 110 83 100 q 89 126 88 121 q 171 471 131 322 l 268 910 q 272 918 268 913 q 282 925 276 924 l 289 925 q 293 924 289 924 q 331 928 310 924 q 368 932 351 932 q 425 928 399 932 q 453 926 438 928 q 485 925 468 925 q 497 928 490 925 l 522 928 l 554 928 l 588 929 q 611 931 597 931 q 622 932 622 931 l 644 932 l 692 932 l 750 932 q 853 929 828 932 q 865 928 857 929 q 874 925 872 928 q 893 926 883 925 q 911 928 903 928 q 949 932 931 932 q 965 928 957 932 q 983 924 974 924 l 990 925 l 994 925 q 1003 917 999 922 q 1008 910 1008 913 l 1106 471 q 1186 126 1150 308 q 1192 108 1186 118 q 1196 82 1193 99 q 1199 54 1199 65 q 1200 39 1200 49 q 1192 7 1200 19 q 1175 -1 1186 -1 l 1157 -1 q 1125 0 1136 -1 l 1089 0 l 1054 0 l 1026 0 q 1015 1 1015 0 l 928 1 l 928 4 q 914 7 922 7 q 913 6 914 7 q 911 4 913 6 q 908 1 911 1 l 904 1 l 893 1 q 865 4 886 4 q 800 7 824 7 q 783 57 792 19 q 764 140 774 94 q 758 171 761 163 q 682 165 729 165 l 639 165 l 599 165 l 589 121 q 560 7 571 29 q 546 4 554 7 q 541 2 543 3 q 539 1 539 1 l 533 1 q 521 4 525 1 q 514 7 518 7 l 451 4 l 429 4 l 408 4 q 394 1 403 1 l 389 1 l 261 1 l 249 1 q 186 0 233 0 l 150 0 q 118 -1 139 -1 l 101 -1 m 743 339 q 733 407 733 407 q 719 481 729 426 q 706 556 717 494 q 694 622 694 622 q 686 671 690 650 l 685 689 q 681 701 681 696 l 679 710 q 678 701 678 707 q 675 694 678 696 l 675 689 l 672 671 q 669 649 671 661 q 664 624 667 638 l 657 585 q 639 483 642 497 q 632 438 638 468 q 626 408 629 428 l 615 344 l 686 344 l 696 347 l 699 347 q 724 344 715 347 q 734 342 729 344 q 743 339 739 340 m 346 1022 l 319 1022 q 297 1043 310 1022 q 243 1154 275 1079 l 218 1206 q 174 1293 213 1217 q 129 1378 156 1339 q 110 1411 118 1394 l 89 1446 q 78 1466 85 1454 q 67 1485 72 1478 q 33 1544 54 1501 q 29 1557 29 1553 q 39 1571 29 1565 q 76 1582 47 1575 l 81 1582 q 84 1581 82 1581 q 86 1581 86 1581 l 96 1585 l 156 1588 l 165 1589 q 169 1590 168 1589 q 172 1592 171 1592 l 186 1592 q 201 1589 197 1592 l 211 1593 l 288 1592 q 375 1589 313 1589 l 435 1579 l 447 1571 q 496 1356 474 1476 l 506 1282 l 517 1210 l 521 1163 q 528 1064 528 1107 q 523 1033 528 1044 q 503 1022 518 1022 l 464 1022 l 426 1022 l 386 1022 l 381 1026 l 371 1022 l 346 1022 m 801 1022 l 775 1022 q 756 1043 764 1022 q 721 1154 735 1104 q 706 1206 710 1194 q 687 1258 694 1232 q 676 1293 679 1285 q 649 1378 661 1351 q 635 1411 639 1393 q 618 1446 629 1421 q 610 1465 615 1454 q 601 1485 604 1476 q 590 1515 592 1511 q 583 1533 585 1526 q 579 1544 581 1540 q 578 1554 578 1549 q 590 1571 578 1565 q 629 1582 601 1575 l 635 1582 q 639 1581 635 1581 l 650 1585 l 711 1588 l 718 1589 q 724 1590 721 1589 q 728 1592 726 1592 l 742 1592 q 756 1589 753 1592 l 767 1593 l 840 1592 q 929 1589 867 1589 l 989 1579 l 997 1571 q 1010 1356 1004 1489 q 1006 1282 1006 1318 q 1004 1210 1006 1233 q 990 1064 1003 1150 q 957 1022 988 1022 l 919 1022 l 882 1022 l 843 1022 l 838 1026 l 826 1022 l 801 1022 z "},"Ä":{"ha":1275,"x_min":75,"x_max":1200,"o":"m 101 -1 q 76 26 83 -1 q 75 40 75 31 q 81 82 75 54 q 85 110 83 100 q 89 126 88 121 q 171 471 131 322 l 268 910 q 272 918 268 913 q 282 925 276 924 l 289 925 q 293 924 289 924 q 331 928 310 924 q 368 932 351 932 q 425 928 399 932 q 453 926 438 928 q 485 925 468 925 q 497 928 490 925 l 522 928 l 554 928 l 588 929 q 611 931 597 931 q 622 932 622 931 l 644 932 l 692 932 l 750 932 q 853 929 828 932 q 865 928 857 929 q 874 925 872 928 q 893 926 883 925 q 911 928 903 928 q 949 932 931 932 q 965 928 957 932 q 983 924 974 924 l 990 925 l 994 925 q 1003 917 999 922 q 1008 910 1008 913 l 1106 471 q 1186 126 1150 308 q 1192 108 1186 118 q 1196 82 1193 99 q 1199 54 1199 65 q 1200 39 1200 49 q 1192 7 1200 19 q 1175 -1 1186 -1 l 1157 -1 q 1125 0 1136 -1 l 1089 0 l 1054 0 l 1026 0 q 1015 1 1015 0 l 928 1 l 928 4 q 914 7 922 7 q 913 6 914 7 q 911 4 913 6 q 908 1 911 1 l 904 1 l 893 1 q 865 4 886 4 q 800 7 824 7 q 783 57 792 19 q 764 140 774 94 q 758 171 761 163 q 682 165 729 165 l 639 165 l 599 165 l 589 121 q 560 7 571 29 q 546 4 554 7 q 541 2 543 3 q 539 1 539 1 l 533 1 q 521 4 525 1 q 514 7 518 7 l 451 4 l 429 4 l 408 4 q 394 1 403 1 l 389 1 l 261 1 l 249 1 q 186 0 233 0 l 150 0 q 118 -1 139 -1 l 101 -1 m 743 339 q 733 407 733 407 q 719 481 729 426 q 706 556 717 494 q 694 622 694 622 q 686 671 690 650 l 685 689 q 681 701 681 696 l 679 710 q 678 701 678 707 q 675 694 678 696 l 675 689 l 672 671 q 669 649 671 661 q 664 624 667 638 l 657 585 q 639 483 642 497 q 632 438 638 468 q 626 408 629 428 l 615 344 l 686 344 l 696 347 l 699 347 q 724 344 715 347 q 734 342 729 344 q 743 339 739 340 m 274 1079 l 264 1124 l 264 1164 l 263 1192 l 261 1200 q 267 1218 261 1211 l 271 1261 l 271 1265 l 269 1272 q 285 1304 275 1289 q 310 1311 292 1311 l 454 1311 q 503 1315 489 1315 q 521 1314 517 1315 q 529 1313 525 1314 q 539 1311 533 1311 l 549 1311 q 553 1313 551 1311 q 558 1314 556 1314 l 563 1314 q 579 1279 579 1314 l 579 1251 q 576 1224 576 1240 q 577 1219 576 1222 q 579 1214 578 1217 l 579 1200 l 579 1183 l 579 1169 l 579 1140 q 581 1108 581 1129 q 575 1083 581 1094 q 558 1071 569 1072 l 282 1071 l 274 1079 m 706 1079 l 697 1124 l 697 1164 q 693 1200 697 1186 l 693 1207 q 692 1218 692 1210 q 691 1237 692 1224 q 690 1275 690 1250 q 691 1278 690 1276 q 690 1281 692 1279 l 690 1286 q 698 1297 693 1289 q 708 1307 703 1304 q 743 1311 724 1311 l 888 1311 q 935 1315 925 1315 q 954 1314 949 1315 q 961 1313 957 1314 q 972 1311 965 1311 l 982 1311 q 987 1313 985 1311 q 992 1314 989 1314 l 996 1314 q 1008 1305 1006 1314 q 1011 1279 1011 1296 l 1011 1261 l 1010 1224 q 1010 1219 1010 1222 q 1011 1214 1010 1217 l 1011 1200 l 1011 1183 l 1011 1169 l 1010 1154 l 1010 1140 q 1011 1126 1010 1129 q 1014 1108 1014 1115 q 992 1071 1014 1072 l 788 1071 l 706 1079 z "},"Ạ":{"ha":1275,"x_min":75,"x_max":1200,"o":"m 101 -1 q 76 26 83 -1 q 75 40 75 31 q 81 82 75 54 q 85 110 83 100 q 89 126 88 121 q 171 471 131 322 l 268 910 q 272 918 268 913 q 282 925 276 924 l 289 925 q 293 924 289 924 q 331 928 310 924 q 368 932 351 932 q 425 928 399 932 q 453 926 438 928 q 485 925 468 925 q 497 928 490 925 l 522 928 l 554 928 l 588 929 q 611 931 597 931 q 622 932 622 931 l 644 932 l 692 932 l 750 932 q 853 929 828 932 q 865 928 857 929 q 874 925 872 928 q 893 926 883 925 q 911 928 903 928 q 949 932 931 932 q 965 928 957 932 q 983 924 974 924 l 990 925 l 994 925 q 1003 917 999 922 q 1008 910 1008 913 l 1106 471 q 1186 126 1150 308 q 1192 108 1186 118 q 1196 82 1193 99 q 1199 54 1199 65 q 1200 39 1200 49 q 1192 7 1200 19 q 1175 -1 1186 -1 l 1157 -1 q 1125 0 1136 -1 l 1089 0 l 1054 0 l 1026 0 q 1015 1 1015 0 l 928 1 l 928 4 q 914 7 922 7 q 913 6 914 7 q 911 4 913 6 q 908 1 911 1 l 904 1 l 893 1 q 865 4 886 4 q 800 7 824 7 q 783 57 792 19 q 764 140 774 94 q 758 171 761 163 q 682 165 729 165 l 639 165 l 599 165 l 589 121 q 560 7 571 29 q 546 4 554 7 q 541 2 543 3 q 539 1 539 1 l 533 1 q 521 4 525 1 q 514 7 518 7 l 451 4 l 429 4 l 408 4 q 394 1 403 1 l 389 1 l 261 1 l 249 1 q 186 0 233 0 l 150 0 q 118 -1 139 -1 l 101 -1 m 743 339 q 733 407 733 407 q 719 481 729 426 q 706 556 717 494 q 694 622 694 622 q 686 671 690 650 l 685 689 q 681 701 681 696 l 679 710 q 678 701 678 707 q 675 694 678 696 l 675 689 l 672 671 q 669 649 671 661 q 664 624 667 638 l 657 585 q 639 483 642 497 q 632 438 638 468 q 626 408 629 428 l 615 344 l 686 344 l 696 347 l 699 347 q 724 344 715 347 q 734 342 729 344 q 743 339 739 340 m 617 -381 q 597 -379 611 -379 l 507 -369 l 500 -362 q 499 -312 499 -353 q 503 -226 499 -271 l 506 -186 l 506 -157 q 535 -140 507 -140 l 575 -140 q 614 -143 588 -143 l 639 -143 q 672 -140 650 -140 l 683 -140 l 694 -140 l 707 -140 q 715 -143 711 -143 q 729 -140 725 -143 l 743 -140 q 771 -153 771 -140 l 771 -157 q 769 -172 769 -164 l 769 -182 l 769 -199 l 769 -235 l 769 -342 q 767 -354 769 -349 q 754 -369 763 -368 q 740 -374 751 -374 l 736 -372 l 733 -372 l 733 -372 l 726 -374 l 700 -376 l 693 -379 l 685 -381 l 676 -379 q 672 -378 674 -379 q 669 -376 671 -376 q 665 -379 665 -376 l 658 -381 l 635 -381 l 617 -381 z "},"À":{"ha":1275,"x_min":75,"x_max":1200,"o":"m 101 -1 q 76 26 83 -1 q 75 40 75 31 q 81 82 75 54 q 85 110 83 100 q 89 126 88 121 q 171 471 131 322 l 268 910 q 272 918 268 913 q 282 925 276 924 l 289 925 q 293 924 289 924 q 331 928 310 924 q 368 932 351 932 q 425 928 399 932 q 453 926 438 928 q 485 925 468 925 q 497 928 490 925 l 522 928 l 554 928 l 588 929 q 611 931 597 931 q 622 932 622 931 l 644 932 l 692 932 l 750 932 q 853 929 828 932 q 865 928 857 929 q 874 925 872 928 q 893 926 883 925 q 911 928 903 928 q 949 932 931 932 q 965 928 957 932 q 983 924 974 924 l 990 925 l 994 925 q 1003 917 999 922 q 1008 910 1008 913 l 1106 471 q 1186 126 1150 308 q 1192 108 1186 118 q 1196 82 1193 99 q 1199 54 1199 65 q 1200 39 1200 49 q 1192 7 1200 19 q 1175 -1 1186 -1 l 1157 -1 q 1125 0 1136 -1 l 1089 0 l 1054 0 l 1026 0 q 1015 1 1015 0 l 928 1 l 928 4 q 914 7 922 7 q 913 6 914 7 q 911 4 913 6 q 908 1 911 1 l 904 1 l 893 1 q 865 4 886 4 q 800 7 824 7 q 783 57 792 19 q 764 140 774 94 q 758 171 761 163 q 682 165 729 165 l 639 165 l 599 165 l 589 121 q 560 7 571 29 q 546 4 554 7 q 541 2 543 3 q 539 1 539 1 l 533 1 q 521 4 525 1 q 514 7 518 7 l 451 4 l 429 4 l 408 4 q 394 1 403 1 l 389 1 l 261 1 l 249 1 q 186 0 233 0 l 150 0 q 118 -1 139 -1 l 101 -1 m 743 339 q 733 407 733 407 q 719 481 729 426 q 706 556 717 494 q 694 622 694 622 q 686 671 690 650 l 685 689 q 681 701 681 696 l 679 710 q 678 701 678 707 q 675 694 678 696 l 675 689 l 672 671 q 669 649 671 661 q 664 624 667 638 l 657 585 q 639 483 642 497 q 632 438 638 468 q 626 408 629 428 l 615 344 l 686 344 l 696 347 l 699 347 q 724 344 715 347 q 734 342 729 344 q 743 339 739 340 m 565 1022 l 538 1022 q 514 1043 528 1022 q 461 1144 488 1082 q 449 1167 456 1154 q 436 1192 443 1179 q 403 1260 424 1211 l 392 1286 l 381 1313 q 369 1339 378 1318 q 347 1378 360 1360 l 329 1411 q 308 1446 322 1421 q 267 1518 272 1506 q 253 1544 254 1539 q 249 1558 249 1553 q 257 1571 249 1567 q 294 1582 264 1575 l 301 1582 q 304 1581 301 1581 l 315 1585 l 374 1588 l 382 1589 q 388 1590 385 1589 q 392 1592 390 1592 l 406 1592 q 419 1589 415 1592 l 428 1593 l 504 1592 q 593 1589 531 1589 l 653 1579 l 664 1571 q 714 1356 694 1460 q 722 1282 715 1321 q 743 1135 740 1194 q 746 1064 746 1113 q 741 1033 746 1044 q 719 1022 736 1022 l 683 1022 l 644 1022 l 604 1022 l 600 1026 l 589 1022 l 565 1022 z "},"Ả":{"ha":1275,"x_min":75,"x_max":1200,"o":"m 101 -1 q 76 26 83 -1 q 75 40 75 31 q 81 82 75 54 q 85 110 83 100 q 89 126 88 121 q 171 471 131 322 l 268 910 q 272 918 268 913 q 282 925 276 924 l 289 925 q 293 924 289 924 q 331 928 310 924 q 368 932 351 932 q 425 928 399 932 q 453 926 438 928 q 485 925 468 925 q 497 928 490 925 l 522 928 l 554 928 l 588 929 q 611 931 597 931 q 622 932 622 931 l 644 932 l 692 932 l 750 932 q 853 929 828 932 q 865 928 857 929 q 874 925 872 928 q 893 926 883 925 q 911 928 903 928 q 949 932 931 932 q 965 928 957 932 q 983 924 974 924 l 990 925 l 994 925 q 1003 917 999 922 q 1008 910 1008 913 l 1106 471 q 1186 126 1150 308 q 1192 108 1186 118 q 1196 82 1193 99 q 1199 54 1199 65 q 1200 39 1200 49 q 1192 7 1200 19 q 1175 -1 1186 -1 l 1157 -1 q 1125 0 1136 -1 l 1089 0 l 1054 0 l 1026 0 q 1015 1 1015 0 l 928 1 l 928 4 q 914 7 922 7 q 913 6 914 7 q 911 4 913 6 q 908 1 911 1 l 904 1 l 893 1 q 865 4 886 4 q 800 7 824 7 q 783 57 792 19 q 764 140 774 94 q 758 171 761 163 q 682 165 729 165 l 639 165 l 599 165 l 589 121 q 560 7 571 29 q 546 4 554 7 q 541 2 543 3 q 539 1 539 1 l 533 1 q 521 4 525 1 q 514 7 518 7 l 451 4 l 429 4 l 408 4 q 394 1 403 1 l 389 1 l 261 1 l 249 1 q 186 0 233 0 l 150 0 q 118 -1 139 -1 l 101 -1 m 743 339 q 733 407 733 407 q 719 481 729 426 q 706 556 717 494 q 694 622 694 622 q 686 671 690 650 l 685 689 q 681 701 681 696 l 679 710 q 678 701 678 707 q 675 694 678 696 l 675 689 l 672 671 q 669 649 671 661 q 664 624 667 638 l 657 585 q 639 483 642 497 q 632 438 638 468 q 626 408 629 428 l 615 344 l 686 344 l 696 347 l 699 347 q 724 344 715 347 q 734 342 729 344 q 743 339 739 340 m 594 1067 q 572 1082 578 1067 q 568 1122 568 1093 q 581 1172 568 1151 q 631 1219 593 1193 q 660 1254 660 1240 q 601 1274 660 1274 q 539 1269 557 1274 q 517 1265 521 1265 q 510 1276 510 1265 q 514 1357 510 1315 q 516 1369 515 1364 q 518 1378 517 1375 q 524 1386 519 1383 q 532 1390 528 1389 q 538 1390 536 1390 q 663 1399 599 1399 q 798 1374 744 1399 q 851 1294 851 1349 q 768 1175 851 1224 q 719 1141 733 1154 q 706 1110 706 1128 l 704 1079 q 694 1067 704 1067 l 688 1067 l 651 1068 q 632 1067 644 1068 q 594 1067 619 1067 z "},"Ȃ":{"ha":1275,"x_min":75,"x_max":1200,"o":"m 101 -1 q 76 26 83 -1 q 75 40 75 31 q 81 82 75 54 q 85 110 83 100 q 89 126 88 121 q 171 471 131 322 l 268 910 q 272 918 268 913 q 282 925 276 924 l 289 925 q 293 924 289 924 q 331 928 310 924 q 368 932 351 932 q 425 928 399 932 q 453 926 438 928 q 485 925 468 925 q 497 928 490 925 l 522 928 l 554 928 l 588 929 q 611 931 597 931 q 622 932 622 931 l 644 932 l 692 932 l 750 932 q 853 929 828 932 q 865 928 857 929 q 874 925 872 928 q 893 926 883 925 q 911 928 903 928 q 949 932 931 932 q 965 928 957 932 q 983 924 974 924 l 990 925 l 994 925 q 1003 917 999 922 q 1008 910 1008 913 l 1106 471 q 1186 126 1150 308 q 1192 108 1186 118 q 1196 82 1193 99 q 1199 54 1199 65 q 1200 39 1200 49 q 1192 7 1200 19 q 1175 -1 1186 -1 l 1157 -1 q 1125 0 1136 -1 l 1089 0 l 1054 0 l 1026 0 q 1015 1 1015 0 l 928 1 l 928 4 q 914 7 922 7 q 913 6 914 7 q 911 4 913 6 q 908 1 911 1 l 904 1 l 893 1 q 865 4 886 4 q 800 7 824 7 q 783 57 792 19 q 764 140 774 94 q 758 171 761 163 q 682 165 729 165 l 639 165 l 599 165 l 589 121 q 560 7 571 29 q 546 4 554 7 q 541 2 543 3 q 539 1 539 1 l 533 1 q 521 4 525 1 q 514 7 518 7 l 451 4 l 429 4 l 408 4 q 394 1 403 1 l 389 1 l 261 1 l 249 1 q 186 0 233 0 l 150 0 q 118 -1 139 -1 l 101 -1 m 743 339 q 733 407 733 407 q 719 481 729 426 q 706 556 717 494 q 694 622 694 622 q 686 671 690 650 l 685 689 q 681 701 681 696 l 679 710 q 678 701 678 707 q 675 694 678 696 l 675 689 l 672 671 q 669 649 671 661 q 664 624 667 638 l 657 585 q 639 483 642 497 q 632 438 638 468 q 626 408 629 428 l 615 344 l 686 344 l 696 347 l 699 347 q 724 344 715 347 q 734 342 729 344 q 743 339 739 340 m 311 1017 q 299 1117 299 1054 q 389 1310 299 1206 q 517 1386 438 1364 q 658 1401 565 1401 q 779 1382 721 1401 q 885 1328 838 1363 q 959 1243 932 1292 q 986 1140 986 1194 q 957 1022 986 1085 l 740 1024 q 753 1119 753 1076 l 753 1149 q 751 1151 753 1149 q 747 1157 749 1153 q 692 1196 739 1176 q 628 1203 667 1203 q 556 1171 588 1203 q 525 1094 525 1138 q 538 1011 525 1054 l 311 1017 z "},"Ā":{"ha":1275,"x_min":75,"x_max":1200,"o":"m 101 -1 q 76 26 83 -1 q 75 40 75 31 q 81 82 75 54 q 85 110 83 100 q 89 126 88 121 q 171 471 131 322 l 268 910 q 272 918 268 913 q 282 925 276 924 l 289 925 q 293 924 289 924 q 331 928 310 924 q 368 932 351 932 q 425 928 399 932 q 453 926 438 928 q 485 925 468 925 q 497 928 490 925 l 522 928 l 554 928 l 588 929 q 611 931 597 931 q 622 932 622 931 l 644 932 l 692 932 l 750 932 q 853 929 828 932 q 865 928 857 929 q 874 925 872 928 q 893 926 883 925 q 911 928 903 928 q 949 932 931 932 q 965 928 957 932 q 983 924 974 924 l 990 925 l 994 925 q 1003 917 999 922 q 1008 910 1008 913 l 1106 471 q 1186 126 1150 308 q 1192 108 1186 118 q 1196 82 1193 99 q 1199 54 1199 65 q 1200 39 1200 49 q 1192 7 1200 19 q 1175 -1 1186 -1 l 1157 -1 q 1125 0 1136 -1 l 1089 0 l 1054 0 l 1026 0 q 1015 1 1015 0 l 928 1 l 928 4 q 914 7 922 7 q 913 6 914 7 q 911 4 913 6 q 908 1 911 1 l 904 1 l 893 1 q 865 4 886 4 q 800 7 824 7 q 783 57 792 19 q 764 140 774 94 q 758 171 761 163 q 682 165 729 165 l 639 165 l 599 165 l 589 121 q 560 7 571 29 q 546 4 554 7 q 541 2 543 3 q 539 1 539 1 l 533 1 q 521 4 525 1 q 514 7 518 7 l 451 4 l 429 4 l 408 4 q 394 1 403 1 l 389 1 l 261 1 l 249 1 q 186 0 233 0 l 150 0 q 118 -1 139 -1 l 101 -1 m 743 339 q 733 407 733 407 q 719 481 729 426 q 706 556 717 494 q 694 622 694 622 q 686 671 690 650 l 685 689 q 681 701 681 696 l 679 710 q 678 701 678 707 q 675 694 678 696 l 675 689 l 672 671 q 669 649 671 661 q 664 624 667 638 l 657 585 q 639 483 642 497 q 632 438 638 468 q 626 408 629 428 l 615 344 l 686 344 l 696 347 l 699 347 q 724 344 715 347 q 734 342 729 344 q 743 339 739 340 m 847 1064 q 811 1065 833 1065 l 781 1067 l 746 1067 l 732 1068 l 704 1068 q 688 1067 699 1068 q 669 1068 676 1067 q 635 1071 656 1071 l 604 1071 l 590 1071 l 451 1071 l 413 1071 q 376 1074 390 1071 q 354 1085 363 1076 q 344 1106 344 1092 l 344 1156 l 344 1197 l 344 1238 q 343 1286 343 1251 q 354 1308 343 1300 q 363 1315 356 1310 q 378 1321 369 1321 l 531 1321 l 561 1321 q 635 1318 579 1321 l 690 1317 q 815 1314 788 1314 l 847 1314 q 899 1307 875 1314 q 924 1279 924 1300 q 925 1245 924 1258 q 926 1224 926 1232 l 926 1210 q 928 1172 926 1189 l 928 1140 q 922 1092 928 1110 q 894 1064 918 1064 l 847 1064 z "},"Ą":{"ha":1275,"x_min":75,"x_max":1228,"o":"m 1218 -199 q 1228 -212 1228 -203 l 1228 -219 l 1204 -333 q 1192 -345 1203 -339 q 1168 -358 1182 -351 q 1103 -376 1126 -374 q 1086 -379 1093 -379 q 1075 -381 1079 -379 l 1061 -383 q 829 -351 910 -383 q 731 -271 753 -324 q 724 -226 724 -251 q 757 -117 724 -164 q 839 -46 781 -85 q 865 -27 849 -36 q 888 -14 881 -18 l 919 7 l 914 7 q 913 6 914 7 q 911 4 913 6 q 908 1 911 1 l 904 1 l 893 1 q 865 4 886 4 q 800 7 824 7 q 783 57 792 19 q 764 140 774 94 q 758 171 761 163 q 682 165 729 165 l 639 165 l 599 165 l 589 121 q 560 7 571 29 q 546 4 554 7 q 541 2 543 3 q 539 1 539 1 l 533 1 q 521 4 525 1 q 514 7 518 7 l 451 4 l 429 4 l 408 4 q 394 1 403 1 l 389 1 l 261 1 l 249 1 q 186 0 233 0 l 150 0 q 118 -1 139 -1 l 101 -1 q 76 26 83 -1 q 75 40 75 31 q 81 82 75 54 q 85 110 83 100 q 89 126 88 121 q 171 471 131 322 l 268 910 q 272 918 268 913 q 282 925 276 924 l 289 925 q 293 924 289 924 q 331 928 310 924 q 368 932 351 932 q 425 928 399 932 q 453 926 438 928 q 485 925 468 925 q 497 928 490 925 l 522 928 l 554 928 l 588 929 q 611 931 597 931 q 622 932 622 931 l 644 932 l 692 932 l 750 932 q 853 929 828 932 q 865 928 857 929 q 874 925 872 928 q 893 926 883 925 q 911 928 903 928 q 949 932 931 932 q 965 928 957 932 q 983 924 974 924 l 990 925 l 994 925 q 1003 917 999 922 q 1008 910 1008 913 l 1106 471 q 1186 126 1150 308 q 1192 108 1186 118 q 1196 82 1193 99 q 1199 54 1199 65 q 1200 39 1200 49 q 1192 7 1200 19 q 1175 -1 1186 -1 l 1157 -1 l 1133 -1 l 1090 -46 q 1058 -81 1071 -62 q 1026 -125 1040 -101 q 1008 -175 1008 -158 q 1017 -206 1008 -196 q 1040 -219 1025 -215 q 1052 -224 1043 -221 q 1069 -224 1061 -226 q 1097 -222 1079 -222 q 1218 -199 1154 -222 m 724 344 q 734 342 729 344 q 743 339 739 340 q 733 407 733 407 q 719 481 729 426 q 706 556 717 494 q 694 622 694 622 q 686 671 690 650 l 685 689 q 681 701 681 696 l 679 710 q 678 701 678 707 q 675 694 678 696 l 675 689 l 672 671 q 669 649 671 661 q 664 624 667 638 l 657 585 q 639 483 642 497 q 632 438 638 468 q 626 408 629 428 l 615 344 l 686 344 l 696 347 l 699 347 q 724 344 715 347 z "},"Å":{"ha":1275,"x_min":75,"x_max":1200,"o":"m 101 -1 q 76 26 83 -1 q 75 40 75 31 q 81 82 75 54 q 85 110 83 100 q 89 126 88 121 q 171 471 131 322 l 268 910 q 272 918 268 913 q 282 925 276 924 l 289 925 q 293 924 289 924 q 331 928 310 924 q 368 932 351 932 q 425 928 399 932 q 453 926 438 928 q 485 925 468 925 q 497 928 490 925 l 522 928 l 554 928 l 588 929 q 611 931 597 931 q 622 932 622 931 l 644 932 l 692 932 l 750 932 q 853 929 828 932 q 865 928 857 929 q 874 925 872 928 q 893 926 883 925 q 911 928 903 928 q 949 932 931 932 q 965 928 957 932 q 983 924 974 924 l 990 925 l 994 925 q 1003 917 999 922 q 1008 910 1008 913 l 1106 471 q 1186 126 1150 308 q 1192 108 1186 118 q 1196 82 1193 99 q 1199 54 1199 65 q 1200 39 1200 49 q 1192 7 1200 19 q 1175 -1 1186 -1 l 1157 -1 q 1125 0 1136 -1 l 1089 0 l 1054 0 l 1026 0 q 1015 1 1015 0 l 928 1 l 928 4 q 914 7 922 7 q 913 6 914 7 q 911 4 913 6 q 908 1 911 1 l 904 1 l 893 1 q 865 4 886 4 q 800 7 824 7 q 783 57 792 19 q 764 140 774 94 q 758 171 761 163 q 682 165 729 165 l 639 165 l 599 165 l 589 121 q 560 7 571 29 q 546 4 554 7 q 541 2 543 3 q 539 1 539 1 l 533 1 q 521 4 525 1 q 514 7 518 7 l 451 4 l 429 4 l 408 4 q 394 1 403 1 l 389 1 l 261 1 l 249 1 q 186 0 233 0 l 150 0 q 118 -1 139 -1 l 101 -1 m 743 339 q 733 407 733 407 q 719 481 729 426 q 706 556 717 494 q 694 622 694 622 q 686 671 690 650 l 685 689 q 681 701 681 696 l 679 710 q 678 701 678 707 q 675 694 678 696 l 675 689 l 672 671 q 669 649 671 661 q 664 624 667 638 l 657 585 q 639 483 642 497 q 632 438 638 468 q 626 408 629 428 l 615 344 l 686 344 l 696 347 l 699 347 q 724 344 715 347 q 734 342 729 344 q 743 339 739 340 m 614 1013 q 435 1054 515 1010 q 388 1097 407 1071 q 351 1161 368 1124 q 326 1289 326 1221 q 344 1395 326 1342 q 392 1492 361 1449 q 471 1563 425 1538 q 569 1589 517 1589 q 603 1586 593 1589 q 607 1588 603 1588 l 610 1588 q 725 1585 694 1588 q 806 1557 771 1576 q 913 1449 885 1506 q 947 1297 947 1383 q 933 1198 947 1247 q 889 1108 918 1149 l 882 1106 q 760 1025 843 1046 q 694 1015 728 1017 q 653 1014 660 1014 q 614 1013 626 1014 m 622 1190 q 713 1224 679 1190 q 753 1283 744 1251 q 760 1328 760 1304 l 760 1335 q 746 1376 760 1353 q 683 1418 721 1410 q 622 1425 653 1425 q 561 1399 586 1425 q 526 1282 526 1361 l 526 1275 l 526 1265 q 529 1261 528 1264 q 531 1254 531 1258 q 572 1203 535 1228 q 622 1190 597 1190 z "},"Ǻ":{"ha":1275,"x_min":75,"x_max":1238,"o":"m 967 1254 q 953 1261 957 1254 q 949 1282 950 1268 q 947 1311 947 1292 l 949 1372 q 950 1394 949 1382 q 951 1417 951 1406 l 951 1463 q 972 1596 961 1544 l 978 1603 l 1015 1608 l 1071 1610 l 1118 1611 l 1124 1608 q 1132 1610 1125 1610 l 1143 1610 l 1146 1608 l 1151 1608 l 1189 1606 l 1194 1603 q 1199 1604 1199 1603 l 1201 1604 q 1215 1601 1207 1603 q 1226 1597 1222 1600 q 1231 1581 1238 1593 q 1213 1543 1222 1567 q 1201 1519 1211 1539 q 1197 1508 1199 1514 q 1192 1497 1194 1503 q 1185 1487 1188 1492 q 1179 1476 1183 1482 q 1165 1448 1171 1464 q 1157 1424 1160 1432 q 1133 1369 1139 1382 q 1128 1356 1132 1365 q 1122 1338 1124 1347 q 1094 1268 1114 1314 q 1081 1256 1085 1256 l 1064 1256 q 1047 1254 1053 1256 l 1042 1257 l 1039 1256 l 1014 1256 q 1003 1256 1010 1256 q 990 1256 997 1257 q 967 1254 983 1254 m 611 990 q 467 1028 539 990 q 393 1122 424 1051 q 372 1236 372 1171 q 387 1331 372 1283 q 429 1417 401 1378 q 588 1504 492 1504 q 617 1501 608 1504 q 622 1504 617 1504 q 726 1499 671 1504 q 797 1476 764 1493 q 893 1379 869 1425 q 922 1243 922 1326 q 910 1154 922 1199 q 872 1075 897 1110 l 865 1074 q 757 1001 829 1021 q 694 992 724 993 q 611 990 665 990 m 633 1150 q 714 1178 689 1150 q 750 1233 742 1201 q 757 1271 757 1254 l 757 1276 q 743 1314 757 1290 q 688 1351 724 1343 q 633 1358 663 1358 q 581 1333 601 1358 q 549 1231 549 1304 l 549 1224 l 549 1215 q 551 1213 550 1215 q 553 1206 553 1210 q 563 1182 553 1194 q 589 1160 572 1169 q 633 1150 607 1150 m 101 -1 q 76 26 83 -1 q 75 40 75 31 q 81 82 75 54 q 85 110 83 100 q 89 126 88 121 q 171 471 131 322 l 268 910 q 272 918 268 913 q 282 925 276 924 l 289 925 q 293 924 289 924 q 331 928 310 924 q 368 932 351 932 q 425 928 399 932 q 453 926 438 928 q 485 925 468 925 q 497 928 490 925 l 522 928 l 554 928 l 588 929 q 611 931 597 931 q 622 932 622 931 l 644 932 l 692 932 l 750 932 q 853 929 828 932 q 865 928 857 929 q 874 925 872 928 q 893 926 883 925 q 911 928 903 928 q 949 932 931 932 q 965 928 957 932 q 983 924 974 924 l 990 925 l 994 925 q 1003 917 999 922 q 1008 910 1008 913 l 1106 471 q 1186 126 1150 308 q 1192 108 1186 118 q 1196 82 1193 99 q 1199 54 1199 65 q 1200 39 1200 49 q 1192 7 1200 19 q 1175 -1 1186 -1 l 1157 -1 q 1125 0 1136 -1 l 1089 0 l 1054 0 l 1026 0 q 1015 1 1015 0 l 928 1 l 928 4 q 914 7 922 7 q 913 6 914 7 q 911 4 913 6 q 908 1 911 1 l 904 1 l 893 1 q 865 4 886 4 q 800 7 824 7 q 783 57 792 19 q 764 140 774 94 q 758 171 761 163 q 682 165 729 165 l 639 165 l 599 165 l 589 121 q 560 7 571 29 q 546 4 554 7 q 541 2 543 3 q 539 1 539 1 l 533 1 q 521 4 525 1 q 514 7 518 7 l 451 4 l 429 4 l 408 4 q 394 1 403 1 l 389 1 l 261 1 l 249 1 q 186 0 233 0 l 150 0 q 118 -1 139 -1 l 101 -1 m 743 339 q 733 407 733 407 q 719 481 729 426 q 706 556 717 494 q 694 622 694 622 q 686 671 690 650 l 685 689 q 681 701 681 696 l 679 710 q 678 701 678 707 q 675 694 678 696 l 675 689 l 672 671 q 669 649 671 661 q 664 624 667 638 l 657 585 q 639 483 642 497 q 632 438 638 468 q 626 408 629 428 l 615 344 l 686 344 l 696 347 l 699 347 q 724 344 715 347 q 734 342 729 344 q 743 339 739 340 z "},"Ã":{"ha":1275,"x_min":75,"x_max":1200,"o":"m 101 -1 q 76 26 83 -1 q 75 40 75 31 q 81 82 75 54 q 85 110 83 100 q 89 126 88 121 q 171 471 131 322 l 268 910 q 272 918 268 913 q 282 925 276 924 l 289 925 q 293 924 289 924 q 331 928 310 924 q 368 932 351 932 q 425 928 399 932 q 453 926 438 928 q 485 925 468 925 q 497 928 490 925 l 522 928 l 554 928 l 588 929 q 611 931 597 931 q 622 932 622 931 l 644 932 l 692 932 l 750 932 q 853 929 828 932 q 865 928 857 929 q 874 925 872 928 q 893 926 883 925 q 911 928 903 928 q 949 932 931 932 q 965 928 957 932 q 983 924 974 924 l 990 925 l 994 925 q 1003 917 999 922 q 1008 910 1008 913 l 1106 471 q 1186 126 1150 308 q 1192 108 1186 118 q 1196 82 1193 99 q 1199 54 1199 65 q 1200 39 1200 49 q 1192 7 1200 19 q 1175 -1 1186 -1 l 1157 -1 q 1125 0 1136 -1 l 1089 0 l 1054 0 l 1026 0 q 1015 1 1015 0 l 928 1 l 928 4 q 914 7 922 7 q 913 6 914 7 q 911 4 913 6 q 908 1 911 1 l 904 1 l 893 1 q 865 4 886 4 q 800 7 824 7 q 783 57 792 19 q 764 140 774 94 q 758 171 761 163 q 682 165 729 165 l 639 165 l 599 165 l 589 121 q 560 7 571 29 q 546 4 554 7 q 541 2 543 3 q 539 1 539 1 l 533 1 q 521 4 525 1 q 514 7 518 7 l 451 4 l 429 4 l 408 4 q 394 1 403 1 l 389 1 l 261 1 l 249 1 q 186 0 233 0 l 150 0 q 118 -1 139 -1 l 101 -1 m 743 339 q 733 407 733 407 q 719 481 729 426 q 706 556 717 494 q 694 622 694 622 q 686 671 690 650 l 685 689 q 681 701 681 696 l 679 710 q 678 701 678 707 q 675 694 678 696 l 675 689 l 672 671 q 669 649 671 661 q 664 624 667 638 l 657 585 q 639 483 642 497 q 632 438 638 468 q 626 408 629 428 l 615 344 l 686 344 l 696 347 l 699 347 q 724 344 715 347 q 734 342 729 344 q 743 339 739 340 m 781 994 q 649 1033 699 994 q 601 1072 621 1053 q 573 1101 597 1076 q 524 1140 549 1125 q 482 1150 506 1150 q 451 1117 461 1150 q 447 1086 447 1103 q 438 1036 439 1040 q 429 1033 435 1029 q 379 1035 411 1035 q 301 1040 321 1038 q 274 1048 283 1043 q 261 1061 265 1053 q 258 1070 260 1065 q 254 1082 256 1075 q 247 1113 254 1081 q 260 1233 247 1183 q 325 1350 275 1311 q 506 1401 390 1401 q 544 1394 521 1401 q 588 1376 567 1388 q 664 1321 644 1349 q 672 1310 668 1315 q 679 1300 676 1304 q 718 1256 700 1267 q 743 1247 732 1247 q 782 1281 782 1247 q 769 1328 782 1300 q 746 1369 765 1338 q 767 1381 746 1381 l 774 1381 l 985 1383 q 1003 1363 997 1378 q 1028 1258 1022 1322 q 1031 1214 1031 1228 q 1014 1138 1031 1171 q 919 1036 988 1079 q 846 1004 889 1015 q 781 994 819 994 z "},"Æ":{"ha":1681,"x_min":68,"x_max":1608,"o":"m 88 -1 q 71 26 68 -1 q 88 82 74 43 q 97 108 90 89 q 106 126 103 117 q 264 471 181 297 l 474 910 q 480 918 474 913 q 492 925 486 924 l 497 925 q 504 924 497 924 q 540 928 519 924 q 581 932 560 932 q 636 928 608 932 q 665 926 650 928 q 694 925 679 925 q 706 928 699 925 l 726 928 l 754 928 l 779 929 q 799 931 786 931 q 806 932 806 931 l 833 932 l 886 932 q 1011 931 976 932 l 1056 932 q 1144 935 1086 932 q 1325 938 1264 938 q 1410 936 1381 938 q 1560 929 1492 936 q 1575 914 1568 929 q 1590 813 1586 876 q 1594 783 1592 800 q 1599 754 1597 765 l 1599 729 q 1590 717 1597 715 l 1581 717 l 1449 717 q 1313 715 1403 715 q 1307 710 1310 715 q 1303 699 1304 706 q 1289 615 1292 664 q 1286 581 1286 599 q 1290 558 1286 563 q 1307 553 1294 553 l 1432 553 q 1554 546 1485 553 l 1574 546 q 1594 532 1589 540 l 1601 514 l 1608 390 l 1608 386 q 1557 358 1608 363 q 1446 351 1526 351 q 1353 353 1375 351 q 1303 351 1314 353 q 1285 337 1289 347 q 1282 296 1282 326 q 1278 247 1282 263 q 1276 199 1276 233 l 1411 199 l 1546 199 l 1549 189 q 1560 126 1556 165 l 1564 96 l 1568 57 l 1569 36 q 1542 7 1569 7 q 1457 4 1510 7 q 1372 1 1431 1 l 1268 1 q 1158 0 1231 0 l 1150 -1 l 1129 -1 q 1099 0 1110 -1 l 1025 0 l 932 0 q 914 1 922 0 l 903 1 l 903 4 l 888 4 q 885 3 886 4 q 883 1 885 1 l 879 1 l 868 1 q 840 4 860 4 q 775 7 799 7 q 769 67 769 22 q 771 171 769 131 q 700 165 735 164 l 624 165 q 576 58 593 93 q 547 7 560 22 l 535 4 q 525 1 529 1 l 521 1 q 511 4 513 1 l 504 7 l 442 4 l 417 4 l 397 4 q 382 1 390 1 l 376 1 l 249 1 l 236 1 q 174 0 222 0 l 138 0 q 108 -1 126 -1 l 88 -1 m 803 481 q 806 556 803 508 l 807 583 q 810 622 810 611 l 811 671 l 813 689 l 813 694 l 813 701 l 813 710 q 810 702 811 706 q 807 694 810 699 l 804 689 q 803 683 804 688 q 799 671 801 678 q 790 647 793 658 q 782 624 786 635 q 758 560 763 569 q 731 483 750 533 q 718 449 726 471 q 706 408 710 426 q 681 344 703 401 l 738 344 q 793 339 779 344 l 803 481 z "},"Ǽ":{"ha":1681,"x_min":71,"x_max":1608,"o":"m 88 -1 q 71 26 68 -1 q 88 82 74 43 q 97 108 90 89 q 106 126 103 117 q 264 471 181 297 l 474 910 q 480 918 474 913 q 492 925 486 924 l 497 925 q 504 924 497 924 q 540 928 519 924 q 581 932 560 932 q 636 928 608 932 q 665 926 650 928 q 694 925 679 925 q 706 928 699 925 l 726 928 l 754 928 l 779 929 q 799 931 786 931 q 806 932 806 931 l 833 932 l 886 932 q 1011 931 976 932 l 1056 932 q 1144 935 1086 932 q 1325 938 1264 938 q 1410 936 1381 938 q 1560 929 1492 936 q 1575 914 1568 929 q 1590 813 1586 876 q 1594 783 1592 800 q 1599 754 1597 765 l 1599 729 q 1590 717 1597 715 l 1581 717 l 1449 717 q 1313 715 1403 715 q 1307 710 1310 715 q 1303 699 1304 706 q 1289 615 1292 664 q 1286 581 1286 599 q 1290 558 1286 563 q 1307 553 1294 553 l 1432 553 q 1554 546 1485 553 l 1574 546 q 1594 532 1589 540 l 1601 514 l 1608 390 l 1608 386 q 1557 358 1608 363 q 1446 351 1526 351 q 1353 353 1375 351 q 1303 351 1314 353 q 1285 337 1289 347 q 1282 296 1282 326 q 1278 247 1282 263 q 1276 199 1276 233 l 1411 199 l 1546 199 l 1549 189 q 1560 126 1556 165 l 1564 96 l 1568 57 l 1569 36 q 1542 7 1569 7 q 1457 4 1510 7 q 1372 1 1431 1 l 1268 1 q 1158 0 1231 0 l 1150 -1 l 1129 -1 q 1099 0 1110 -1 l 1025 0 l 932 0 q 914 1 922 0 l 903 1 l 903 4 l 888 4 q 885 3 886 4 q 883 1 885 1 l 879 1 l 868 1 q 840 4 860 4 q 775 7 799 7 q 769 67 769 22 q 771 171 769 131 q 700 165 735 164 l 624 165 q 576 58 593 93 q 547 7 560 22 l 535 4 q 525 1 529 1 l 521 1 q 511 4 513 1 l 504 7 l 442 4 l 417 4 l 397 4 q 382 1 390 1 l 376 1 l 249 1 l 236 1 q 174 0 222 0 l 138 0 q 108 -1 126 -1 l 88 -1 m 803 481 q 806 556 803 508 l 807 583 q 810 622 810 611 l 811 671 l 813 689 l 813 694 l 813 701 l 813 710 q 810 702 811 706 q 807 694 810 699 l 804 689 q 803 683 804 688 q 799 671 801 678 q 790 647 793 658 q 782 624 786 635 q 758 560 763 569 q 731 483 750 533 q 718 449 726 471 q 706 408 710 426 q 681 344 703 401 l 738 344 q 793 339 779 344 l 803 481 m 942 1022 q 921 1033 926 1022 q 915 1064 915 1044 q 928 1210 915 1133 q 939 1282 936 1254 q 943 1313 940 1294 q 947 1356 946 1332 q 997 1571 967 1460 l 1008 1579 l 1068 1589 q 1157 1592 1131 1589 l 1233 1593 l 1242 1589 q 1258 1592 1246 1592 l 1272 1592 q 1274 1590 1272 1592 q 1279 1589 1276 1589 l 1288 1588 l 1349 1585 l 1357 1581 q 1363 1582 1363 1581 l 1367 1582 q 1404 1571 1390 1576 q 1414 1558 1414 1568 q 1411 1544 1414 1556 l 1396 1518 l 1376 1485 l 1356 1446 q 1335 1411 1342 1421 q 1324 1393 1328 1401 q 1314 1378 1319 1385 q 1269 1293 1292 1343 q 1225 1206 1253 1251 l 1200 1154 q 1147 1043 1169 1083 q 1124 1022 1132 1022 l 1099 1022 l 1072 1022 l 1064 1026 l 1057 1022 l 1017 1022 q 1001 1023 1010 1022 q 981 1022 992 1024 l 942 1022 z "},"B":{"ha":1139,"x_min":81,"x_max":1083,"o":"m 408 -33 q 251 -28 310 -33 q 157 -11 192 -24 q 104 31 121 4 q 88 101 88 57 l 88 136 q 89 178 89 150 q 90 219 90 192 q 92 249 92 233 q 89 407 92 301 l 88 490 q 81 729 81 589 l 81 776 l 81 819 q 85 890 81 868 q 88 903 88 897 q 89 911 89 908 q 110 949 90 936 q 140 953 121 953 q 167 954 153 953 q 199 956 182 956 q 268 958 221 956 q 298 961 281 960 q 338 963 315 963 q 400 965 382 965 q 667 943 514 965 q 833 917 774 931 q 988 851 935 892 q 1056 703 1056 793 q 960 526 1056 586 q 947 520 953 522 q 936 515 942 518 q 893 497 911 508 q 886 492 890 496 q 879 483 882 489 q 880 483 879 483 q 881 481 881 482 q 883 478 881 481 q 1039 382 979 439 q 1083 278 1083 332 q 990 124 1083 201 q 764 14 899 51 q 567 -25 664 -14 q 408 -33 493 -33 m 574 615 q 589 619 581 615 q 657 650 625 632 q 695 667 676 658 q 721 679 714 676 l 733 685 l 744 688 q 750 694 750 688 q 699 726 750 718 q 622 733 668 733 q 569 701 581 733 q 563 660 563 685 q 563 629 563 635 l 563 622 q 574 615 563 615 m 553 214 q 553 214 553 214 q 554 215 554 214 q 775 318 651 263 q 782 324 781 324 l 789 328 q 674 351 731 346 q 554 354 601 354 q 539 335 539 354 l 539 224 q 550 214 539 214 l 553 214 z "},"C":{"ha":939,"x_min":57,"x_max":876,"o":"m 560 -33 q 407 -25 468 -33 q 264 15 328 -14 q 240 28 256 19 q 213 46 224 38 q 138 133 167 85 q 94 203 114 158 q 57 435 57 300 q 122 713 57 593 q 274 891 179 826 q 490 964 369 956 l 507 965 l 525 965 q 758 921 633 965 q 807 899 769 915 q 876 861 844 882 l 851 681 l 769 701 q 686 713 725 713 q 569 654 608 713 q 528 456 528 593 q 532 393 528 411 q 571 264 538 306 q 647 228 603 228 q 740 254 689 228 q 838 311 785 275 l 851 83 q 713 -1 797 33 q 560 -33 632 -33 z "},"Ć":{"ha":939,"x_min":57,"x_max":879,"o":"m 560 -33 q 407 -25 468 -33 q 264 15 328 -14 q 240 28 256 19 q 213 46 224 38 q 138 133 167 85 q 94 203 114 158 q 57 435 57 300 q 122 713 57 593 q 274 891 179 826 q 490 964 369 956 l 507 965 l 525 965 q 758 921 633 965 q 807 899 769 915 q 876 861 844 882 l 851 681 l 769 701 q 686 713 725 713 q 569 654 608 713 q 528 456 528 593 q 532 393 528 411 q 571 264 538 306 q 647 228 603 228 q 740 254 689 228 q 838 311 785 275 l 851 83 q 713 -1 797 33 q 560 -33 632 -33 m 407 1022 q 386 1033 392 1022 q 381 1064 381 1044 q 393 1210 381 1133 q 404 1282 401 1254 q 408 1313 406 1294 q 413 1356 411 1332 q 463 1571 432 1460 l 474 1579 l 533 1589 q 622 1592 596 1589 l 699 1593 l 707 1589 q 724 1592 711 1592 l 738 1592 q 740 1590 738 1592 q 744 1589 742 1589 l 753 1588 l 814 1585 l 822 1581 q 828 1582 828 1581 l 832 1582 q 869 1571 856 1576 q 879 1558 879 1568 q 876 1544 879 1556 l 861 1518 l 842 1485 l 821 1446 q 800 1411 807 1421 q 789 1393 793 1401 q 779 1378 785 1385 q 735 1293 757 1343 q 690 1206 718 1251 l 665 1154 q 613 1043 635 1083 q 589 1022 597 1022 l 564 1022 l 538 1022 l 529 1026 l 522 1022 l 482 1022 q 466 1023 475 1022 q 446 1022 457 1024 l 407 1022 z "},"Č":{"ha":939,"x_min":57,"x_max":883,"o":"m 560 -33 q 407 -25 468 -33 q 264 15 328 -14 q 240 28 256 19 q 213 46 224 38 q 138 133 167 85 q 94 203 114 158 q 57 435 57 300 q 122 713 57 593 q 274 891 179 826 q 490 964 369 956 l 507 965 l 525 965 q 758 921 633 965 q 807 899 769 915 q 876 861 844 882 l 851 681 l 769 701 q 686 713 725 713 q 569 654 608 713 q 528 456 528 593 q 532 393 528 411 q 571 264 538 306 q 647 228 603 228 q 740 254 689 228 q 838 311 785 275 l 851 83 q 713 -1 797 33 q 560 -33 632 -33 m 606 1025 q 579 1027 592 1025 q 561 1029 567 1029 q 524 1031 551 1031 l 474 1029 l 390 1029 l 328 1036 l 317 1047 q 272 1128 283 1103 l 231 1207 q 215 1247 225 1225 q 203 1275 206 1268 l 188 1304 q 136 1411 151 1371 q 115 1478 126 1433 l 114 1488 l 114 1496 q 119 1515 114 1507 q 135 1524 124 1524 q 153 1524 140 1524 q 175 1524 165 1525 q 213 1522 189 1522 l 254 1522 l 260 1518 l 267 1524 l 294 1522 l 321 1522 q 340 1512 328 1522 q 365 1485 353 1501 q 425 1404 399 1443 q 499 1283 472 1332 q 546 1350 513 1306 l 579 1397 l 606 1432 q 656 1508 638 1486 q 675 1522 668 1522 l 704 1522 l 756 1524 l 783 1522 l 797 1522 l 829 1524 l 863 1524 q 878 1515 872 1524 q 883 1496 883 1507 l 881 1488 l 881 1478 q 793 1258 857 1381 q 750 1175 769 1208 l 738 1150 q 679 1047 710 1104 l 647 1029 l 606 1025 z "},"Ç":{"ha":939,"x_min":57,"x_max":876,"o":"m 686 713 q 569 654 608 713 q 528 456 528 593 q 532 393 528 411 q 571 264 538 306 q 647 228 603 228 q 740 254 689 228 q 838 311 785 275 l 851 83 q 713 -1 797 33 q 560 -33 632 -33 l 508 -33 l 501 -67 q 682 -137 619 -85 q 731 -242 731 -181 q 671 -386 731 -332 q 421 -456 597 -456 l 397 -456 q 308 -437 356 -456 q 272 -414 285 -429 l 286 -337 q 296 -312 292 -322 q 301 -299 300 -301 q 397 -318 344 -318 q 468 -289 444 -318 q 488 -226 488 -261 q 464 -171 488 -190 q 400 -151 440 -151 q 342 -164 368 -151 l 344 -108 l 360 -17 q 264 15 303 -3 q 240 28 256 19 q 213 46 224 38 q 138 133 167 85 q 94 203 114 158 q 57 435 57 300 q 122 713 57 593 q 274 891 179 826 q 490 964 369 956 l 507 965 l 525 965 q 758 921 633 965 q 807 899 769 915 q 876 861 844 882 l 851 681 l 769 701 q 686 713 725 713 z "},"Ĉ":{"ha":939,"x_min":57,"x_max":881,"o":"m 560 -33 q 407 -25 468 -33 q 264 15 328 -14 q 240 28 256 19 q 213 46 224 38 q 138 133 167 85 q 94 203 114 158 q 57 435 57 300 q 122 713 57 593 q 274 891 179 826 q 490 964 369 956 l 507 965 l 525 965 q 758 921 633 965 q 807 899 769 915 q 876 861 844 882 l 851 681 l 769 701 q 686 713 725 713 q 569 654 608 713 q 528 456 528 593 q 532 393 528 411 q 571 264 538 306 q 647 228 603 228 q 740 254 689 228 q 838 311 785 275 l 851 83 q 713 -1 797 33 q 560 -33 632 -33 m 133 1022 q 119 1031 124 1022 q 114 1050 114 1039 l 114 1058 q 115 1067 114 1064 q 168 1203 125 1118 q 200 1269 178 1225 l 231 1338 l 272 1418 q 317 1497 283 1442 l 325 1508 l 390 1524 l 471 1524 l 524 1522 l 544 1522 l 560 1522 q 578 1519 565 1519 l 606 1519 l 647 1515 l 678 1497 l 738 1394 q 843 1179 814 1254 q 879 1067 868 1117 l 881 1058 l 881 1050 q 860 1022 881 1022 l 829 1022 l 796 1022 l 756 1022 l 704 1022 l 675 1022 q 656 1038 668 1022 q 603 1114 626 1075 q 579 1149 589 1136 q 497 1261 542 1196 q 425 1142 443 1169 l 407 1117 q 365 1060 379 1075 q 321 1022 332 1022 l 294 1022 l 265 1022 l 260 1026 l 253 1022 l 211 1022 q 197 1023 206 1022 q 175 1022 189 1024 l 133 1022 z "},"Ċ":{"ha":939,"x_min":57,"x_max":876,"o":"m 560 -33 q 407 -25 468 -33 q 264 15 328 -14 q 240 28 256 19 q 213 46 224 38 q 138 133 167 85 q 94 203 114 158 q 57 435 57 300 q 122 713 57 593 q 274 891 179 826 q 490 964 369 956 l 507 965 l 525 965 q 758 921 633 965 q 807 899 769 915 q 876 861 844 882 l 851 681 l 769 701 q 686 713 725 713 q 569 654 608 713 q 528 456 528 593 q 532 393 528 411 q 571 264 538 306 q 647 228 603 228 q 740 254 689 228 q 838 311 785 275 l 851 83 q 713 -1 797 33 q 560 -33 632 -33 m 494 1022 q 471 1024 481 1022 q 446 1026 457 1026 l 328 1036 l 318 1046 q 315 1113 315 1060 q 321 1228 315 1176 q 324 1282 321 1249 l 325 1322 q 364 1343 328 1343 q 415 1342 400 1343 q 440 1340 428 1342 q 467 1339 453 1339 q 503 1342 490 1339 l 546 1342 l 560 1342 l 578 1342 l 592 1342 l 603 1342 l 622 1342 q 642 1343 629 1343 q 678 1325 678 1343 l 678 1322 q 675 1300 675 1314 l 675 1288 l 675 1267 q 676 1251 675 1261 q 676 1218 676 1240 l 676 1074 q 674 1066 675 1069 q 671 1057 672 1063 q 656 1036 667 1042 q 648 1035 653 1036 q 636 1033 643 1033 q 633 1036 633 1033 l 626 1036 l 626 1036 l 617 1032 l 585 1029 q 579 1028 582 1029 q 574 1026 576 1026 l 564 1024 q 551 1026 563 1024 q 546 1028 549 1026 q 540 1029 543 1029 q 538 1026 538 1029 l 529 1022 l 494 1022 z "},"D":{"ha":1192,"x_min":81,"x_max":1129,"o":"m 338 0 l 125 1 q 94 32 101 1 q 88 88 88 51 q 85 303 88 208 q 81 590 81 439 l 81 896 q 92 920 81 908 q 117 932 104 932 l 278 931 q 393 929 324 929 q 556 931 497 929 l 607 932 q 743 935 693 935 q 910 901 829 935 q 1061 778 1004 865 q 1129 518 1129 672 q 1097 275 1129 372 q 993 115 1064 178 q 808 26 922 54 q 521 -1 693 -1 l 338 0 m 532 185 q 547 183 538 183 q 578 186 558 183 q 588 190 585 188 q 594 193 592 192 q 626 275 611 213 q 650 408 636 314 q 657 547 657 489 l 657 574 q 650 682 657 610 q 622 783 640 754 q 594 803 607 803 q 572 800 582 803 q 560 796 563 797 q 547 789 557 794 l 546 622 q 543 556 546 600 l 542 522 q 539 422 539 453 l 532 185 z "},"Ǆ":{"ha":2056,"x_min":81,"x_max":1978,"o":"m 338 0 l 125 1 q 94 32 101 1 q 88 88 88 51 q 85 303 88 208 q 81 590 81 439 l 81 896 q 92 920 81 908 q 117 932 104 932 l 278 931 q 393 929 324 929 q 556 931 497 929 l 607 932 q 743 935 693 935 q 910 901 829 935 q 1061 778 1004 865 q 1129 518 1129 672 q 1097 275 1129 372 q 993 115 1064 178 q 808 26 922 54 q 521 -1 693 -1 l 338 0 m 532 185 q 547 183 538 183 q 578 186 558 183 q 588 190 585 188 q 594 193 592 192 q 626 275 611 213 q 650 408 636 314 q 657 547 657 489 l 657 574 q 650 682 657 610 q 622 783 640 754 q 594 803 607 803 q 572 800 582 803 q 560 796 563 797 q 547 789 557 794 l 546 622 q 543 556 546 600 l 542 522 q 539 422 539 453 l 532 185 m 1629 0 q 1422 1 1488 0 q 1328 3 1360 1 l 1217 4 q 1192 15 1203 4 q 1179 39 1179 28 l 1179 296 q 1329 449 1272 383 q 1395 517 1364 481 q 1433 561 1426 553 q 1467 606 1461 594 q 1481 632 1481 624 q 1474 638 1481 638 l 1210 643 q 1171 675 1186 643 q 1158 747 1164 694 q 1156 811 1156 769 q 1157 833 1156 824 q 1158 865 1157 854 q 1161 896 1158 888 l 1161 910 l 1168 917 q 1196 928 1179 928 q 1213 925 1206 928 l 1228 924 q 1331 928 1278 924 q 1432 932 1381 932 q 1629 935 1564 932 l 1831 936 q 1950 928 1908 936 q 1974 917 1968 921 q 1978 907 1978 908 l 1978 685 q 1968 640 1978 672 q 1926 567 1957 611 q 1683 282 1865 472 q 1774 283 1744 282 l 1856 283 l 1935 283 q 1958 274 1947 283 q 1969 256 1969 265 l 1969 32 l 1969 28 q 1960 11 1969 18 q 1929 4 1947 6 q 1872 0 1913 0 l 1629 0 m 1679 1025 q 1653 1027 1665 1025 q 1635 1029 1640 1029 q 1597 1031 1625 1031 l 1547 1029 l 1464 1029 l 1401 1036 l 1390 1047 q 1346 1128 1357 1103 l 1304 1207 q 1289 1247 1299 1225 q 1276 1275 1279 1268 l 1261 1304 q 1210 1411 1225 1371 q 1189 1478 1200 1433 l 1188 1488 l 1188 1496 q 1192 1515 1188 1507 q 1208 1524 1197 1524 q 1226 1524 1214 1524 q 1249 1524 1239 1525 q 1286 1522 1263 1522 l 1328 1522 l 1333 1518 l 1340 1524 l 1368 1522 l 1394 1522 q 1414 1512 1401 1522 q 1439 1485 1426 1501 q 1499 1404 1472 1443 q 1572 1283 1546 1332 q 1619 1350 1586 1306 l 1653 1397 l 1679 1432 q 1729 1508 1711 1486 q 1749 1522 1742 1522 l 1778 1522 l 1829 1524 l 1857 1522 l 1871 1522 l 1903 1524 l 1936 1524 q 1951 1515 1946 1524 q 1957 1496 1957 1507 l 1954 1488 l 1954 1478 q 1867 1258 1931 1381 q 1824 1175 1843 1208 l 1811 1150 q 1753 1047 1783 1104 l 1721 1029 l 1679 1025 z "},"Ð":{"ha":1243,"x_min":60,"x_max":1178,"o":"m 404 0 l 210 1 q 179 32 189 1 q 174 88 174 47 q 172 139 174 118 q 171 210 172 185 l 171 293 q 169 338 171 322 l 168 386 q 94 389 113 386 q 61 408 61 396 l 61 490 q 60 567 60 513 q 74 581 60 572 q 99 588 85 588 l 132 588 l 165 588 l 165 896 q 177 921 165 910 q 203 932 189 932 l 344 931 q 444 929 381 929 q 608 931 549 929 l 657 932 q 796 935 743 935 q 963 900 882 935 q 1113 772 1061 858 q 1178 504 1178 668 q 1147 267 1178 363 q 1046 113 1115 172 q 858 26 974 53 q 571 -1 743 -1 l 404 0 m 582 185 q 601 183 589 183 q 639 186 617 183 q 650 190 644 188 q 658 193 656 192 q 708 293 690 225 q 728 547 728 378 l 728 574 q 719 682 728 631 q 679 783 708 750 q 644 803 667 803 q 616 800 629 803 q 599 796 603 797 q 583 789 596 793 l 583 699 l 583 588 q 643 582 610 588 q 664 576 656 581 q 672 567 672 572 l 671 492 q 668 464 671 474 l 668 432 q 657 401 668 410 q 631 393 646 394 q 582 389 614 389 l 582 310 l 582 243 l 582 185 z "},"Ď":{"ha":1192,"x_min":81,"x_max":1129,"o":"m 338 0 l 125 1 q 94 32 101 1 q 88 88 88 51 q 85 303 88 208 q 81 590 81 439 l 81 896 q 92 920 81 908 q 117 932 104 932 l 278 931 q 393 929 324 929 q 556 931 497 929 l 607 932 q 743 935 693 935 q 910 901 829 935 q 1061 778 1004 865 q 1129 518 1129 672 q 1097 275 1129 372 q 993 115 1064 178 q 808 26 922 54 q 521 -1 693 -1 l 338 0 m 532 185 q 547 183 538 183 q 578 186 558 183 q 588 190 585 188 q 594 193 592 192 q 626 275 611 213 q 650 408 636 314 q 657 547 657 489 l 657 574 q 650 682 657 610 q 622 783 640 754 q 594 803 607 803 q 572 800 582 803 q 560 796 563 797 q 547 789 557 794 l 546 622 q 543 556 546 600 l 542 522 q 539 422 539 453 l 532 185 m 704 1025 q 678 1027 690 1025 q 660 1029 665 1029 q 622 1031 650 1031 l 572 1029 l 489 1029 l 426 1036 l 415 1047 q 371 1128 382 1103 l 329 1207 q 314 1247 324 1225 q 301 1275 304 1268 l 286 1304 q 235 1411 250 1371 q 214 1478 225 1433 l 213 1488 l 213 1496 q 217 1515 213 1507 q 233 1524 222 1524 q 251 1524 239 1524 q 274 1524 264 1525 q 311 1522 288 1522 l 353 1522 l 358 1518 l 365 1524 l 393 1522 l 419 1522 q 439 1512 426 1522 q 464 1485 451 1501 q 524 1404 497 1443 q 597 1283 571 1332 q 644 1350 611 1306 l 678 1397 l 704 1432 q 754 1508 736 1486 q 774 1522 767 1522 l 803 1522 l 854 1524 l 882 1522 l 896 1522 l 928 1524 l 961 1524 q 976 1515 971 1524 q 982 1496 982 1507 l 979 1488 l 979 1478 q 892 1258 956 1381 q 849 1175 868 1208 l 836 1150 q 778 1047 808 1104 l 746 1029 l 704 1025 z "},"Đ":{"ha":1243,"x_min":60,"x_max":1178,"o":"m 404 0 l 210 1 q 179 32 189 1 q 174 88 174 47 q 172 139 174 118 q 171 210 172 185 l 171 293 q 169 338 171 322 l 168 386 q 94 389 113 386 q 61 408 61 396 l 61 490 q 60 567 60 513 q 74 581 60 572 q 99 588 85 588 l 132 588 l 165 588 l 165 896 q 177 921 165 910 q 203 932 189 932 l 344 931 q 444 929 381 929 q 608 931 549 929 l 657 932 q 796 935 743 935 q 963 900 882 935 q 1113 772 1061 858 q 1178 504 1178 668 q 1147 267 1178 363 q 1046 113 1115 172 q 858 26 974 53 q 571 -1 743 -1 l 404 0 m 582 185 q 601 183 589 183 q 639 186 617 183 q 650 190 644 188 q 658 193 656 192 q 708 293 690 225 q 728 547 728 378 l 728 574 q 719 682 728 631 q 679 783 708 750 q 644 803 667 803 q 616 800 629 803 q 599 796 603 797 q 583 789 596 793 l 583 699 l 583 588 q 643 582 610 588 q 664 576 656 581 q 672 567 672 572 l 671 492 q 668 464 671 474 l 668 432 q 657 401 668 410 q 631 393 646 394 q 582 389 614 389 l 582 310 l 582 243 l 582 185 z "},"ǅ":{"ha":1992,"x_min":81,"x_max":1913,"o":"m 338 0 l 125 1 q 94 32 101 1 q 88 88 88 51 q 85 303 88 208 q 81 590 81 439 l 81 896 q 92 920 81 908 q 117 932 104 932 l 278 931 q 393 929 324 929 q 556 931 497 929 l 607 932 q 743 935 693 935 q 910 901 829 935 q 1061 778 1004 865 q 1129 518 1129 672 q 1097 275 1129 372 q 993 115 1064 178 q 808 26 922 54 q 521 -1 693 -1 l 338 0 m 532 185 q 547 183 538 183 q 578 186 558 183 q 588 190 585 188 q 594 193 592 192 q 626 275 611 213 q 650 408 636 314 q 657 547 657 489 l 657 574 q 650 682 657 610 q 622 783 640 754 q 594 803 607 803 q 572 800 582 803 q 560 796 563 797 q 547 789 557 794 l 546 622 q 543 556 546 600 l 542 522 q 539 422 539 453 l 532 185 m 1578 0 q 1399 1 1454 0 q 1318 3 1346 1 l 1221 4 q 1200 14 1210 4 q 1190 33 1190 24 l 1190 254 l 1247 313 q 1321 386 1321 386 l 1408 485 q 1424 503 1415 493 q 1439 522 1432 513 q 1449 546 1449 538 q 1443 553 1449 553 l 1217 554 q 1190 569 1200 554 q 1175 611 1181 583 q 1169 701 1169 643 l 1169 719 q 1171 749 1171 728 q 1172 775 1172 757 q 1175 786 1175 782 l 1179 793 q 1203 803 1189 803 q 1218 800 1213 803 l 1232 799 q 1321 803 1275 799 q 1407 806 1376 806 q 1578 810 1494 806 l 1751 810 q 1856 803 1825 810 l 1876 793 q 1879 783 1879 785 l 1879 590 q 1871 553 1879 578 q 1836 490 1858 522 q 1626 244 1765 388 l 1843 244 q 1864 238 1854 244 q 1874 221 1874 231 l 1874 26 q 1864 11 1874 15 q 1839 4 1858 7 q 1789 0 1822 0 l 1578 0 m 1635 889 q 1608 891 1621 889 q 1590 893 1596 893 q 1553 894 1581 894 l 1503 893 l 1419 893 l 1357 900 l 1346 911 q 1301 992 1313 967 l 1260 1071 q 1244 1110 1254 1089 q 1232 1139 1235 1132 l 1217 1168 q 1165 1275 1181 1235 q 1144 1342 1156 1297 l 1143 1351 l 1143 1360 q 1148 1379 1143 1371 q 1164 1388 1153 1388 q 1182 1388 1169 1388 q 1204 1388 1194 1389 q 1242 1386 1218 1386 l 1283 1386 l 1289 1382 l 1296 1388 l 1324 1386 l 1350 1386 q 1369 1376 1357 1386 q 1394 1349 1382 1365 q 1454 1268 1428 1307 q 1528 1147 1501 1196 q 1575 1214 1542 1169 l 1608 1261 l 1635 1296 q 1685 1372 1667 1350 q 1704 1386 1697 1386 l 1733 1386 l 1785 1388 l 1813 1386 l 1826 1386 l 1858 1388 l 1892 1388 q 1907 1379 1901 1388 q 1913 1360 1913 1371 l 1910 1351 l 1910 1342 q 1822 1122 1886 1244 q 1779 1039 1799 1072 l 1767 1014 q 1708 911 1739 968 l 1676 893 l 1635 889 z "},"E":{"ha":963,"x_min":81,"x_max":896,"o":"m 194 0 q 174 2 188 0 q 140 6 160 4 l 111 13 q 101 16 104 14 q 99 19 97 18 q 94 115 99 56 q 93 152 94 136 q 90 179 92 168 l 88 239 q 85 299 88 263 l 83 342 q 82 424 83 394 q 81 546 81 453 q 82 726 81 633 q 90 903 83 819 q 124 928 90 918 q 193 931 144 931 q 358 935 306 931 q 606 938 522 938 l 667 938 q 842 929 781 935 q 874 876 864 929 q 883 826 878 867 q 894 775 888 806 q 895 759 896 767 q 894 750 894 751 q 879 736 893 736 q 863 738 874 738 q 719 728 804 738 l 646 722 q 574 715 600 717 q 563 699 569 715 q 550 615 557 681 l 547 581 q 551 558 547 563 q 569 553 556 553 l 693 553 q 817 546 747 553 l 833 546 q 856 532 851 542 q 863 514 861 524 l 868 390 l 868 386 q 818 358 868 363 q 707 351 789 351 q 615 353 636 351 q 567 351 575 353 q 547 335 551 347 q 543 296 543 324 q 540 244 543 278 q 539 192 539 228 q 672 194 629 192 q 806 199 719 199 q 817 189 811 199 q 839 126 824 175 q 856 57 847 99 q 858 36 858 47 q 831 7 858 7 q 733 4 794 7 q 633 1 701 1 q 414 0 488 1 l 194 0 z "},"É":{"ha":963,"x_min":81,"x_max":894,"o":"m 194 0 q 174 2 188 0 q 140 6 160 4 l 111 13 q 101 16 104 14 q 99 19 97 18 q 94 115 99 56 q 93 152 94 136 q 90 179 92 168 l 88 239 q 85 299 88 263 l 83 342 q 82 424 83 394 q 81 546 81 453 q 82 726 81 633 q 90 903 83 819 q 124 928 90 918 q 193 931 144 931 q 358 935 306 931 q 606 938 522 938 l 667 938 q 842 929 781 935 q 874 876 864 929 q 883 826 878 867 q 894 775 888 806 q 895 759 896 767 q 894 750 894 751 q 879 736 893 736 q 863 738 874 738 q 719 728 804 738 l 646 722 q 574 715 600 717 q 563 699 569 715 q 550 615 557 681 l 547 581 q 551 558 547 563 q 569 553 556 553 l 693 553 q 817 546 747 553 l 833 546 q 856 532 851 542 q 863 514 861 524 l 868 390 l 868 386 q 818 358 868 363 q 707 351 789 351 q 615 353 636 351 q 567 351 575 353 q 547 335 551 347 q 543 296 543 324 q 540 244 543 278 q 539 192 539 228 q 672 194 629 192 q 806 199 719 199 q 817 189 811 199 q 839 126 824 175 q 856 57 847 99 q 858 36 858 47 q 831 7 858 7 q 733 4 794 7 q 633 1 701 1 q 414 0 488 1 l 194 0 m 393 1022 q 372 1033 378 1022 q 367 1064 367 1044 q 379 1210 367 1133 q 390 1282 388 1254 q 394 1313 392 1294 q 399 1356 397 1332 q 449 1571 418 1460 l 460 1579 l 519 1589 q 608 1592 582 1589 l 685 1593 l 693 1589 q 710 1592 697 1592 l 724 1592 q 726 1590 724 1592 q 731 1589 728 1589 l 739 1588 l 800 1585 l 808 1581 q 814 1582 814 1581 l 818 1582 q 856 1571 842 1576 q 865 1558 865 1568 q 863 1544 865 1556 l 847 1518 l 828 1485 l 807 1446 q 786 1411 793 1421 q 775 1393 779 1401 q 765 1378 771 1385 q 721 1293 743 1343 q 676 1206 704 1251 l 651 1154 q 599 1043 621 1083 q 575 1022 583 1022 l 550 1022 l 524 1022 l 515 1026 l 508 1022 l 468 1022 q 452 1023 461 1022 q 432 1022 443 1024 l 393 1022 z "},"Ĕ":{"ha":963,"x_min":81,"x_max":894,"o":"m 194 0 q 174 2 188 0 q 140 6 160 4 l 111 13 q 101 16 104 14 q 99 19 97 18 q 94 115 99 56 q 93 152 94 136 q 90 179 92 168 l 88 239 q 85 299 88 263 l 83 342 q 82 424 83 394 q 81 546 81 453 q 82 726 81 633 q 90 903 83 819 q 124 928 90 918 q 193 931 144 931 q 358 935 306 931 q 606 938 522 938 l 667 938 q 842 929 781 935 q 874 876 864 929 q 883 826 878 867 q 894 775 888 806 q 895 759 896 767 q 894 750 894 751 q 879 736 893 736 q 863 738 874 738 q 719 728 804 738 l 646 722 q 574 715 600 717 q 563 699 569 715 q 550 615 557 681 l 547 581 q 551 558 547 563 q 569 553 556 553 l 693 553 q 817 546 747 553 l 833 546 q 856 532 851 542 q 863 514 861 524 l 868 390 l 868 386 q 818 358 868 363 q 707 351 789 351 q 615 353 636 351 q 567 351 575 353 q 547 335 551 347 q 543 296 543 324 q 540 244 543 278 q 539 192 539 228 q 672 194 629 192 q 806 199 719 199 q 817 189 811 199 q 839 126 824 175 q 856 57 847 99 q 858 36 858 47 q 831 7 858 7 q 733 4 794 7 q 633 1 701 1 q 414 0 488 1 l 194 0 m 467 1013 q 347 1033 406 1013 q 240 1088 288 1053 q 167 1171 193 1122 q 140 1275 140 1219 q 168 1392 140 1335 l 385 1390 q 372 1294 372 1340 l 374 1265 q 375 1263 374 1265 q 378 1258 376 1261 q 433 1219 386 1238 q 497 1211 457 1211 q 571 1244 538 1211 q 600 1321 600 1274 q 589 1404 600 1364 l 814 1397 q 828 1297 828 1357 q 805 1204 828 1250 q 738 1106 782 1158 q 610 1029 690 1053 q 467 1013 554 1013 z "},"Ě":{"ha":963,"x_min":81,"x_max":894,"o":"m 194 0 q 174 2 188 0 q 140 6 160 4 l 111 13 q 101 16 104 14 q 99 19 97 18 q 94 115 99 56 q 93 152 94 136 q 90 179 92 168 l 88 239 q 85 299 88 263 l 83 342 q 82 424 83 394 q 81 546 81 453 q 82 726 81 633 q 90 903 83 819 q 124 928 90 918 q 193 931 144 931 q 358 935 306 931 q 606 938 522 938 l 667 938 q 842 929 781 935 q 874 876 864 929 q 883 826 878 867 q 894 775 888 806 q 895 759 896 767 q 894 750 894 751 q 879 736 893 736 q 863 738 874 738 q 719 728 804 738 l 646 722 q 574 715 600 717 q 563 699 569 715 q 550 615 557 681 l 547 581 q 551 558 547 563 q 569 553 556 553 l 693 553 q 817 546 747 553 l 833 546 q 856 532 851 542 q 863 514 861 524 l 868 390 l 868 386 q 818 358 868 363 q 707 351 789 351 q 615 353 636 351 q 567 351 575 353 q 547 335 551 347 q 543 296 543 324 q 540 244 543 278 q 539 192 539 228 q 672 194 629 192 q 806 199 719 199 q 817 189 811 199 q 839 126 824 175 q 856 57 847 99 q 858 36 858 47 q 831 7 858 7 q 733 4 794 7 q 633 1 701 1 q 414 0 488 1 l 194 0 m 592 1025 q 565 1027 578 1025 q 547 1029 553 1029 q 510 1031 538 1031 l 460 1029 l 376 1029 l 314 1036 l 303 1047 q 258 1128 269 1103 l 217 1207 q 201 1247 211 1225 q 189 1275 192 1268 l 174 1304 q 122 1411 138 1371 q 101 1478 113 1433 l 100 1488 l 100 1496 q 105 1515 100 1507 q 121 1524 110 1524 q 139 1524 126 1524 q 161 1524 151 1525 q 199 1522 175 1522 l 240 1522 l 246 1518 l 253 1524 l 281 1522 l 307 1522 q 326 1512 314 1522 q 351 1485 339 1501 q 411 1404 385 1443 q 485 1283 458 1332 q 532 1350 499 1306 l 565 1397 l 592 1432 q 642 1508 624 1486 q 661 1522 654 1522 l 690 1522 l 742 1524 l 769 1522 l 783 1522 l 815 1524 l 849 1524 q 864 1515 858 1524 q 869 1496 869 1507 l 867 1488 l 867 1478 q 779 1258 843 1381 q 736 1175 756 1208 l 724 1150 q 665 1047 696 1104 l 633 1029 l 592 1025 z "},"Ê":{"ha":963,"x_min":81,"x_max":894,"o":"m 194 0 q 174 2 188 0 q 140 6 160 4 l 111 13 q 101 16 104 14 q 99 19 97 18 q 94 115 99 56 q 93 152 94 136 q 90 179 92 168 l 88 239 q 85 299 88 263 l 83 342 q 82 424 83 394 q 81 546 81 453 q 82 726 81 633 q 90 903 83 819 q 124 928 90 918 q 193 931 144 931 q 358 935 306 931 q 606 938 522 938 l 667 938 q 842 929 781 935 q 874 876 864 929 q 883 826 878 867 q 894 775 888 806 q 895 759 896 767 q 894 750 894 751 q 879 736 893 736 q 863 738 874 738 q 719 728 804 738 l 646 722 q 574 715 600 717 q 563 699 569 715 q 550 615 557 681 l 547 581 q 551 558 547 563 q 569 553 556 553 l 693 553 q 817 546 747 553 l 833 546 q 856 532 851 542 q 863 514 861 524 l 868 390 l 868 386 q 818 358 868 363 q 707 351 789 351 q 615 353 636 351 q 567 351 575 353 q 547 335 551 347 q 543 296 543 324 q 540 244 543 278 q 539 192 539 228 q 672 194 629 192 q 806 199 719 199 q 817 189 811 199 q 839 126 824 175 q 856 57 847 99 q 858 36 858 47 q 831 7 858 7 q 733 4 794 7 q 633 1 701 1 q 414 0 488 1 l 194 0 m 119 1022 q 105 1031 110 1022 q 100 1050 100 1039 l 100 1058 q 101 1067 100 1064 q 154 1203 111 1118 q 186 1269 164 1225 l 217 1338 l 258 1418 q 303 1497 269 1442 l 311 1508 l 376 1524 l 457 1524 l 510 1522 l 531 1522 l 546 1522 q 564 1519 551 1519 l 592 1519 l 633 1515 l 664 1497 l 724 1394 q 829 1179 800 1254 q 865 1067 854 1117 l 867 1058 l 867 1050 q 846 1022 867 1022 l 815 1022 l 782 1022 l 742 1022 l 690 1022 l 661 1022 q 642 1038 654 1022 q 589 1114 613 1075 q 565 1149 575 1136 q 483 1261 528 1196 q 411 1142 429 1169 l 393 1117 q 351 1060 365 1075 q 307 1022 318 1022 l 281 1022 l 251 1022 l 246 1026 l 239 1022 l 197 1022 q 183 1023 192 1022 q 161 1022 175 1024 l 119 1022 z "},"Ế":{"ha":963,"x_min":81,"x_max":1028,"o":"m 194 0 q 174 2 188 0 q 140 6 160 4 l 111 13 q 101 16 104 14 q 99 19 97 18 q 94 115 99 56 q 93 152 94 136 q 90 179 92 168 l 88 239 q 85 299 88 263 l 83 342 q 82 424 83 394 q 81 546 81 453 q 82 726 81 633 q 90 903 83 819 q 124 928 90 918 q 193 931 144 931 q 358 935 306 931 q 606 938 522 938 l 667 938 q 842 929 781 935 q 874 876 864 929 q 883 826 878 867 q 894 775 888 806 q 895 759 896 767 q 894 750 894 751 q 879 736 893 736 q 863 738 874 738 q 719 728 804 738 l 646 722 q 574 715 600 717 q 563 699 569 715 q 550 615 557 681 l 547 581 q 551 558 547 563 q 569 553 556 553 l 693 553 q 817 546 747 553 l 833 546 q 856 532 851 542 q 863 514 861 524 l 868 390 l 868 386 q 818 358 868 363 q 707 351 789 351 q 615 353 636 351 q 567 351 575 353 q 547 335 551 347 q 543 296 543 324 q 540 244 543 278 q 539 192 539 228 q 672 194 629 192 q 806 199 719 199 q 817 189 811 199 q 839 126 824 175 q 856 57 847 99 q 858 36 858 47 q 831 7 858 7 q 733 4 794 7 q 633 1 701 1 q 414 0 488 1 l 194 0 m 199 1013 q 188 1019 192 1013 q 185 1033 185 1025 l 185 1040 q 186 1047 185 1046 q 213 1082 199 1067 q 256 1149 246 1126 l 288 1189 q 314 1219 293 1199 q 342 1249 332 1236 l 346 1258 l 393 1286 l 492 1286 l 508 1286 l 519 1286 q 532 1283 524 1283 l 553 1283 l 586 1281 l 608 1267 l 703 1124 l 726 1092 q 760 1047 743 1065 l 761 1040 l 761 1033 q 746 1013 761 1013 l 721 1013 l 696 1013 l 668 1013 l 628 1013 l 607 1013 q 592 1025 599 1013 l 558 1054 q 474 1131 511 1093 q 429 1090 450 1111 q 374 1040 379 1046 q 339 1013 349 1013 l 321 1013 l 297 1013 l 293 1017 l 289 1013 l 256 1013 l 231 1013 l 199 1013 m 807 1156 l 801 1151 l 769 1151 q 748 1163 753 1151 q 743 1193 743 1174 q 744 1264 743 1242 q 746 1290 746 1272 q 743 1349 746 1304 q 739 1453 739 1436 l 750 1461 l 785 1472 q 874 1474 847 1472 l 961 1467 l 972 1464 q 975 1465 975 1464 l 982 1465 q 1003 1460 990 1463 q 1019 1453 1015 1457 q 1028 1440 1028 1449 q 1024 1426 1028 1435 q 1010 1401 1022 1418 q 995 1369 1006 1393 q 971 1321 985 1344 q 946 1274 956 1299 q 892 1172 924 1215 q 869 1151 879 1151 l 842 1151 l 818 1151 l 807 1156 z "},"Ệ":{"ha":963,"x_min":81,"x_max":894,"o":"m 194 0 q 174 2 188 0 q 140 6 160 4 l 111 13 q 101 16 104 14 q 99 19 97 18 q 94 115 99 56 q 93 152 94 136 q 90 179 92 168 l 88 239 q 85 299 88 263 l 83 342 q 82 424 83 394 q 81 546 81 453 q 82 726 81 633 q 90 903 83 819 q 124 928 90 918 q 193 931 144 931 q 358 935 306 931 q 606 938 522 938 l 667 938 q 842 929 781 935 q 874 876 864 929 q 883 826 878 867 q 894 775 888 806 q 895 759 896 767 q 894 750 894 751 q 879 736 893 736 q 863 738 874 738 q 719 728 804 738 l 646 722 q 574 715 600 717 q 563 699 569 715 q 550 615 557 681 l 547 581 q 551 558 547 563 q 569 553 556 553 l 693 553 q 817 546 747 553 l 833 546 q 856 532 851 542 q 863 514 861 524 l 868 390 l 868 386 q 818 358 868 363 q 707 351 789 351 q 615 353 636 351 q 567 351 575 353 q 547 335 551 347 q 543 296 543 324 q 540 244 543 278 q 539 192 539 228 q 672 194 629 192 q 806 199 719 199 q 817 189 811 199 q 839 126 824 175 q 856 57 847 99 q 858 36 858 47 q 831 7 858 7 q 733 4 794 7 q 633 1 701 1 q 414 0 488 1 l 194 0 m 199 1013 q 188 1019 192 1013 q 185 1033 185 1025 l 185 1040 q 186 1047 185 1046 q 213 1082 199 1067 q 256 1149 246 1126 l 288 1189 q 314 1219 293 1199 q 342 1249 332 1236 l 346 1258 l 393 1286 l 492 1286 l 508 1286 l 519 1286 q 532 1283 524 1283 l 553 1283 l 586 1281 l 608 1267 l 703 1124 l 726 1092 q 760 1047 743 1065 l 761 1040 l 761 1033 q 746 1013 761 1013 l 721 1013 l 696 1013 l 668 1013 l 628 1013 l 607 1013 q 592 1025 599 1013 l 558 1054 q 474 1131 511 1093 q 429 1090 450 1111 q 374 1040 379 1046 q 339 1013 349 1013 l 321 1013 l 297 1013 l 293 1017 l 289 1013 l 256 1013 l 231 1013 l 199 1013 m 463 -381 q 443 -379 457 -379 l 353 -369 l 346 -362 q 344 -312 344 -353 q 349 -226 344 -271 l 351 -186 l 351 -157 q 381 -140 353 -140 l 421 -140 q 460 -143 433 -143 l 485 -143 q 518 -140 496 -140 l 529 -140 l 540 -140 l 553 -140 q 561 -143 557 -143 q 575 -140 571 -143 l 589 -140 q 617 -153 617 -140 l 617 -157 q 615 -172 615 -164 l 615 -182 l 615 -199 l 615 -235 l 615 -342 q 613 -354 615 -349 q 600 -369 608 -368 q 586 -374 597 -374 l 582 -372 l 579 -372 l 579 -372 l 572 -374 l 546 -376 l 539 -379 l 531 -381 l 522 -379 q 518 -378 519 -379 q 515 -376 517 -376 q 511 -379 511 -376 l 504 -381 l 481 -381 l 463 -381 z "},"Ề":{"ha":963,"x_min":81,"x_max":908,"o":"m 194 0 q 174 2 188 0 q 140 6 160 4 l 111 13 q 101 16 104 14 q 99 19 97 18 q 94 115 99 56 q 93 152 94 136 q 90 179 92 168 l 88 239 q 85 299 88 263 l 83 342 q 82 424 83 394 q 81 546 81 453 q 82 726 81 633 q 90 903 83 819 q 124 928 90 918 q 193 931 144 931 q 358 935 306 931 q 606 938 522 938 l 667 938 q 842 929 781 935 q 874 876 864 929 q 883 826 878 867 q 894 775 888 806 q 895 759 896 767 q 894 750 894 751 q 879 736 893 736 q 863 738 874 738 q 719 728 804 738 l 646 722 q 574 715 600 717 q 563 699 569 715 q 550 615 557 681 l 547 581 q 551 558 547 563 q 569 553 556 553 l 693 553 q 817 546 747 553 l 833 546 q 856 532 851 542 q 863 514 861 524 l 868 390 l 868 386 q 818 358 868 363 q 707 351 789 351 q 615 353 636 351 q 567 351 575 353 q 547 335 551 347 q 543 296 543 324 q 540 244 543 278 q 539 192 539 228 q 672 194 629 192 q 806 199 719 199 q 817 189 811 199 q 839 126 824 175 q 856 57 847 99 q 858 36 858 47 q 831 7 858 7 q 733 4 794 7 q 633 1 701 1 q 414 0 488 1 l 194 0 m 199 1013 q 188 1019 192 1013 q 185 1033 185 1025 l 185 1040 q 186 1047 185 1046 q 213 1082 199 1067 q 256 1149 246 1126 l 288 1189 q 314 1219 293 1199 q 342 1249 332 1236 l 346 1258 l 393 1286 l 492 1286 l 508 1286 l 519 1286 q 532 1283 524 1283 l 553 1283 l 586 1281 l 608 1267 l 703 1124 l 726 1092 q 760 1047 743 1065 l 761 1040 l 761 1033 q 746 1013 761 1013 l 721 1013 l 696 1013 l 668 1013 l 628 1013 l 607 1013 q 592 1025 599 1013 l 558 1054 q 474 1131 511 1093 q 429 1090 450 1111 q 374 1040 379 1046 q 339 1013 349 1013 l 321 1013 l 297 1013 l 293 1017 l 289 1013 l 256 1013 l 231 1013 l 199 1013 m 807 1201 l 779 1201 q 756 1222 769 1201 q 703 1324 729 1261 q 691 1346 697 1333 q 678 1371 685 1358 q 650 1426 663 1396 l 638 1451 q 624 1476 629 1464 q 619 1490 619 1485 q 629 1503 619 1499 q 645 1510 633 1507 q 665 1515 657 1513 l 672 1515 q 676 1514 672 1514 l 686 1517 l 775 1524 q 864 1522 801 1522 l 899 1511 l 908 1503 q 906 1401 908 1460 q 903 1343 903 1360 q 904 1314 903 1324 q 906 1243 906 1292 q 901 1213 906 1224 q 879 1201 896 1201 l 846 1201 l 842 1206 l 831 1201 l 807 1201 z "},"Ể":{"ha":963,"x_min":81,"x_max":1021,"o":"m 194 0 q 174 2 188 0 q 140 6 160 4 l 111 13 q 101 16 104 14 q 99 19 97 18 q 94 115 99 56 q 93 152 94 136 q 90 179 92 168 l 88 239 q 85 299 88 263 l 83 342 q 82 424 83 394 q 81 546 81 453 q 82 726 81 633 q 90 903 83 819 q 124 928 90 918 q 193 931 144 931 q 358 935 306 931 q 606 938 522 938 l 667 938 q 842 929 781 935 q 874 876 864 929 q 883 826 878 867 q 894 775 888 806 q 895 759 896 767 q 894 750 894 751 q 879 736 893 736 q 863 738 874 738 q 719 728 804 738 l 646 722 q 574 715 600 717 q 563 699 569 715 q 550 615 557 681 l 547 581 q 551 558 547 563 q 569 553 556 553 l 693 553 q 817 546 747 553 l 833 546 q 856 532 851 542 q 863 514 861 524 l 868 390 l 868 386 q 818 358 868 363 q 707 351 789 351 q 615 353 636 351 q 567 351 575 353 q 547 335 551 347 q 543 296 543 324 q 540 244 543 278 q 539 192 539 228 q 672 194 629 192 q 806 199 719 199 q 817 189 811 199 q 839 126 824 175 q 856 57 847 99 q 858 36 858 47 q 831 7 858 7 q 733 4 794 7 q 633 1 701 1 q 414 0 488 1 l 194 0 m 199 1013 q 188 1019 192 1013 q 185 1033 185 1025 l 185 1040 q 186 1047 185 1046 q 213 1082 199 1067 q 256 1149 246 1126 l 288 1189 q 314 1219 293 1199 q 342 1249 332 1236 l 346 1258 l 393 1286 l 492 1286 l 508 1286 l 519 1286 q 532 1283 524 1283 l 553 1283 l 586 1281 l 608 1267 l 703 1124 l 726 1092 q 760 1047 743 1065 l 761 1040 l 761 1033 q 746 1013 761 1013 l 721 1013 l 696 1013 l 668 1013 l 628 1013 l 607 1013 q 592 1025 599 1013 l 558 1054 q 474 1131 511 1093 q 429 1090 450 1111 q 374 1040 379 1046 q 339 1013 349 1013 l 321 1013 l 297 1013 l 293 1017 l 289 1013 l 256 1013 l 231 1013 l 199 1013 m 764 1161 q 742 1176 747 1161 q 738 1217 738 1188 q 750 1267 738 1246 q 800 1314 763 1288 q 829 1349 829 1335 q 771 1368 829 1368 q 708 1364 726 1368 q 686 1360 690 1360 q 679 1371 679 1360 q 683 1451 679 1410 q 685 1464 685 1458 q 688 1472 686 1469 q 693 1481 689 1478 q 701 1484 697 1483 q 707 1485 706 1485 q 832 1493 768 1493 q 967 1468 914 1493 q 1021 1389 1021 1443 q 938 1269 1021 1318 q 889 1235 903 1249 q 875 1204 875 1222 l 874 1174 q 864 1161 874 1161 l 857 1161 l 821 1163 q 801 1162 814 1163 q 764 1161 789 1161 z "},"Ễ":{"ha":963,"x_min":81,"x_max":894,"o":"m 194 0 q 174 2 188 0 q 140 6 160 4 l 111 13 q 101 16 104 14 q 99 19 97 18 q 94 115 99 56 q 93 152 94 136 q 90 179 92 168 l 88 239 q 85 299 88 263 l 83 342 q 82 424 83 394 q 81 546 81 453 q 82 726 81 633 q 90 903 83 819 q 124 928 90 918 q 193 931 144 931 q 358 935 306 931 q 606 938 522 938 l 667 938 q 842 929 781 935 q 874 876 864 929 q 883 826 878 867 q 894 775 888 806 q 895 759 896 767 q 894 750 894 751 q 879 736 893 736 q 863 738 874 738 q 719 728 804 738 l 646 722 q 574 715 600 717 q 563 699 569 715 q 550 615 557 681 l 547 581 q 551 558 547 563 q 569 553 556 553 l 693 553 q 817 546 747 553 l 833 546 q 856 532 851 542 q 863 514 861 524 l 868 390 l 868 386 q 818 358 868 363 q 707 351 789 351 q 615 353 636 351 q 567 351 575 353 q 547 335 551 347 q 543 296 543 324 q 540 244 543 278 q 539 192 539 228 q 672 194 629 192 q 806 199 719 199 q 817 189 811 199 q 839 126 824 175 q 856 57 847 99 q 858 36 858 47 q 831 7 858 7 q 733 4 794 7 q 633 1 701 1 q 414 0 488 1 l 194 0 m 199 1013 q 188 1019 192 1013 q 185 1033 185 1025 l 185 1040 q 186 1047 185 1046 q 213 1082 199 1067 q 256 1149 246 1126 l 288 1189 q 314 1219 293 1199 q 342 1249 332 1236 l 346 1258 l 393 1286 l 492 1286 l 508 1286 l 519 1286 q 532 1283 524 1283 l 553 1283 l 586 1281 l 608 1267 l 703 1124 l 726 1092 q 760 1047 743 1065 l 761 1040 l 761 1033 q 746 1013 761 1013 l 721 1013 l 696 1013 l 668 1013 l 628 1013 l 607 1013 q 592 1025 599 1013 l 558 1054 q 474 1131 511 1093 q 429 1090 450 1111 q 374 1040 379 1046 q 339 1013 349 1013 l 321 1013 l 297 1013 l 293 1017 l 289 1013 l 256 1013 l 231 1013 l 199 1013 m 585 1317 q 503 1340 538 1317 q 490 1350 500 1343 q 474 1364 479 1357 q 425 1407 450 1394 q 399 1413 411 1413 q 382 1393 388 1413 q 378 1372 378 1383 q 377 1356 378 1367 q 372 1340 376 1344 q 368 1340 369 1339 q 288 1344 301 1340 q 271 1350 276 1347 q 264 1358 265 1353 q 258 1371 261 1361 q 256 1378 257 1374 q 254 1389 256 1382 q 261 1464 254 1418 q 301 1538 271 1511 q 414 1568 338 1568 q 442 1561 424 1568 q 465 1553 460 1554 q 514 1518 504 1540 q 522 1506 515 1513 q 534 1490 528 1500 q 546 1478 540 1481 q 563 1472 554 1472 q 586 1490 586 1472 q 578 1524 586 1506 l 564 1549 q 576 1556 564 1556 l 581 1556 l 711 1558 q 724 1544 719 1553 q 739 1479 738 1518 l 740 1449 q 731 1406 740 1422 q 671 1340 713 1368 q 626 1322 653 1329 q 585 1317 613 1317 z "},"Ȅ":{"ha":963,"x_min":-125,"x_max":894,"o":"m 194 0 q 174 2 188 0 q 140 6 160 4 l 111 13 q 101 16 104 14 q 99 19 97 18 q 94 115 99 56 q 93 152 94 136 q 90 179 92 168 l 88 239 q 85 299 88 263 l 83 342 q 82 424 83 394 q 81 546 81 453 q 82 726 81 633 q 90 903 83 819 q 124 928 90 918 q 193 931 144 931 q 358 935 306 931 q 606 938 522 938 l 667 938 q 842 929 781 935 q 874 876 864 929 q 883 826 878 867 q 894 775 888 806 q 895 759 896 767 q 894 750 894 751 q 879 736 893 736 q 863 738 874 738 q 719 728 804 738 l 646 722 q 574 715 600 717 q 563 699 569 715 q 550 615 557 681 l 547 581 q 551 558 547 563 q 569 553 556 553 l 693 553 q 817 546 747 553 l 833 546 q 856 532 851 542 q 863 514 861 524 l 868 390 l 868 386 q 818 358 868 363 q 707 351 789 351 q 615 353 636 351 q 567 351 575 353 q 547 335 551 347 q 543 296 543 324 q 540 244 543 278 q 539 192 539 228 q 672 194 629 192 q 806 199 719 199 q 817 189 811 199 q 839 126 824 175 q 856 57 847 99 q 858 36 858 47 q 831 7 858 7 q 733 4 794 7 q 633 1 701 1 q 414 0 488 1 l 194 0 m 192 1022 l 165 1022 q 143 1043 156 1022 q 89 1154 121 1079 l 64 1206 q 19 1293 58 1217 q -25 1378 1 1339 q -44 1411 -36 1394 l -65 1446 q -76 1466 -69 1454 q -87 1485 -82 1478 q -121 1544 -100 1501 q -125 1557 -125 1553 q -115 1571 -125 1565 q -78 1582 -107 1575 l -74 1582 q -70 1581 -72 1581 q -68 1581 -68 1581 l -58 1585 l 1 1588 l 11 1589 q 15 1590 14 1589 q 18 1592 17 1592 l 32 1592 q 47 1589 43 1592 l 57 1593 l 133 1592 q 221 1589 158 1589 l 281 1579 l 293 1571 q 342 1356 319 1476 l 351 1282 l 363 1210 l 367 1163 q 374 1064 374 1107 q 369 1033 374 1044 q 349 1022 364 1022 l 310 1022 l 272 1022 l 232 1022 l 226 1026 l 217 1022 l 192 1022 m 647 1022 l 621 1022 q 601 1043 610 1022 q 567 1154 581 1104 q 551 1206 556 1194 q 533 1258 540 1232 q 522 1293 525 1285 q 494 1378 507 1351 q 481 1411 485 1393 q 464 1446 475 1421 q 456 1465 461 1454 q 447 1485 450 1476 q 436 1515 438 1511 q 428 1533 431 1526 q 425 1544 426 1540 q 424 1554 424 1549 q 436 1571 424 1565 q 475 1582 447 1575 l 481 1582 q 485 1581 481 1581 l 496 1585 l 557 1588 l 564 1589 q 569 1590 567 1589 q 574 1592 572 1592 l 588 1592 q 601 1589 599 1592 l 613 1593 l 686 1592 q 775 1589 713 1589 l 835 1579 l 843 1571 q 856 1356 850 1489 q 851 1282 851 1318 q 850 1210 851 1233 q 836 1064 849 1150 q 803 1022 833 1022 l 765 1022 l 728 1022 l 689 1022 l 683 1026 l 672 1022 l 647 1022 z "},"Ë":{"ha":963,"x_min":81,"x_max":894,"o":"m 194 0 q 174 2 188 0 q 140 6 160 4 l 111 13 q 101 16 104 14 q 99 19 97 18 q 94 115 99 56 q 93 152 94 136 q 90 179 92 168 l 88 239 q 85 299 88 263 l 83 342 q 82 424 83 394 q 81 546 81 453 q 82 726 81 633 q 90 903 83 819 q 124 928 90 918 q 193 931 144 931 q 358 935 306 931 q 606 938 522 938 l 667 938 q 842 929 781 935 q 874 876 864 929 q 883 826 878 867 q 894 775 888 806 q 895 759 896 767 q 894 750 894 751 q 879 736 893 736 q 863 738 874 738 q 719 728 804 738 l 646 722 q 574 715 600 717 q 563 699 569 715 q 550 615 557 681 l 547 581 q 551 558 547 563 q 569 553 556 553 l 693 553 q 817 546 747 553 l 833 546 q 856 532 851 542 q 863 514 861 524 l 868 390 l 868 386 q 818 358 868 363 q 707 351 789 351 q 615 353 636 351 q 567 351 575 353 q 547 335 551 347 q 543 296 543 324 q 540 244 543 278 q 539 192 539 228 q 672 194 629 192 q 806 199 719 199 q 817 189 811 199 q 839 126 824 175 q 856 57 847 99 q 858 36 858 47 q 831 7 858 7 q 733 4 794 7 q 633 1 701 1 q 414 0 488 1 l 194 0 m 119 1079 l 110 1124 l 110 1164 l 108 1192 l 107 1200 q 113 1218 107 1211 l 117 1261 l 117 1265 l 115 1272 q 131 1304 121 1289 q 156 1311 138 1311 l 300 1311 q 349 1315 335 1315 q 367 1314 363 1315 q 375 1313 371 1314 q 385 1311 379 1311 l 394 1311 q 399 1313 397 1311 q 404 1314 401 1314 l 408 1314 q 425 1279 425 1314 l 425 1251 q 422 1224 422 1240 q 423 1219 422 1222 q 425 1214 424 1217 l 425 1200 l 425 1183 l 425 1169 l 425 1140 q 426 1108 426 1129 q 421 1083 426 1094 q 404 1071 415 1072 l 128 1071 l 119 1079 m 551 1079 l 543 1124 l 543 1164 q 539 1200 543 1186 l 539 1207 q 538 1218 538 1210 q 537 1237 538 1224 q 536 1275 536 1250 q 537 1278 536 1276 q 536 1281 538 1279 l 536 1286 q 544 1297 539 1289 q 554 1307 549 1304 q 589 1311 569 1311 l 733 1311 q 781 1315 771 1315 q 800 1314 794 1315 q 807 1313 803 1314 q 818 1311 811 1311 l 828 1311 q 833 1313 831 1311 q 838 1314 835 1314 l 842 1314 q 854 1305 851 1314 q 857 1279 857 1296 l 857 1261 l 856 1224 q 856 1219 856 1222 q 857 1214 856 1217 l 857 1200 l 857 1183 l 857 1169 l 856 1154 l 856 1140 q 857 1126 856 1129 q 860 1108 860 1115 q 838 1071 860 1072 l 633 1071 l 551 1079 z "},"Ė":{"ha":963,"x_min":81,"x_max":894,"o":"m 194 0 q 174 2 188 0 q 140 6 160 4 l 111 13 q 101 16 104 14 q 99 19 97 18 q 94 115 99 56 q 93 152 94 136 q 90 179 92 168 l 88 239 q 85 299 88 263 l 83 342 q 82 424 83 394 q 81 546 81 453 q 82 726 81 633 q 90 903 83 819 q 124 928 90 918 q 193 931 144 931 q 358 935 306 931 q 606 938 522 938 l 667 938 q 842 929 781 935 q 874 876 864 929 q 883 826 878 867 q 894 775 888 806 q 895 759 896 767 q 894 750 894 751 q 879 736 893 736 q 863 738 874 738 q 719 728 804 738 l 646 722 q 574 715 600 717 q 563 699 569 715 q 550 615 557 681 l 547 581 q 551 558 547 563 q 569 553 556 553 l 693 553 q 817 546 747 553 l 833 546 q 856 532 851 542 q 863 514 861 524 l 868 390 l 868 386 q 818 358 868 363 q 707 351 789 351 q 615 353 636 351 q 567 351 575 353 q 547 335 551 347 q 543 296 543 324 q 540 244 543 278 q 539 192 539 228 q 672 194 629 192 q 806 199 719 199 q 817 189 811 199 q 839 126 824 175 q 856 57 847 99 q 858 36 858 47 q 831 7 858 7 q 733 4 794 7 q 633 1 701 1 q 414 0 488 1 l 194 0 m 481 1022 q 457 1024 467 1022 q 432 1026 443 1026 l 314 1036 l 304 1046 q 301 1113 301 1060 q 307 1228 301 1176 q 310 1282 307 1249 l 311 1322 q 350 1343 314 1343 q 401 1342 386 1343 q 426 1340 414 1342 q 453 1339 439 1339 q 489 1342 476 1339 l 532 1342 l 546 1342 l 564 1342 l 578 1342 l 589 1342 l 608 1342 q 628 1343 615 1343 q 664 1325 664 1343 l 664 1322 q 661 1300 661 1314 l 661 1288 l 661 1267 q 662 1251 661 1261 q 663 1218 663 1240 l 663 1074 q 660 1066 661 1069 q 657 1057 658 1063 q 642 1036 653 1042 q 634 1035 639 1036 q 622 1033 629 1033 q 619 1036 619 1033 l 613 1036 l 613 1036 l 603 1032 l 571 1029 q 565 1028 568 1029 q 560 1026 563 1026 l 550 1024 q 538 1026 549 1024 q 532 1028 535 1026 q 526 1029 529 1029 q 524 1026 524 1029 l 515 1022 l 481 1022 z "},"Ẹ":{"ha":963,"x_min":81,"x_max":894,"o":"m 194 0 q 174 2 188 0 q 140 6 160 4 l 111 13 q 101 16 104 14 q 99 19 97 18 q 94 115 99 56 q 93 152 94 136 q 90 179 92 168 l 88 239 q 85 299 88 263 l 83 342 q 82 424 83 394 q 81 546 81 453 q 82 726 81 633 q 90 903 83 819 q 124 928 90 918 q 193 931 144 931 q 358 935 306 931 q 606 938 522 938 l 667 938 q 842 929 781 935 q 874 876 864 929 q 883 826 878 867 q 894 775 888 806 q 895 759 896 767 q 894 750 894 751 q 879 736 893 736 q 863 738 874 738 q 719 728 804 738 l 646 722 q 574 715 600 717 q 563 699 569 715 q 550 615 557 681 l 547 581 q 551 558 547 563 q 569 553 556 553 l 693 553 q 817 546 747 553 l 833 546 q 856 532 851 542 q 863 514 861 524 l 868 390 l 868 386 q 818 358 868 363 q 707 351 789 351 q 615 353 636 351 q 567 351 575 353 q 547 335 551 347 q 543 296 543 324 q 540 244 543 278 q 539 192 539 228 q 672 194 629 192 q 806 199 719 199 q 817 189 811 199 q 839 126 824 175 q 856 57 847 99 q 858 36 858 47 q 831 7 858 7 q 733 4 794 7 q 633 1 701 1 q 414 0 488 1 l 194 0 m 463 -381 q 443 -379 457 -379 l 353 -369 l 346 -362 q 344 -312 344 -353 q 349 -226 344 -271 l 351 -186 l 351 -157 q 381 -140 353 -140 l 421 -140 q 460 -143 433 -143 l 485 -143 q 518 -140 496 -140 l 529 -140 l 540 -140 l 553 -140 q 561 -143 557 -143 q 575 -140 571 -143 l 589 -140 q 617 -153 617 -140 l 617 -157 q 615 -172 615 -164 l 615 -182 l 615 -199 l 615 -235 l 615 -342 q 613 -354 615 -349 q 600 -369 608 -368 q 586 -374 597 -374 l 582 -372 l 579 -372 l 579 -372 l 572 -374 l 546 -376 l 539 -379 l 531 -381 l 522 -379 q 518 -378 519 -379 q 515 -376 517 -376 q 511 -379 511 -376 l 504 -381 l 481 -381 l 463 -381 z "},"È":{"ha":963,"x_min":81,"x_max":894,"o":"m 194 0 q 174 2 188 0 q 140 6 160 4 l 111 13 q 101 16 104 14 q 99 19 97 18 q 94 115 99 56 q 93 152 94 136 q 90 179 92 168 l 88 239 q 85 299 88 263 l 83 342 q 82 424 83 394 q 81 546 81 453 q 82 726 81 633 q 90 903 83 819 q 124 928 90 918 q 193 931 144 931 q 358 935 306 931 q 606 938 522 938 l 667 938 q 842 929 781 935 q 874 876 864 929 q 883 826 878 867 q 894 775 888 806 q 895 759 896 767 q 894 750 894 751 q 879 736 893 736 q 863 738 874 738 q 719 728 804 738 l 646 722 q 574 715 600 717 q 563 699 569 715 q 550 615 557 681 l 547 581 q 551 558 547 563 q 569 553 556 553 l 693 553 q 817 546 747 553 l 833 546 q 856 532 851 542 q 863 514 861 524 l 868 390 l 868 386 q 818 358 868 363 q 707 351 789 351 q 615 353 636 351 q 567 351 575 353 q 547 335 551 347 q 543 296 543 324 q 540 244 543 278 q 539 192 539 228 q 672 194 629 192 q 806 199 719 199 q 817 189 811 199 q 839 126 824 175 q 856 57 847 99 q 858 36 858 47 q 831 7 858 7 q 733 4 794 7 q 633 1 701 1 q 414 0 488 1 l 194 0 m 411 1022 l 383 1022 q 360 1043 374 1022 q 307 1144 333 1082 q 295 1167 301 1154 q 282 1192 289 1179 q 249 1260 269 1211 l 238 1286 l 226 1313 q 215 1339 224 1318 q 193 1378 206 1360 l 175 1411 q 154 1446 168 1421 q 113 1518 118 1506 q 99 1544 100 1539 q 94 1558 94 1553 q 103 1571 94 1567 q 140 1582 110 1575 l 147 1582 q 150 1581 147 1581 l 161 1585 l 219 1588 l 228 1589 q 233 1590 231 1589 q 238 1592 236 1592 l 251 1592 q 265 1589 261 1592 l 274 1593 l 350 1592 q 439 1589 376 1589 l 499 1579 l 510 1571 q 560 1356 540 1460 q 568 1282 561 1321 q 589 1135 586 1194 q 592 1064 592 1113 q 587 1033 592 1044 q 565 1022 582 1022 l 529 1022 l 490 1022 l 450 1022 l 446 1026 l 435 1022 l 411 1022 z "},"Ẻ":{"ha":963,"x_min":81,"x_max":894,"o":"m 194 0 q 174 2 188 0 q 140 6 160 4 l 111 13 q 101 16 104 14 q 99 19 97 18 q 94 115 99 56 q 93 152 94 136 q 90 179 92 168 l 88 239 q 85 299 88 263 l 83 342 q 82 424 83 394 q 81 546 81 453 q 82 726 81 633 q 90 903 83 819 q 124 928 90 918 q 193 931 144 931 q 358 935 306 931 q 606 938 522 938 l 667 938 q 842 929 781 935 q 874 876 864 929 q 883 826 878 867 q 894 775 888 806 q 895 759 896 767 q 894 750 894 751 q 879 736 893 736 q 863 738 874 738 q 719 728 804 738 l 646 722 q 574 715 600 717 q 563 699 569 715 q 550 615 557 681 l 547 581 q 551 558 547 563 q 569 553 556 553 l 693 553 q 817 546 747 553 l 833 546 q 856 532 851 542 q 863 514 861 524 l 868 390 l 868 386 q 818 358 868 363 q 707 351 789 351 q 615 353 636 351 q 567 351 575 353 q 547 335 551 347 q 543 296 543 324 q 540 244 543 278 q 539 192 539 228 q 672 194 629 192 q 806 199 719 199 q 817 189 811 199 q 839 126 824 175 q 856 57 847 99 q 858 36 858 47 q 831 7 858 7 q 733 4 794 7 q 633 1 701 1 q 414 0 488 1 l 194 0 m 440 1067 q 418 1082 424 1067 q 414 1122 414 1093 q 426 1172 414 1151 q 476 1219 439 1193 q 506 1254 506 1240 q 447 1274 506 1274 q 385 1269 403 1274 q 363 1265 367 1265 q 356 1276 356 1265 q 360 1357 356 1315 q 362 1369 361 1364 q 364 1378 363 1375 q 369 1386 365 1383 q 378 1390 374 1389 q 383 1390 382 1390 q 508 1399 444 1399 q 644 1374 590 1399 q 697 1294 697 1349 q 614 1175 697 1224 q 565 1141 579 1154 q 551 1110 551 1128 l 550 1079 q 540 1067 550 1067 l 533 1067 l 497 1068 q 478 1067 490 1068 q 440 1067 465 1067 z "},"Ȇ":{"ha":963,"x_min":81,"x_max":894,"o":"m 194 0 q 174 2 188 0 q 140 6 160 4 l 111 13 q 101 16 104 14 q 99 19 97 18 q 94 115 99 56 q 93 152 94 136 q 90 179 92 168 l 88 239 q 85 299 88 263 l 83 342 q 82 424 83 394 q 81 546 81 453 q 82 726 81 633 q 90 903 83 819 q 124 928 90 918 q 193 931 144 931 q 358 935 306 931 q 606 938 522 938 l 667 938 q 842 929 781 935 q 874 876 864 929 q 883 826 878 867 q 894 775 888 806 q 895 759 896 767 q 894 750 894 751 q 879 736 893 736 q 863 738 874 738 q 719 728 804 738 l 646 722 q 574 715 600 717 q 563 699 569 715 q 550 615 557 681 l 547 581 q 551 558 547 563 q 569 553 556 553 l 693 553 q 817 546 747 553 l 833 546 q 856 532 851 542 q 863 514 861 524 l 868 390 l 868 386 q 818 358 868 363 q 707 351 789 351 q 615 353 636 351 q 567 351 575 353 q 547 335 551 347 q 543 296 543 324 q 540 244 543 278 q 539 192 539 228 q 672 194 629 192 q 806 199 719 199 q 817 189 811 199 q 839 126 824 175 q 856 57 847 99 q 858 36 858 47 q 831 7 858 7 q 733 4 794 7 q 633 1 701 1 q 414 0 488 1 l 194 0 m 157 1017 q 144 1117 144 1054 q 235 1310 144 1206 q 363 1386 283 1364 q 504 1401 411 1401 q 625 1382 567 1401 q 731 1328 683 1363 q 805 1243 778 1292 q 832 1140 832 1194 q 803 1022 832 1085 l 586 1024 q 599 1119 599 1076 l 599 1149 q 597 1151 599 1149 q 593 1157 594 1153 q 538 1196 585 1176 q 474 1203 513 1203 q 401 1171 433 1203 q 371 1094 371 1138 q 383 1011 371 1054 l 157 1017 z "},"Ē":{"ha":963,"x_min":81,"x_max":894,"o":"m 194 0 q 174 2 188 0 q 140 6 160 4 l 111 13 q 101 16 104 14 q 99 19 97 18 q 94 115 99 56 q 93 152 94 136 q 90 179 92 168 l 88 239 q 85 299 88 263 l 83 342 q 82 424 83 394 q 81 546 81 453 q 82 726 81 633 q 90 903 83 819 q 124 928 90 918 q 193 931 144 931 q 358 935 306 931 q 606 938 522 938 l 667 938 q 842 929 781 935 q 874 876 864 929 q 883 826 878 867 q 894 775 888 806 q 895 759 896 767 q 894 750 894 751 q 879 736 893 736 q 863 738 874 738 q 719 728 804 738 l 646 722 q 574 715 600 717 q 563 699 569 715 q 550 615 557 681 l 547 581 q 551 558 547 563 q 569 553 556 553 l 693 553 q 817 546 747 553 l 833 546 q 856 532 851 542 q 863 514 861 524 l 868 390 l 868 386 q 818 358 868 363 q 707 351 789 351 q 615 353 636 351 q 567 351 575 353 q 547 335 551 347 q 543 296 543 324 q 540 244 543 278 q 539 192 539 228 q 672 194 629 192 q 806 199 719 199 q 817 189 811 199 q 839 126 824 175 q 856 57 847 99 q 858 36 858 47 q 831 7 858 7 q 733 4 794 7 q 633 1 701 1 q 414 0 488 1 l 194 0 m 693 1064 q 657 1065 679 1065 l 626 1067 l 592 1067 l 578 1068 l 550 1068 q 533 1067 544 1068 q 515 1068 522 1067 q 481 1071 501 1071 l 450 1071 l 436 1071 l 297 1071 l 258 1071 q 222 1074 236 1071 q 200 1085 208 1076 q 190 1106 190 1092 l 190 1156 l 190 1197 l 190 1238 q 189 1286 189 1251 q 200 1308 189 1300 q 208 1315 201 1310 q 224 1321 215 1321 l 376 1321 l 407 1321 q 481 1318 425 1321 l 536 1317 q 661 1314 633 1314 l 693 1314 q 744 1307 721 1314 q 769 1279 769 1300 q 771 1245 769 1258 q 772 1224 772 1232 l 772 1210 q 774 1172 772 1189 l 774 1140 q 768 1092 774 1110 q 740 1064 764 1064 l 693 1064 z "},"Ę":{"ha":963,"x_min":81,"x_max":918,"o":"m 908 -199 q 918 -212 918 -203 l 918 -219 l 894 -333 q 883 -345 893 -339 q 858 -358 872 -351 q 793 -376 817 -374 q 776 -379 783 -379 q 765 -381 769 -379 l 751 -383 q 519 -351 600 -383 q 421 -271 443 -324 q 414 -226 414 -251 q 447 -117 414 -164 q 529 -46 471 -85 q 555 -27 539 -36 q 578 -14 571 -18 l 601 1 q 414 0 476 1 l 194 0 q 174 2 188 0 q 140 6 160 4 l 111 13 q 101 16 104 14 q 99 19 97 18 q 94 115 99 56 q 93 152 94 136 q 90 179 92 168 l 88 239 q 85 299 88 263 l 83 342 q 82 424 83 394 q 81 546 81 453 q 82 726 81 633 q 90 903 83 819 q 124 928 90 918 q 193 931 144 931 q 358 935 306 931 q 606 938 522 938 l 667 938 q 842 929 781 935 q 874 876 864 929 q 883 826 878 867 q 894 775 888 806 q 895 759 896 767 q 894 750 894 751 q 879 736 893 736 q 863 738 874 738 q 719 728 804 738 l 646 722 q 574 715 600 717 q 563 699 569 715 q 550 615 557 681 l 547 581 q 551 558 547 563 q 569 553 556 553 l 693 553 q 817 546 747 553 l 833 546 q 856 532 851 542 q 863 514 861 524 l 868 390 l 868 386 q 818 358 868 363 q 707 351 789 351 q 615 353 636 351 q 567 351 575 353 q 547 335 551 347 q 543 296 543 324 q 540 244 543 278 q 539 192 539 228 q 672 194 629 192 q 806 199 719 199 q 817 189 811 199 q 839 126 824 175 q 856 57 847 99 q 858 36 858 47 q 832 7 858 7 l 781 -46 q 749 -81 761 -62 q 717 -125 731 -101 q 699 -175 699 -158 q 707 -206 699 -196 q 731 -219 715 -215 q 742 -224 733 -221 q 760 -224 751 -226 q 788 -222 769 -222 q 908 -199 844 -222 z "},"Ẽ":{"ha":963,"x_min":81,"x_max":894,"o":"m 194 0 q 174 2 188 0 q 140 6 160 4 l 111 13 q 101 16 104 14 q 99 19 97 18 q 94 115 99 56 q 93 152 94 136 q 90 179 92 168 l 88 239 q 85 299 88 263 l 83 342 q 82 424 83 394 q 81 546 81 453 q 82 726 81 633 q 90 903 83 819 q 124 928 90 918 q 193 931 144 931 q 358 935 306 931 q 606 938 522 938 l 667 938 q 842 929 781 935 q 874 876 864 929 q 883 826 878 867 q 894 775 888 806 q 895 759 896 767 q 894 750 894 751 q 879 736 893 736 q 863 738 874 738 q 719 728 804 738 l 646 722 q 574 715 600 717 q 563 699 569 715 q 550 615 557 681 l 547 581 q 551 558 547 563 q 569 553 556 553 l 693 553 q 817 546 747 553 l 833 546 q 856 532 851 542 q 863 514 861 524 l 868 390 l 868 386 q 818 358 868 363 q 707 351 789 351 q 615 353 636 351 q 567 351 575 353 q 547 335 551 347 q 543 296 543 324 q 540 244 543 278 q 539 192 539 228 q 672 194 629 192 q 806 199 719 199 q 817 189 811 199 q 839 126 824 175 q 856 57 847 99 q 858 36 858 47 q 831 7 858 7 q 733 4 794 7 q 633 1 701 1 q 414 0 488 1 l 194 0 m 572 1010 q 490 1033 525 1010 q 477 1043 488 1036 q 461 1057 467 1050 q 413 1100 438 1088 q 386 1106 399 1106 q 369 1086 375 1106 q 365 1065 365 1076 q 365 1049 365 1060 q 360 1033 364 1038 q 356 1033 357 1032 q 275 1038 289 1033 q 258 1043 264 1040 q 251 1051 253 1046 q 246 1064 249 1054 q 244 1071 244 1067 q 242 1082 243 1075 q 249 1157 242 1111 q 289 1231 258 1204 q 401 1261 325 1261 q 429 1254 411 1261 q 453 1246 447 1247 q 501 1211 492 1233 q 510 1199 503 1206 q 522 1183 515 1193 q 533 1171 528 1174 q 550 1165 542 1165 q 574 1183 574 1165 q 565 1217 574 1199 l 551 1242 q 564 1249 551 1249 l 568 1249 l 699 1251 q 711 1238 707 1246 q 726 1172 725 1211 l 728 1142 q 718 1099 728 1115 q 658 1033 700 1061 q 614 1015 640 1022 q 572 1010 600 1010 z "},"F":{"ha":921,"x_min":81,"x_max":872,"o":"m 143 -15 q 106 39 114 -15 q 101 82 101 63 l 101 113 q 97 201 97 158 q 88 382 92 329 q 85 433 88 406 q 81 471 82 460 l 81 910 q 90 925 81 922 l 99 925 l 103 924 q 231 928 151 924 q 407 931 336 931 l 421 931 q 449 929 429 929 l 474 929 l 488 929 q 553 928 529 929 l 696 928 q 782 925 722 925 q 799 924 793 925 q 824 921 810 921 q 835 925 829 921 q 869 867 867 925 q 872 838 872 847 q 869 804 872 829 q 868 733 868 782 q 842 715 868 718 q 818 714 835 714 l 799 714 l 736 714 l 694 713 q 651 708 681 708 q 618 710 622 708 q 612 707 614 708 q 608 706 610 706 q 607 700 608 703 q 606 692 606 697 q 599 619 604 682 q 597 556 597 601 l 596 553 q 601 540 596 547 l 768 540 q 792 536 785 540 q 804 521 800 532 q 810 435 810 504 l 810 368 l 810 331 q 802 314 807 318 q 789 310 797 310 q 768 307 778 310 l 706 303 l 678 303 q 650 300 657 303 q 624 296 640 297 l 604 296 q 574 290 582 296 q 560 276 567 289 q 557 104 560 150 q 543 7 556 38 q 471 4 518 7 q 442 1 449 4 l 428 1 l 425 1 q 417 3 419 1 q 411 4 414 4 l 407 6 q 401 7 407 7 q 397 6 400 7 q 390 1 393 4 l 275 1 q 269 -1 274 0 q 256 -4 264 -1 l 171 -14 l 143 -15 z "},"G":{"ha":1150,"x_min":60,"x_max":1085,"o":"m 483 -32 q 289 18 375 -32 q 129 174 192 65 q 60 463 60 296 q 101 675 60 581 q 221 835 143 769 q 400 932 297 899 q 624 965 503 965 q 990 875 801 965 l 936 639 q 913 646 926 642 q 883 654 900 650 q 771 679 807 674 q 717 685 738 685 q 583 638 629 685 q 529 456 529 583 q 564 289 529 339 q 650 242 593 242 q 733 261 686 242 q 731 328 733 283 l 729 358 q 728 453 728 390 l 728 490 q 732 508 728 503 q 747 513 736 513 q 771 511 751 511 l 918 511 q 1004 513 983 511 q 1053 511 1042 513 q 1077 498 1071 507 q 1083 469 1083 489 q 1085 457 1083 463 l 1085 444 l 1085 422 l 1085 381 l 1085 240 l 1085 233 q 1082 221 1083 228 q 1081 206 1081 214 l 1081 199 q 1078 76 1081 111 q 1068 4 1075 19 q 1014 1 1032 4 l 983 0 l 979 0 q 965 1 967 0 q 963 3 964 3 q 963 4 963 4 l 958 4 q 956 1 957 3 q 956 0 956 0 l 817 0 l 810 0 l 796 0 l 779 0 q 768 -1 775 -1 q 758 7 763 -1 q 747 67 749 32 q 742 115 744 83 q 654 6 729 44 q 483 -32 586 -32 z "},"Ğ":{"ha":1150,"x_min":60,"x_max":1085,"o":"m 483 -32 q 289 18 375 -32 q 129 174 192 65 q 60 463 60 296 q 101 675 60 581 q 221 835 143 769 q 400 932 297 899 q 624 965 503 965 q 990 875 801 965 l 936 639 q 913 646 926 642 q 883 654 900 650 q 771 679 807 674 q 717 685 738 685 q 583 638 629 685 q 529 456 529 583 q 564 289 529 339 q 650 242 593 242 q 733 261 686 242 q 731 328 733 283 l 729 358 q 728 453 728 390 l 728 490 q 732 508 728 503 q 747 513 736 513 q 771 511 751 511 l 918 511 q 1004 513 983 511 q 1053 511 1042 513 q 1077 498 1071 507 q 1083 469 1083 489 q 1085 457 1083 463 l 1085 444 l 1085 422 l 1085 381 l 1085 240 l 1085 233 q 1082 221 1083 228 q 1081 206 1081 214 l 1081 199 q 1078 76 1081 111 q 1068 4 1075 19 q 1014 1 1032 4 l 983 0 l 979 0 q 965 1 967 0 q 963 3 964 3 q 963 4 963 4 l 958 4 q 956 1 957 3 q 956 0 956 0 l 817 0 l 810 0 l 796 0 l 779 0 q 768 -1 775 -1 q 758 7 763 -1 q 747 67 749 32 q 742 115 744 83 q 654 6 729 44 q 483 -32 586 -32 m 558 1013 q 438 1033 497 1013 q 332 1088 379 1053 q 258 1171 285 1122 q 232 1275 232 1219 q 260 1392 232 1335 l 476 1390 q 464 1294 464 1340 l 465 1265 q 467 1263 465 1265 q 469 1258 468 1261 q 525 1219 478 1238 q 589 1211 549 1211 q 663 1244 629 1211 q 692 1321 692 1274 q 681 1404 692 1364 l 906 1397 q 919 1297 919 1357 q 897 1204 919 1250 q 829 1106 874 1158 q 701 1029 782 1053 q 558 1013 646 1013 z "},"Ǧ":{"ha":1150,"x_min":60,"x_max":1085,"o":"m 483 -32 q 289 18 375 -32 q 129 174 192 65 q 60 463 60 296 q 101 675 60 581 q 221 835 143 769 q 400 932 297 899 q 624 965 503 965 q 990 875 801 965 l 936 639 q 913 646 926 642 q 883 654 900 650 q 771 679 807 674 q 717 685 738 685 q 583 638 629 685 q 529 456 529 583 q 564 289 529 339 q 650 242 593 242 q 733 261 686 242 q 731 328 733 283 l 729 358 q 728 453 728 390 l 728 490 q 732 508 728 503 q 747 513 736 513 q 771 511 751 511 l 918 511 q 1004 513 983 511 q 1053 511 1042 513 q 1077 498 1071 507 q 1083 469 1083 489 q 1085 457 1083 463 l 1085 444 l 1085 422 l 1085 381 l 1085 240 l 1085 233 q 1082 221 1083 228 q 1081 206 1081 214 l 1081 199 q 1078 76 1081 111 q 1068 4 1075 19 q 1014 1 1032 4 l 983 0 l 979 0 q 965 1 967 0 q 963 3 964 3 q 963 4 963 4 l 958 4 q 956 1 957 3 q 956 0 956 0 l 817 0 l 810 0 l 796 0 l 779 0 q 768 -1 775 -1 q 758 7 763 -1 q 747 67 749 32 q 742 115 744 83 q 654 6 729 44 q 483 -32 586 -32 m 683 1025 q 657 1027 669 1025 q 639 1029 644 1029 q 601 1031 629 1031 l 551 1029 l 468 1029 l 406 1036 l 394 1047 q 350 1128 361 1103 l 308 1207 q 293 1247 303 1225 q 281 1275 283 1268 l 265 1304 q 214 1411 229 1371 q 193 1478 204 1433 l 192 1488 l 192 1496 q 197 1515 192 1507 q 213 1524 201 1524 q 231 1524 218 1524 q 253 1524 243 1525 q 290 1522 267 1522 l 332 1522 l 338 1518 l 344 1524 l 372 1522 l 399 1522 q 418 1512 406 1522 q 443 1485 431 1501 q 503 1404 476 1443 q 576 1283 550 1332 q 624 1350 590 1306 l 657 1397 l 683 1432 q 733 1508 715 1486 q 753 1522 746 1522 l 782 1522 l 833 1524 l 861 1522 l 875 1522 l 907 1524 l 940 1524 q 956 1515 950 1524 q 961 1496 961 1507 l 958 1488 l 958 1478 q 871 1258 935 1381 q 828 1175 847 1208 l 815 1150 q 757 1047 788 1104 l 725 1029 l 683 1025 z "},"Ĝ":{"ha":1150,"x_min":60,"x_max":1085,"o":"m 483 -32 q 289 18 375 -32 q 129 174 192 65 q 60 463 60 296 q 101 675 60 581 q 221 835 143 769 q 400 932 297 899 q 624 965 503 965 q 990 875 801 965 l 936 639 q 913 646 926 642 q 883 654 900 650 q 771 679 807 674 q 717 685 738 685 q 583 638 629 685 q 529 456 529 583 q 564 289 529 339 q 650 242 593 242 q 733 261 686 242 q 731 328 733 283 l 729 358 q 728 453 728 390 l 728 490 q 732 508 728 503 q 747 513 736 513 q 771 511 751 511 l 918 511 q 1004 513 983 511 q 1053 511 1042 513 q 1077 498 1071 507 q 1083 469 1083 489 q 1085 457 1083 463 l 1085 444 l 1085 422 l 1085 381 l 1085 240 l 1085 233 q 1082 221 1083 228 q 1081 206 1081 214 l 1081 199 q 1078 76 1081 111 q 1068 4 1075 19 q 1014 1 1032 4 l 983 0 l 979 0 q 965 1 967 0 q 963 3 964 3 q 963 4 963 4 l 958 4 q 956 1 957 3 q 956 0 956 0 l 817 0 l 810 0 l 796 0 l 779 0 q 768 -1 775 -1 q 758 7 763 -1 q 747 67 749 32 q 742 115 744 83 q 654 6 729 44 q 483 -32 586 -32 m 211 1022 q 197 1031 201 1022 q 192 1050 192 1039 l 192 1058 q 193 1067 192 1064 q 246 1203 203 1118 q 278 1269 256 1225 l 308 1338 l 350 1418 q 394 1497 361 1442 l 403 1508 l 468 1524 l 549 1524 l 601 1522 l 622 1522 l 638 1522 q 656 1519 643 1519 l 683 1519 l 725 1515 l 756 1497 l 815 1394 q 921 1179 892 1254 q 957 1067 946 1117 l 958 1058 l 958 1050 q 938 1022 958 1022 l 907 1022 l 874 1022 l 833 1022 l 782 1022 l 753 1022 q 733 1038 746 1022 q 681 1114 704 1075 q 657 1149 667 1136 q 575 1261 619 1196 q 503 1142 521 1169 l 485 1117 q 443 1060 457 1075 q 399 1022 410 1022 l 372 1022 l 343 1022 l 338 1026 l 331 1022 l 289 1022 q 275 1023 283 1022 q 253 1022 267 1024 l 211 1022 z "},"Ģ":{"ha":1150,"x_min":60,"x_max":1085,"o":"m 483 -32 q 289 18 375 -32 q 129 174 192 65 q 60 463 60 296 q 101 675 60 581 q 221 835 143 769 q 400 932 297 899 q 624 965 503 965 q 990 875 801 965 l 936 639 q 913 646 926 642 q 883 654 900 650 q 771 679 807 674 q 717 685 738 685 q 583 638 629 685 q 529 456 529 583 q 564 289 529 339 q 650 242 593 242 q 733 261 686 242 q 731 328 733 283 l 729 358 q 728 453 728 390 l 728 490 q 732 508 728 503 q 747 513 736 513 q 771 511 751 511 l 918 511 q 1004 513 983 511 q 1053 511 1042 513 q 1077 498 1071 507 q 1083 469 1083 489 q 1085 457 1083 463 l 1085 444 l 1085 422 l 1085 381 l 1085 240 l 1085 233 q 1082 221 1083 228 q 1081 206 1081 214 l 1081 199 q 1078 76 1081 111 q 1068 4 1075 19 q 1014 1 1032 4 l 983 0 l 979 0 q 965 1 967 0 q 963 3 964 3 q 963 4 963 4 l 958 4 q 956 1 957 3 q 956 0 956 0 l 817 0 l 810 0 l 796 0 l 779 0 q 768 -1 775 -1 q 758 7 763 -1 q 747 67 749 32 q 742 115 744 83 q 654 6 729 44 q 483 -32 586 -32 m 449 -521 q 433 -495 443 -511 q 419 -462 422 -479 q 413 -422 414 -436 q 413 -400 413 -407 q 521 -356 486 -390 q 542 -324 536 -337 q 544 -314 544 -315 q 541 -309 544 -310 q 532 -309 538 -308 q 521 -310 526 -310 q 489 -307 511 -307 q 419 -303 451 -307 q 393 -297 410 -303 q 386 -294 389 -296 q 382 -290 383 -292 q 374 -192 375 -225 q 372 -149 374 -162 q 371 -94 372 -107 l 379 -87 l 444 -81 q 504 -75 486 -75 l 565 -75 l 579 -78 q 607 -81 583 -81 q 615 -78 608 -78 q 664 -81 639 -78 q 713 -87 697 -85 q 715 -86 714 -87 q 718 -85 717 -85 l 721 -85 q 737 -89 726 -86 q 750 -94 747 -92 q 756 -104 756 -100 q 757 -115 757 -108 q 758 -120 757 -117 q 761 -132 760 -124 q 764 -164 761 -139 q 768 -192 765 -178 q 771 -217 771 -206 q 778 -282 778 -262 q 776 -310 778 -300 q 726 -429 767 -382 q 610 -494 696 -467 q 449 -521 524 -521 z "},"Ġ":{"ha":1150,"x_min":60,"x_max":1085,"o":"m 483 -32 q 289 18 375 -32 q 129 174 192 65 q 60 463 60 296 q 101 675 60 581 q 221 835 143 769 q 400 932 297 899 q 624 965 503 965 q 990 875 801 965 l 936 639 q 913 646 926 642 q 883 654 900 650 q 771 679 807 674 q 717 685 738 685 q 583 638 629 685 q 529 456 529 583 q 564 289 529 339 q 650 242 593 242 q 733 261 686 242 q 731 328 733 283 l 729 358 q 728 453 728 390 l 728 490 q 732 508 728 503 q 747 513 736 513 q 771 511 751 511 l 918 511 q 1004 513 983 511 q 1053 511 1042 513 q 1077 498 1071 507 q 1083 469 1083 489 q 1085 457 1083 463 l 1085 444 l 1085 422 l 1085 381 l 1085 240 l 1085 233 q 1082 221 1083 228 q 1081 206 1081 214 l 1081 199 q 1078 76 1081 111 q 1068 4 1075 19 q 1014 1 1032 4 l 983 0 l 979 0 q 965 1 967 0 q 963 3 964 3 q 963 4 963 4 l 958 4 q 956 1 957 3 q 956 0 956 0 l 817 0 l 810 0 l 796 0 l 779 0 q 768 -1 775 -1 q 758 7 763 -1 q 747 67 749 32 q 742 115 744 83 q 654 6 729 44 q 483 -32 586 -32 m 572 1022 q 549 1024 558 1022 q 524 1026 535 1026 l 406 1036 l 396 1046 q 393 1113 393 1060 q 399 1228 393 1176 q 401 1282 399 1249 l 403 1322 q 442 1343 406 1343 q 493 1342 478 1343 q 518 1340 506 1342 q 544 1339 531 1339 q 581 1342 568 1339 l 624 1342 l 638 1342 l 656 1342 l 669 1342 l 681 1342 l 700 1342 q 719 1343 707 1343 q 756 1325 756 1343 l 756 1322 q 753 1300 753 1314 l 753 1288 l 753 1267 q 753 1251 753 1261 q 754 1218 754 1240 l 754 1074 q 751 1066 753 1069 q 749 1057 750 1063 q 733 1036 744 1042 q 726 1035 731 1036 q 714 1033 721 1033 q 711 1036 711 1033 l 704 1036 l 704 1036 l 694 1032 l 663 1029 q 657 1028 660 1029 q 651 1026 654 1026 l 642 1024 q 629 1026 640 1024 q 624 1028 626 1026 q 618 1029 621 1029 q 615 1026 615 1029 l 607 1022 l 572 1022 z "},"H":{"ha":1292,"x_min":78,"x_max":1215,"o":"m 367 -8 q 236 -6 279 -8 q 119 11 169 -3 q 108 28 114 11 q 104 47 104 40 l 78 553 l 78 581 q 79 615 78 590 q 81 682 81 640 l 83 754 q 85 796 83 782 q 88 876 85 838 q 88 894 88 889 q 89 900 89 899 q 99 908 92 901 q 113 918 107 914 q 153 931 126 931 l 233 931 l 256 931 q 307 929 269 929 q 372 928 347 929 l 436 928 l 488 928 l 508 928 q 557 917 544 928 q 574 868 574 904 l 574 854 q 572 843 574 849 q 571 832 571 838 l 568 810 l 567 793 q 569 782 567 788 q 571 768 571 776 q 569 714 571 731 l 568 657 l 604 657 q 643 653 622 653 q 682 650 671 650 q 719 647 694 647 l 721 742 q 722 778 722 754 l 724 835 l 724 846 q 725 885 724 868 q 731 910 726 903 q 750 921 739 921 q 789 924 758 924 l 826 925 q 893 928 867 925 l 972 928 q 1053 929 1028 928 q 1119 931 1101 929 l 1157 931 q 1201 922 1190 931 q 1213 906 1210 917 q 1215 876 1215 896 q 1213 731 1215 822 q 1207 588 1207 642 q 1210 574 1207 579 q 1211 565 1210 568 q 1213 560 1213 561 l 1178 32 q 1168 13 1178 25 q 1146 0 1156 0 l 764 0 q 756 7 760 0 q 749 25 751 14 q 745 44 747 32 q 742 74 743 56 l 726 331 l 717 331 q 657 332 679 331 q 592 335 604 335 l 581 335 q 568 311 568 335 q 567 92 568 139 q 563 39 567 81 q 539 0 560 7 l 518 -1 q 367 -8 410 -7 z "},"Ħ":{"ha":1292,"x_min":0,"x_max":1303,"o":"m 367 -8 q 236 -6 279 -8 q 119 11 169 -3 q 108 28 114 11 q 104 47 104 40 l 78 553 l 78 581 q 81 618 78 601 l 81 682 q 82 715 81 706 l 81 715 q 25 721 81 715 q 4 733 4 725 l 4 758 q 1 782 1 768 l 1 803 q 0 826 0 810 q 3 831 0 829 q 7 832 6 832 q 49 842 15 836 q 60 843 54 842 q 74 844 67 844 l 85 844 q 87 879 86 864 q 89 900 88 894 q 99 908 92 901 q 113 918 107 914 q 153 931 126 931 l 233 931 l 256 931 q 307 929 269 929 q 372 928 347 929 l 436 928 l 488 928 l 508 928 q 557 917 544 928 q 574 868 574 904 l 574 854 q 571 842 571 851 l 615 842 l 724 842 l 724 846 q 725 885 724 868 q 731 910 726 903 q 750 921 739 921 q 789 924 758 924 l 826 925 q 893 928 867 925 l 972 928 q 1053 929 1028 928 q 1119 931 1101 929 l 1157 931 q 1201 922 1190 931 q 1213 906 1210 917 q 1215 876 1215 896 l 1215 839 q 1236 838 1222 838 q 1261 835 1249 838 q 1278 832 1274 832 q 1291 828 1286 831 q 1296 824 1296 826 l 1296 806 q 1297 796 1297 803 l 1299 786 q 1300 779 1300 785 q 1301 774 1300 776 q 1303 768 1303 771 l 1303 751 q 1292 726 1303 733 q 1228 713 1272 713 l 1210 713 q 1208 664 1210 679 l 1207 588 q 1210 574 1207 579 q 1211 565 1210 568 q 1213 560 1213 561 l 1178 32 q 1168 13 1178 25 q 1146 0 1156 0 l 764 0 q 756 7 760 0 q 749 25 751 14 q 745 44 747 32 q 742 74 743 56 l 726 331 l 717 331 q 657 332 679 331 q 592 335 604 335 l 581 335 q 568 311 568 335 q 567 92 568 139 q 563 39 567 81 q 539 0 560 7 l 518 -1 q 367 -8 410 -7 m 719 714 q 644 715 693 715 l 582 715 l 569 715 l 569 714 l 568 657 l 604 657 q 643 653 622 653 q 682 650 671 650 q 719 647 694 647 l 719 714 z "},"Ĥ":{"ha":1292,"x_min":78,"x_max":1215,"o":"m 367 -8 q 236 -6 279 -8 q 119 11 169 -3 q 108 28 114 11 q 104 47 104 40 l 78 553 l 78 581 q 79 615 78 590 q 81 682 81 640 l 83 754 q 85 796 83 782 q 88 876 85 838 q 88 894 88 889 q 89 900 89 899 q 99 908 92 901 q 113 918 107 914 q 153 931 126 931 l 233 931 l 256 931 q 307 929 269 929 q 372 928 347 929 l 436 928 l 488 928 l 508 928 q 557 917 544 928 q 574 868 574 904 l 574 854 q 572 843 574 849 q 571 832 571 838 l 568 810 l 567 793 q 569 782 567 788 q 571 768 571 776 q 569 714 571 731 l 568 657 l 604 657 q 643 653 622 653 q 682 650 671 650 q 719 647 694 647 l 721 742 q 722 778 722 754 l 724 835 l 724 846 q 725 885 724 868 q 731 910 726 903 q 750 921 739 921 q 789 924 758 924 l 826 925 q 893 928 867 925 l 972 928 q 1053 929 1028 928 q 1119 931 1101 929 l 1157 931 q 1201 922 1190 931 q 1213 906 1210 917 q 1215 876 1215 896 q 1213 731 1215 822 q 1207 588 1207 642 q 1210 574 1207 579 q 1211 565 1210 568 q 1213 560 1213 561 l 1178 32 q 1168 13 1178 25 q 1146 0 1156 0 l 764 0 q 756 7 760 0 q 749 25 751 14 q 745 44 747 32 q 742 74 743 56 l 726 331 l 717 331 q 657 332 679 331 q 592 335 604 335 l 581 335 q 568 311 568 335 q 567 92 568 139 q 563 39 567 81 q 539 0 560 7 l 518 -1 q 367 -8 410 -7 m 282 1022 q 267 1031 272 1022 q 263 1050 263 1039 l 263 1058 q 264 1067 263 1064 q 317 1203 274 1118 q 349 1269 326 1225 l 379 1338 l 421 1418 q 465 1497 432 1442 l 474 1508 l 539 1524 l 619 1524 l 672 1522 l 693 1522 l 708 1522 q 726 1519 714 1519 l 754 1519 l 796 1515 l 826 1497 l 886 1394 q 992 1179 963 1254 q 1028 1067 1017 1117 l 1029 1058 l 1029 1050 q 1008 1022 1029 1022 l 978 1022 l 944 1022 l 904 1022 l 853 1022 l 824 1022 q 804 1038 817 1022 q 751 1114 775 1075 q 728 1149 738 1136 q 646 1261 690 1196 q 574 1142 592 1169 l 556 1117 q 514 1060 528 1075 q 469 1022 481 1022 l 443 1022 l 414 1022 l 408 1026 l 401 1022 l 360 1022 q 346 1023 354 1022 q 324 1022 338 1024 l 282 1022 z "},"I":{"ha":667,"x_min":82,"x_max":589,"o":"m 122 -1 q 104 6 113 -1 q 92 26 96 14 q 83 82 86 51 q 82 108 82 92 l 82 126 l 83 299 q 88 471 83 386 l 88 910 q 106 924 88 924 q 249 925 201 924 l 388 925 q 394 926 392 925 q 401 928 397 928 q 451 929 419 931 q 501 925 475 929 q 514 922 510 919 q 525 925 517 922 q 558 922 546 925 q 576 910 569 919 q 588 879 583 897 q 589 821 589 865 l 589 550 l 589 529 q 588 479 588 518 q 585 414 588 438 l 583 351 q 582 299 582 331 l 581 276 l 581 188 q 574 46 581 104 q 564 7 574 26 q 492 4 539 7 q 463 1 469 4 l 449 1 l 444 1 q 435 4 435 1 q 422 7 424 7 l 411 1 l 283 1 q 261 0 282 0 l 208 0 l 157 0 l 122 -1 z "},"Ĳ":{"ha":1321,"x_min":82,"x_max":1254,"o":"m 122 290 q 92 311 101 290 q 83 349 86 325 q 82 368 82 356 l 82 381 l 83 501 q 88 624 83 564 l 88 931 q 93 940 88 938 q 111 942 99 942 l 249 942 l 388 942 l 401 943 q 451 944 419 946 q 501 942 483 944 q 514 939 506 939 q 519 940 517 939 q 525 942 522 942 q 559 940 549 942 q 576 931 569 938 q 588 910 585 918 q 589 868 589 900 l 589 679 l 589 664 q 588 629 588 654 q 585 583 588 599 l 583 539 q 582 501 582 522 l 581 486 l 581 424 q 574 325 581 364 q 564 297 574 310 l 492 296 q 463 293 481 293 l 449 293 l 444 293 q 435 296 435 293 l 422 297 q 416 294 419 296 q 411 293 413 293 l 283 293 q 261 292 282 292 l 208 292 l 157 292 l 122 290 m 774 -40 q 449 11 593 -40 l 372 39 q 371 46 371 40 q 374 76 371 54 q 379 104 376 96 q 382 133 379 114 q 386 182 382 157 q 390 203 386 190 q 393 210 393 210 q 533 178 485 183 q 643 168 592 168 q 697 178 679 168 q 724 208 714 189 q 736 240 733 226 q 741 256 739 249 q 744 268 743 263 q 746 317 746 281 q 750 421 746 357 q 751 500 751 449 q 753 535 751 519 q 754 564 754 551 l 754 624 l 751 910 q 769 924 751 924 l 914 925 l 1053 925 l 1189 925 q 1222 922 1210 925 q 1240 910 1233 919 q 1251 879 1249 901 q 1254 821 1254 865 l 1254 550 l 1254 539 l 1254 514 q 1253 497 1253 510 q 1251 481 1253 486 q 1250 449 1250 469 l 1250 421 l 1249 408 q 1247 315 1249 353 q 1236 240 1244 278 q 1158 90 1215 143 q 978 -11 1089 28 q 881 -33 918 -29 q 774 -40 821 -40 z "},"Í":{"ha":667,"x_min":82,"x_max":715,"o":"m 122 -1 q 104 6 113 -1 q 92 26 96 14 q 83 82 86 51 q 82 108 82 92 l 82 126 l 83 299 q 88 471 83 386 l 88 910 q 106 924 88 924 q 249 925 201 924 l 388 925 q 394 926 392 925 q 401 928 397 928 q 451 929 419 931 q 501 925 475 929 q 514 922 510 919 q 525 925 517 922 q 558 922 546 925 q 576 910 569 919 q 588 879 583 897 q 589 821 589 865 l 589 550 l 589 529 q 588 479 588 518 q 585 414 588 438 l 583 351 q 582 299 582 331 l 581 276 l 581 188 q 574 46 581 104 q 564 7 574 26 q 492 4 539 7 q 463 1 469 4 l 449 1 l 444 1 q 435 4 435 1 q 422 7 424 7 l 411 1 l 283 1 q 261 0 282 0 l 208 0 l 157 0 l 122 -1 m 243 1022 q 222 1033 228 1022 q 217 1064 217 1044 q 229 1210 217 1133 q 240 1282 238 1254 q 244 1313 242 1294 q 249 1356 247 1332 q 299 1571 268 1460 l 310 1579 l 369 1589 q 458 1592 432 1589 l 535 1593 l 543 1589 q 560 1592 547 1592 l 574 1592 q 576 1590 574 1592 q 581 1589 578 1589 l 589 1588 l 650 1585 l 658 1581 q 664 1582 664 1581 l 668 1582 q 706 1571 692 1576 q 715 1558 715 1568 q 713 1544 715 1556 l 697 1518 l 678 1485 l 657 1446 q 636 1411 643 1421 q 625 1393 629 1401 q 615 1378 621 1385 q 571 1293 593 1343 q 526 1206 554 1251 l 501 1154 q 449 1043 471 1083 q 425 1022 433 1022 l 400 1022 l 374 1022 l 365 1026 l 358 1022 l 318 1022 q 302 1023 311 1022 q 282 1022 293 1024 l 243 1022 z "},"Ĭ":{"ha":667,"x_min":-10,"x_max":678,"o":"m 122 -1 q 104 6 113 -1 q 92 26 96 14 q 83 82 86 51 q 82 108 82 92 l 82 126 l 83 299 q 88 471 83 386 l 88 910 q 106 924 88 924 q 249 925 201 924 l 388 925 q 394 926 392 925 q 401 928 397 928 q 451 929 419 931 q 501 925 475 929 q 514 922 510 919 q 525 925 517 922 q 558 922 546 925 q 576 910 569 919 q 588 879 583 897 q 589 821 589 865 l 589 550 l 589 529 q 588 479 588 518 q 585 414 588 438 l 583 351 q 582 299 582 331 l 581 276 l 581 188 q 574 46 581 104 q 564 7 574 26 q 492 4 539 7 q 463 1 469 4 l 449 1 l 444 1 q 435 4 435 1 q 422 7 424 7 l 411 1 l 283 1 q 261 0 282 0 l 208 0 l 157 0 l 122 -1 m 317 1013 q 197 1033 256 1013 q 90 1088 138 1053 q 17 1171 43 1122 q -10 1275 -10 1219 q 18 1392 -10 1335 l 235 1390 q 222 1294 222 1340 l 224 1265 q 225 1263 224 1265 q 228 1258 226 1261 q 283 1219 236 1238 q 347 1211 307 1211 q 421 1244 388 1211 q 450 1321 450 1274 q 439 1404 450 1364 l 664 1397 q 678 1297 678 1357 q 655 1204 678 1250 q 588 1106 632 1158 q 460 1029 540 1053 q 317 1013 404 1013 z "},"Î":{"ha":667,"x_min":-50,"x_max":717,"o":"m 122 -1 q 104 6 113 -1 q 92 26 96 14 q 83 82 86 51 q 82 108 82 92 l 82 126 l 83 299 q 88 471 83 386 l 88 910 q 106 924 88 924 q 249 925 201 924 l 388 925 q 394 926 392 925 q 401 928 397 928 q 451 929 419 931 q 501 925 475 929 q 514 922 510 919 q 525 925 517 922 q 558 922 546 925 q 576 910 569 919 q 588 879 583 897 q 589 821 589 865 l 589 550 l 589 529 q 588 479 588 518 q 585 414 588 438 l 583 351 q 582 299 582 331 l 581 276 l 581 188 q 574 46 581 104 q 564 7 574 26 q 492 4 539 7 q 463 1 469 4 l 449 1 l 444 1 q 435 4 435 1 q 422 7 424 7 l 411 1 l 283 1 q 261 0 282 0 l 208 0 l 157 0 l 122 -1 m -31 1022 q -45 1031 -40 1022 q -50 1050 -50 1039 l -50 1058 q -49 1067 -50 1064 q 4 1203 -39 1118 q 36 1269 14 1225 l 67 1338 l 108 1418 q 153 1497 119 1442 l 161 1508 l 226 1524 l 307 1524 l 360 1522 l 381 1522 l 396 1522 q 414 1519 401 1519 l 442 1519 l 483 1515 l 514 1497 l 574 1394 q 679 1179 650 1254 q 715 1067 704 1117 l 717 1058 l 717 1050 q 696 1022 717 1022 l 665 1022 l 632 1022 l 592 1022 l 540 1022 l 511 1022 q 492 1038 504 1022 q 439 1114 463 1075 q 415 1149 425 1136 q 333 1261 378 1196 q 261 1142 279 1169 l 243 1117 q 201 1060 215 1075 q 157 1022 168 1022 l 131 1022 l 101 1022 l 96 1026 l 89 1022 l 47 1022 q 33 1023 42 1022 q 11 1022 25 1024 l -31 1022 z "},"Ȉ":{"ha":667,"x_min":-275,"x_max":706,"o":"m 122 -1 q 104 6 113 -1 q 92 26 96 14 q 83 82 86 51 q 82 108 82 92 l 82 126 l 83 299 q 88 471 83 386 l 88 910 q 106 924 88 924 q 249 925 201 924 l 388 925 q 394 926 392 925 q 401 928 397 928 q 451 929 419 931 q 501 925 475 929 q 514 922 510 919 q 525 925 517 922 q 558 922 546 925 q 576 910 569 919 q 588 879 583 897 q 589 821 589 865 l 589 550 l 589 529 q 588 479 588 518 q 585 414 588 438 l 583 351 q 582 299 582 331 l 581 276 l 581 188 q 574 46 581 104 q 564 7 574 26 q 492 4 539 7 q 463 1 469 4 l 449 1 l 444 1 q 435 4 435 1 q 422 7 424 7 l 411 1 l 283 1 q 261 0 282 0 l 208 0 l 157 0 l 122 -1 m 42 1022 l 15 1022 q -7 1043 6 1022 q -61 1154 -29 1079 l -86 1206 q -131 1293 -92 1217 q -175 1378 -149 1339 q -194 1411 -186 1394 l -215 1446 q -226 1466 -219 1454 q -237 1485 -232 1478 q -271 1544 -250 1501 q -275 1557 -275 1553 q -265 1571 -275 1565 q -228 1582 -257 1575 l -224 1582 q -220 1581 -222 1581 q -218 1581 -218 1581 l -208 1585 l -149 1588 l -139 1589 q -135 1590 -136 1589 q -132 1592 -133 1592 l -118 1592 q -103 1589 -107 1592 l -93 1593 l -17 1592 q 71 1589 8 1589 l 131 1579 l 143 1571 q 192 1356 169 1476 l 201 1282 l 213 1210 l 217 1163 q 224 1064 224 1107 q 219 1033 224 1044 q 199 1022 214 1022 l 160 1022 l 122 1022 l 82 1022 l 76 1026 l 67 1022 l 42 1022 m 497 1022 l 471 1022 q 451 1043 460 1022 q 417 1154 431 1104 q 401 1206 406 1194 q 383 1258 390 1232 q 372 1293 375 1285 q 344 1378 357 1351 q 331 1411 335 1393 q 314 1446 325 1421 q 306 1465 311 1454 q 297 1485 300 1476 q 286 1515 288 1511 q 278 1533 281 1526 q 275 1544 276 1540 q 274 1554 274 1549 q 286 1571 274 1565 q 325 1582 297 1575 l 331 1582 q 335 1581 331 1581 l 346 1585 l 407 1588 l 414 1589 q 419 1590 417 1589 q 424 1592 422 1592 l 438 1592 q 451 1589 449 1592 l 463 1593 l 536 1592 q 625 1589 563 1589 l 685 1579 l 693 1571 q 706 1356 700 1489 q 701 1282 701 1318 q 700 1210 701 1233 q 686 1064 699 1150 q 653 1022 683 1022 l 615 1022 l 578 1022 l 539 1022 l 533 1026 l 522 1022 l 497 1022 z "},"Ï":{"ha":667,"x_min":-43,"x_max":710,"o":"m 122 -1 q 104 6 113 -1 q 92 26 96 14 q 83 82 86 51 q 82 108 82 92 l 82 126 l 83 299 q 88 471 83 386 l 88 910 q 106 924 88 924 q 249 925 201 924 l 388 925 q 394 926 392 925 q 401 928 397 928 q 451 929 419 931 q 501 925 475 929 q 514 922 510 919 q 525 925 517 922 q 558 922 546 925 q 576 910 569 919 q 588 879 583 897 q 589 821 589 865 l 589 550 l 589 529 q 588 479 588 518 q 585 414 588 438 l 583 351 q 582 299 582 331 l 581 276 l 581 188 q 574 46 581 104 q 564 7 574 26 q 492 4 539 7 q 463 1 469 4 l 449 1 l 444 1 q 435 4 435 1 q 422 7 424 7 l 411 1 l 283 1 q 261 0 282 0 l 208 0 l 157 0 l 122 -1 m -31 1079 l -40 1124 l -40 1164 l -42 1192 l -43 1200 q -37 1218 -43 1211 l -33 1261 l -33 1265 l -35 1272 q -19 1304 -29 1289 q 6 1311 -12 1311 l 150 1311 q 199 1315 185 1315 q 217 1314 213 1315 q 225 1313 221 1314 q 235 1311 229 1311 l 244 1311 q 249 1313 247 1311 q 254 1314 251 1314 l 258 1314 q 275 1279 275 1314 l 275 1251 q 272 1224 272 1240 q 273 1219 272 1222 q 275 1214 274 1217 l 275 1200 l 275 1183 l 275 1169 l 275 1140 q 276 1108 276 1129 q 271 1083 276 1094 q 254 1071 265 1072 l -22 1071 l -31 1079 m 401 1079 l 393 1124 l 393 1164 q 389 1200 393 1186 l 389 1207 q 388 1218 388 1210 q 387 1237 388 1224 q 386 1275 386 1250 q 387 1278 386 1276 q 386 1281 388 1279 l 386 1286 q 394 1297 389 1289 q 404 1307 399 1304 q 439 1311 419 1311 l 583 1311 q 631 1315 621 1315 q 650 1314 644 1315 q 657 1313 653 1314 q 668 1311 661 1311 l 678 1311 q 683 1313 681 1311 q 688 1314 685 1314 l 692 1314 q 704 1305 701 1314 q 707 1279 707 1296 l 707 1261 l 706 1224 q 706 1219 706 1222 q 707 1214 706 1217 l 707 1200 l 707 1183 l 707 1169 l 706 1154 l 706 1140 q 707 1126 706 1129 q 710 1108 710 1115 q 688 1071 710 1072 l 483 1071 l 401 1079 z "},"İ":{"ha":667,"x_min":82,"x_max":589,"o":"m 122 -1 q 104 6 113 -1 q 92 26 96 14 q 83 82 86 51 q 82 108 82 92 l 82 126 l 83 299 q 88 471 83 386 l 88 910 q 106 924 88 924 q 249 925 201 924 l 388 925 q 394 926 392 925 q 401 928 397 928 q 451 929 419 931 q 501 925 475 929 q 514 922 510 919 q 525 925 517 922 q 558 922 546 925 q 576 910 569 919 q 588 879 583 897 q 589 821 589 865 l 589 550 l 589 529 q 588 479 588 518 q 585 414 588 438 l 583 351 q 582 299 582 331 l 581 276 l 581 188 q 574 46 581 104 q 564 7 574 26 q 492 4 539 7 q 463 1 469 4 l 449 1 l 444 1 q 435 4 435 1 q 422 7 424 7 l 411 1 l 283 1 q 261 0 282 0 l 208 0 l 157 0 l 122 -1 m 331 1022 q 307 1024 317 1022 q 282 1026 293 1026 l 164 1036 l 154 1046 q 151 1113 151 1060 q 157 1228 151 1176 q 160 1282 157 1249 l 161 1322 q 200 1343 164 1343 q 251 1342 236 1343 q 276 1340 264 1342 q 303 1339 289 1339 q 339 1342 326 1339 l 382 1342 l 396 1342 l 414 1342 l 428 1342 l 439 1342 l 458 1342 q 478 1343 465 1343 q 514 1325 514 1343 l 514 1322 q 511 1300 511 1314 l 511 1288 l 511 1267 q 512 1251 511 1261 q 513 1218 513 1240 l 513 1074 q 510 1066 511 1069 q 507 1057 508 1063 q 492 1036 503 1042 q 484 1035 489 1036 q 472 1033 479 1033 q 469 1036 469 1033 l 463 1036 l 463 1036 l 453 1032 l 421 1029 q 415 1028 418 1029 q 410 1026 413 1026 l 400 1024 q 388 1026 399 1024 q 382 1028 385 1026 q 376 1029 379 1029 q 374 1026 374 1029 l 365 1022 l 331 1022 z "},"Ị":{"ha":667,"x_min":82,"x_max":589,"o":"m 122 -1 q 104 6 113 -1 q 92 26 96 14 q 83 82 86 51 q 82 108 82 92 l 82 126 l 83 299 q 88 471 83 386 l 88 910 q 106 924 88 924 q 249 925 201 924 l 388 925 q 394 926 392 925 q 401 928 397 928 q 451 929 419 931 q 501 925 475 929 q 514 922 510 919 q 525 925 517 922 q 558 922 546 925 q 576 910 569 919 q 588 879 583 897 q 589 821 589 865 l 589 550 l 589 529 q 588 479 588 518 q 585 414 588 438 l 583 351 q 582 299 582 331 l 581 276 l 581 188 q 574 46 581 104 q 564 7 574 26 q 492 4 539 7 q 463 1 469 4 l 449 1 l 444 1 q 435 4 435 1 q 422 7 424 7 l 411 1 l 283 1 q 261 0 282 0 l 208 0 l 157 0 l 122 -1 m 313 -381 q 293 -379 307 -379 l 203 -369 l 196 -362 q 194 -312 194 -353 q 199 -226 194 -271 l 201 -186 l 201 -157 q 231 -140 203 -140 l 271 -140 q 310 -143 283 -143 l 335 -143 q 368 -140 346 -140 l 379 -140 l 390 -140 l 403 -140 q 411 -143 407 -143 q 425 -140 421 -143 l 439 -140 q 467 -153 467 -140 l 467 -157 q 465 -172 465 -164 l 465 -182 l 465 -199 l 465 -235 l 465 -342 q 463 -354 465 -349 q 450 -369 458 -368 q 436 -374 447 -374 l 432 -372 l 429 -372 l 429 -372 l 422 -374 l 396 -376 l 389 -379 l 381 -381 l 372 -379 q 368 -378 369 -379 q 365 -376 367 -376 q 361 -379 361 -376 l 354 -381 l 331 -381 l 313 -381 z "},"Ì":{"ha":667,"x_min":-56,"x_max":589,"o":"m 122 -1 q 104 6 113 -1 q 92 26 96 14 q 83 82 86 51 q 82 108 82 92 l 82 126 l 83 299 q 88 471 83 386 l 88 910 q 106 924 88 924 q 249 925 201 924 l 388 925 q 394 926 392 925 q 401 928 397 928 q 451 929 419 931 q 501 925 475 929 q 514 922 510 919 q 525 925 517 922 q 558 922 546 925 q 576 910 569 919 q 588 879 583 897 q 589 821 589 865 l 589 550 l 589 529 q 588 479 588 518 q 585 414 588 438 l 583 351 q 582 299 582 331 l 581 276 l 581 188 q 574 46 581 104 q 564 7 574 26 q 492 4 539 7 q 463 1 469 4 l 449 1 l 444 1 q 435 4 435 1 q 422 7 424 7 l 411 1 l 283 1 q 261 0 282 0 l 208 0 l 157 0 l 122 -1 m 261 1022 l 233 1022 q 210 1043 224 1022 q 157 1144 183 1082 q 145 1167 151 1154 q 132 1192 139 1179 q 99 1260 119 1211 l 88 1286 l 76 1313 q 65 1339 74 1318 q 43 1378 56 1360 l 25 1411 q 4 1446 18 1421 q -37 1518 -32 1506 q -51 1544 -50 1539 q -56 1558 -56 1553 q -47 1571 -56 1567 q -10 1582 -40 1575 l -3 1582 q 0 1581 -3 1581 l 11 1585 l 69 1588 l 78 1589 q 83 1590 81 1589 q 88 1592 86 1592 l 101 1592 q 115 1589 111 1592 l 124 1593 l 200 1592 q 289 1589 226 1589 l 349 1579 l 360 1571 q 410 1356 390 1460 q 418 1282 411 1321 q 439 1135 436 1194 q 442 1064 442 1113 q 437 1033 442 1044 q 415 1022 432 1022 l 379 1022 l 340 1022 l 300 1022 l 296 1026 l 285 1022 l 261 1022 z "},"Ỉ":{"ha":667,"x_min":82,"x_max":589,"o":"m 122 -1 q 104 6 113 -1 q 92 26 96 14 q 83 82 86 51 q 82 108 82 92 l 82 126 l 83 299 q 88 471 83 386 l 88 910 q 106 924 88 924 q 249 925 201 924 l 388 925 q 394 926 392 925 q 401 928 397 928 q 451 929 419 931 q 501 925 475 929 q 514 922 510 919 q 525 925 517 922 q 558 922 546 925 q 576 910 569 919 q 588 879 583 897 q 589 821 589 865 l 589 550 l 589 529 q 588 479 588 518 q 585 414 588 438 l 583 351 q 582 299 582 331 l 581 276 l 581 188 q 574 46 581 104 q 564 7 574 26 q 492 4 539 7 q 463 1 469 4 l 449 1 l 444 1 q 435 4 435 1 q 422 7 424 7 l 411 1 l 283 1 q 261 0 282 0 l 208 0 l 157 0 l 122 -1 m 290 1067 q 268 1082 274 1067 q 264 1122 264 1093 q 276 1172 264 1151 q 326 1219 289 1193 q 356 1254 356 1240 q 297 1274 356 1274 q 235 1269 253 1274 q 213 1265 217 1265 q 206 1276 206 1265 q 210 1357 206 1315 q 212 1369 211 1364 q 214 1378 213 1375 q 219 1386 215 1383 q 228 1390 224 1389 q 233 1390 232 1390 q 358 1399 294 1399 q 494 1374 440 1399 q 547 1294 547 1349 q 464 1175 547 1224 q 415 1141 429 1154 q 401 1110 401 1128 l 400 1079 q 390 1067 400 1067 l 383 1067 l 347 1068 q 328 1067 340 1068 q 290 1067 315 1067 z "},"Ȋ":{"ha":667,"x_min":-6,"x_max":682,"o":"m 122 -1 q 104 6 113 -1 q 92 26 96 14 q 83 82 86 51 q 82 108 82 92 l 82 126 l 83 299 q 88 471 83 386 l 88 910 q 106 924 88 924 q 249 925 201 924 l 388 925 q 394 926 392 925 q 401 928 397 928 q 451 929 419 931 q 501 925 475 929 q 514 922 510 919 q 525 925 517 922 q 558 922 546 925 q 576 910 569 919 q 588 879 583 897 q 589 821 589 865 l 589 550 l 589 529 q 588 479 588 518 q 585 414 588 438 l 583 351 q 582 299 582 331 l 581 276 l 581 188 q 574 46 581 104 q 564 7 574 26 q 492 4 539 7 q 463 1 469 4 l 449 1 l 444 1 q 435 4 435 1 q 422 7 424 7 l 411 1 l 283 1 q 261 0 282 0 l 208 0 l 157 0 l 122 -1 m 7 1017 q -6 1117 -6 1054 q 85 1310 -6 1206 q 213 1386 133 1364 q 354 1401 261 1401 q 475 1382 417 1401 q 581 1328 533 1363 q 655 1243 628 1292 q 682 1140 682 1194 q 653 1022 682 1085 l 436 1024 q 449 1119 449 1076 l 449 1149 q 447 1151 449 1149 q 443 1157 444 1153 q 388 1196 435 1176 q 324 1203 363 1203 q 251 1171 283 1203 q 221 1094 221 1138 q 233 1011 221 1054 l 7 1017 z "},"Ī":{"ha":667,"x_min":39,"x_max":624,"o":"m 122 -1 q 104 6 113 -1 q 92 26 96 14 q 83 82 86 51 q 82 108 82 92 l 82 126 l 83 299 q 88 471 83 386 l 88 910 q 106 924 88 924 q 249 925 201 924 l 388 925 q 394 926 392 925 q 401 928 397 928 q 451 929 419 931 q 501 925 475 929 q 514 922 510 919 q 525 925 517 922 q 558 922 546 925 q 576 910 569 919 q 588 879 583 897 q 589 821 589 865 l 589 550 l 589 529 q 588 479 588 518 q 585 414 588 438 l 583 351 q 582 299 582 331 l 581 276 l 581 188 q 574 46 581 104 q 564 7 574 26 q 492 4 539 7 q 463 1 469 4 l 449 1 l 444 1 q 435 4 435 1 q 422 7 424 7 l 411 1 l 283 1 q 261 0 282 0 l 208 0 l 157 0 l 122 -1 m 543 1064 q 507 1065 529 1065 l 476 1067 l 442 1067 l 428 1068 l 400 1068 q 383 1067 394 1068 q 365 1068 372 1067 q 331 1071 351 1071 l 300 1071 l 286 1071 l 147 1071 l 108 1071 q 72 1074 86 1071 q 50 1085 58 1076 q 40 1106 40 1092 l 40 1156 l 40 1197 l 40 1238 q 39 1286 39 1251 q 50 1308 39 1300 q 58 1315 51 1310 q 74 1321 65 1321 l 226 1321 l 257 1321 q 331 1318 275 1321 l 386 1317 q 511 1314 483 1314 l 543 1314 q 594 1307 571 1314 q 619 1279 619 1300 q 621 1245 619 1258 q 622 1224 622 1232 l 622 1210 q 624 1172 622 1189 l 624 1140 q 618 1092 624 1110 q 590 1064 614 1064 l 543 1064 z "},"Į":{"ha":667,"x_min":67,"x_max":589,"o":"m 588 879 q 589 821 589 865 l 589 550 l 589 529 q 588 479 588 518 q 585 414 588 438 l 583 351 q 582 299 582 331 l 581 276 l 581 188 q 574 46 581 104 q 564 7 574 26 q 492 4 539 7 l 482 4 l 433 -46 q 401 -81 414 -62 q 369 -125 383 -101 q 351 -175 351 -158 q 360 -206 351 -196 q 383 -219 368 -215 q 395 -224 386 -221 q 413 -224 404 -226 q 440 -222 422 -222 q 561 -199 497 -222 q 571 -212 571 -203 l 571 -219 l 547 -333 q 535 -345 546 -339 q 511 -358 525 -351 q 446 -376 469 -374 q 429 -379 436 -379 q 418 -381 422 -379 l 404 -383 q 172 -351 253 -383 q 74 -271 96 -324 q 67 -226 67 -251 q 100 -117 67 -164 q 182 -46 124 -85 q 208 -27 192 -36 q 231 -14 224 -18 l 251 0 l 208 0 l 157 0 l 122 -1 q 104 6 113 -1 q 92 26 96 14 q 83 82 86 51 q 82 108 82 92 l 82 126 l 83 299 q 88 471 83 386 l 88 910 q 106 924 88 924 q 249 925 201 924 l 388 925 q 394 926 392 925 q 401 928 397 928 q 451 929 419 931 q 501 925 475 929 q 514 922 510 919 q 525 925 517 922 q 558 922 546 925 q 576 910 569 919 q 588 879 583 897 z "},"Ĩ":{"ha":667,"x_min":82,"x_max":589,"o":"m 122 -1 q 104 6 113 -1 q 92 26 96 14 q 83 82 86 51 q 82 108 82 92 l 82 126 l 83 299 q 88 471 83 386 l 88 910 q 106 924 88 924 q 249 925 201 924 l 388 925 q 394 926 392 925 q 401 928 397 928 q 451 929 419 931 q 501 925 475 929 q 514 922 510 919 q 525 925 517 922 q 558 922 546 925 q 576 910 569 919 q 588 879 583 897 q 589 821 589 865 l 589 550 l 589 529 q 588 479 588 518 q 585 414 588 438 l 583 351 q 582 299 582 331 l 581 276 l 581 188 q 574 46 581 104 q 564 7 574 26 q 492 4 539 7 q 463 1 469 4 l 449 1 l 444 1 q 435 4 435 1 q 422 7 424 7 l 411 1 l 283 1 q 261 0 282 0 l 208 0 l 157 0 l 122 -1 m 422 1010 q 340 1033 375 1010 q 327 1043 338 1036 q 311 1057 317 1050 q 263 1100 288 1088 q 236 1106 249 1106 q 219 1086 225 1106 q 215 1065 215 1076 q 215 1049 215 1060 q 210 1033 214 1038 q 206 1033 207 1032 q 125 1038 139 1033 q 108 1043 114 1040 q 101 1051 103 1046 q 96 1064 99 1054 q 94 1071 94 1067 q 92 1082 93 1075 q 99 1157 92 1111 q 139 1231 108 1204 q 251 1261 175 1261 q 279 1254 261 1261 q 303 1246 297 1247 q 351 1211 342 1233 q 360 1199 353 1206 q 372 1183 365 1193 q 383 1171 378 1174 q 400 1165 392 1165 q 424 1183 424 1165 q 415 1217 424 1199 l 401 1242 q 414 1249 401 1249 l 418 1249 l 549 1251 q 561 1238 557 1246 q 576 1172 575 1211 l 578 1142 q 568 1099 578 1115 q 508 1033 550 1061 q 464 1015 490 1022 q 422 1010 450 1010 z "},"J":{"ha":911,"x_min":31,"x_max":844,"o":"m 469 -33 q 361 -40 410 -40 q 94 11 215 -40 l 32 39 q 31 46 31 40 l 33 76 q 39 104 36 96 q 40 133 39 124 q 46 182 40 160 q 47 203 46 199 q 49 210 49 207 q 50 210 50 213 q 164 178 124 183 q 275 168 213 168 q 318 208 303 168 q 328 240 322 215 q 335 268 335 268 q 336 321 336 282 q 339 421 336 381 q 340 500 340 449 l 342 564 l 342 624 l 340 910 q 345 921 340 918 q 360 924 350 924 l 504 925 l 643 925 l 778 925 q 810 922 799 925 q 831 910 822 919 q 840 879 839 896 q 844 821 844 838 l 844 550 l 844 539 q 843 528 843 536 q 842 514 843 519 q 841 497 840 506 q 840 481 842 489 q 839 449 839 469 l 839 421 l 838 408 q 835 315 838 353 q 825 240 833 278 q 747 90 804 143 q 567 -11 681 29 q 469 -33 507 -28 z "},"Ĵ":{"ha":911,"x_min":31,"x_max":844,"o":"m 469 -33 q 361 -40 410 -40 q 94 11 215 -40 l 32 39 q 31 46 31 40 l 33 76 q 39 104 36 96 q 40 133 39 124 q 46 182 40 160 q 47 203 46 199 q 49 210 49 207 q 50 210 50 213 q 164 178 124 183 q 275 168 213 168 q 318 208 303 168 q 328 240 322 215 q 335 268 335 268 q 336 321 336 282 q 339 421 336 381 q 340 500 340 449 l 342 564 l 342 624 l 340 910 q 345 921 340 918 q 360 924 350 924 l 504 925 l 643 925 l 778 925 q 810 922 799 925 q 831 910 822 919 q 840 879 839 896 q 844 821 844 838 l 844 550 l 844 539 q 843 528 843 536 q 842 514 843 519 q 841 497 840 506 q 840 481 842 489 q 839 449 839 469 l 839 421 l 838 408 q 835 315 838 353 q 825 240 833 278 q 747 90 804 143 q 567 -11 681 29 q 469 -33 507 -28 m 81 1022 q 66 1031 71 1022 q 61 1050 61 1039 l 61 1058 q 63 1067 61 1064 q 115 1203 72 1118 q 147 1269 125 1225 l 178 1338 l 219 1418 q 264 1497 231 1442 l 272 1508 l 338 1524 l 418 1524 l 471 1522 l 492 1522 l 507 1522 q 525 1519 513 1519 l 553 1519 l 594 1515 l 625 1497 l 685 1394 q 790 1179 761 1254 q 826 1067 815 1117 l 828 1058 l 828 1050 q 807 1022 828 1022 l 776 1022 l 743 1022 l 703 1022 l 651 1022 l 622 1022 q 603 1038 615 1022 q 550 1114 574 1075 q 526 1149 536 1136 q 444 1261 489 1196 q 372 1142 390 1169 l 354 1117 q 313 1060 326 1075 q 268 1022 279 1022 l 242 1022 l 213 1022 l 207 1026 l 200 1022 l 158 1022 q 144 1023 153 1022 q 122 1022 136 1024 l 81 1022 z "},"K":{"ha":1186,"x_min":74,"x_max":1138,"o":"m 797 -11 q 789 0 789 -1 l 643 168 q 629 185 639 172 q 611 206 619 197 l 590 226 q 578 233 581 233 q 569 230 572 233 q 567 222 567 226 l 567 203 l 567 172 q 564 138 567 150 l 564 101 q 563 71 563 89 l 563 53 l 563 32 l 563 26 q 553 11 563 13 q 532 8 546 6 q 428 6 460 6 l 250 7 l 226 7 l 199 7 q 174 8 181 7 l 164 8 l 101 14 l 97 25 q 96 40 96 25 q 94 81 96 64 l 94 136 q 92 199 92 157 l 89 306 q 82 410 88 340 l 81 444 q 78 514 78 492 l 78 528 q 81 553 81 536 q 82 594 82 571 l 81 622 q 79 638 81 632 q 78 647 78 644 q 79 664 78 650 q 81 692 81 678 q 82 733 82 708 l 82 754 l 82 782 q 81 851 81 806 q 78 879 78 861 l 78 893 q 111 931 74 925 q 143 935 122 935 l 174 935 l 328 935 l 442 935 l 515 935 l 560 935 q 583 911 579 935 q 585 893 585 907 l 585 872 q 582 768 585 838 l 581 731 q 578 681 578 694 q 608 689 594 681 q 618 699 618 699 q 624 703 621 700 q 631 710 628 707 q 657 733 636 713 q 771 840 692 768 q 890 946 847 913 q 924 965 917 964 q 933 958 926 965 q 943 949 940 951 q 956 936 943 949 q 963 928 958 929 l 971 918 q 988 901 983 908 l 1004 886 q 1011 878 1008 882 q 1015 874 1014 875 q 1060 814 1024 860 q 1101 751 1088 782 l 1101 749 q 1063 688 1101 729 l 1032 657 q 1008 633 1015 642 q 1004 631 1007 633 q 997 624 1001 628 l 942 581 q 914 553 942 581 l 889 533 q 878 526 886 532 q 865 518 871 519 q 856 512 861 515 q 849 506 850 508 q 846 493 846 504 q 868 451 846 471 q 888 435 878 440 l 907 418 q 936 389 936 389 q 1036 299 964 365 q 1124 208 1092 249 q 1138 178 1138 188 q 1135 164 1138 169 q 1126 151 1133 158 q 1075 117 1099 128 q 1029 85 1051 104 q 986 49 1007 67 q 944 18 968 32 l 917 4 q 904 -4 917 4 q 886 -18 892 -12 q 843 -31 865 -31 q 817 -25 831 -31 l 797 -11 z "},"Ķ":{"ha":1186,"x_min":78,"x_max":1138,"o":"m 797 -11 q 789 0 789 -1 l 643 168 q 629 185 639 172 q 611 206 619 197 l 590 226 q 578 233 581 233 q 569 230 572 233 q 567 222 567 226 l 567 203 l 567 172 q 564 138 567 150 l 564 101 q 563 71 563 89 l 563 53 l 563 32 l 563 26 q 553 11 563 13 q 532 8 546 6 q 428 6 460 6 l 250 7 l 226 7 l 199 7 q 174 8 181 7 l 164 8 l 101 14 l 97 25 q 96 40 96 25 q 94 81 96 64 l 94 136 q 92 199 92 157 l 89 306 q 82 410 88 340 l 81 444 q 78 514 78 492 l 78 528 q 81 553 81 536 q 82 594 82 571 l 81 622 q 79 638 81 632 q 78 647 78 644 q 79 664 78 650 q 81 692 81 678 q 82 733 82 708 l 82 754 l 82 782 q 81 851 81 806 q 78 879 78 861 l 78 893 q 111 931 74 925 q 143 935 122 935 l 174 935 l 328 935 l 442 935 l 515 935 l 560 935 q 583 911 579 935 q 585 893 585 907 l 585 872 q 582 768 585 838 l 581 731 q 578 681 578 694 q 608 689 594 681 q 618 699 618 699 q 624 703 621 700 q 631 710 628 707 q 657 733 636 713 q 771 840 692 768 q 890 946 847 913 q 924 965 917 964 q 933 958 926 965 q 943 949 940 951 q 956 936 943 949 q 963 928 958 929 l 971 918 q 988 901 983 908 l 1004 886 q 1011 878 1008 882 q 1015 874 1014 875 q 1060 814 1024 860 q 1101 751 1088 782 l 1101 749 q 1063 688 1101 729 l 1032 657 q 1008 633 1015 642 q 1004 631 1007 633 q 997 624 1001 628 l 942 581 q 914 553 942 581 l 889 533 q 878 526 886 532 q 865 518 871 519 q 856 512 861 515 q 849 506 850 508 q 846 493 846 504 q 868 451 846 471 q 888 435 878 440 l 907 418 q 936 389 936 389 q 1036 299 964 365 q 1124 208 1092 249 q 1138 178 1138 188 q 1135 164 1138 169 q 1126 151 1133 158 q 1075 117 1099 128 q 1029 85 1051 104 q 986 49 1007 67 q 944 18 968 32 l 917 4 q 904 -4 917 4 q 886 -18 892 -12 q 843 -31 865 -31 q 817 -25 831 -31 l 797 -11 m 468 -521 q 452 -495 463 -511 q 439 -462 442 -479 q 433 -422 433 -436 q 432 -400 432 -407 q 540 -356 506 -390 q 561 -324 556 -337 q 564 -314 564 -315 q 560 -309 564 -310 q 551 -309 557 -308 q 540 -310 546 -310 q 508 -307 531 -307 q 439 -303 471 -307 q 413 -297 429 -303 q 406 -294 408 -296 q 401 -290 403 -292 q 393 -192 394 -225 q 392 -149 393 -162 q 390 -94 392 -107 l 399 -87 l 464 -81 q 524 -75 506 -75 l 585 -75 l 599 -78 q 626 -81 603 -81 q 635 -78 628 -78 q 683 -81 658 -78 q 732 -87 717 -85 q 735 -86 733 -87 q 738 -85 736 -85 l 740 -85 q 756 -89 746 -86 q 769 -94 767 -92 q 776 -104 775 -100 q 776 -115 776 -108 q 778 -120 776 -117 q 781 -132 779 -124 q 783 -164 781 -139 q 788 -192 785 -178 q 790 -217 790 -206 q 797 -282 797 -262 q 796 -310 797 -300 q 746 -429 786 -382 q 629 -494 715 -467 q 468 -521 543 -521 z "},"L":{"ha":868,"x_min":82,"x_max":831,"o":"m 532 0 q 324 1 389 0 q 232 3 264 1 l 118 4 q 94 15 106 4 q 83 39 83 26 l 83 344 l 83 478 l 82 592 q 85 735 82 649 q 89 828 85 753 l 89 860 q 104 922 89 899 q 126 935 111 935 q 275 932 194 935 q 307 931 286 931 q 375 929 353 931 l 450 929 q 483 929 456 929 q 525 922 510 929 q 550 858 550 908 l 549 847 q 546 826 549 843 q 542 796 542 806 q 546 757 542 781 q 549 735 549 740 l 550 726 l 550 532 l 550 442 l 550 356 l 550 339 q 563 325 550 328 q 581 324 567 324 l 682 324 q 796 325 719 325 q 821 316 811 325 q 831 297 831 307 l 831 32 l 831 29 q 819 11 831 18 q 790 4 807 6 q 733 0 772 0 l 532 0 z "},"Ǉ":{"ha":1751,"x_min":82,"x_max":1685,"o":"m 532 0 q 324 1 389 0 q 232 3 264 1 l 118 4 q 94 15 106 4 q 83 39 83 26 l 83 344 l 83 478 l 82 592 q 85 735 82 649 q 89 828 85 753 l 89 860 q 104 922 89 899 q 126 935 111 935 q 275 932 194 935 q 307 931 286 931 q 375 929 353 931 l 450 929 q 483 929 456 929 q 525 922 510 929 q 550 858 550 908 l 549 847 q 546 826 549 843 q 542 796 542 806 q 546 757 542 781 q 549 735 549 740 l 550 726 l 550 532 l 550 442 l 550 356 l 550 339 q 563 325 550 328 q 581 324 567 324 l 682 324 q 796 325 719 325 q 821 316 811 325 q 831 297 831 307 l 831 32 l 831 29 q 819 11 831 18 q 790 4 807 6 q 733 0 772 0 l 532 0 m 1310 -33 q 1201 -40 1250 -40 q 935 11 1056 -40 l 872 39 q 871 46 871 40 l 874 76 q 879 104 876 96 q 881 133 879 124 q 886 182 881 160 q 888 203 886 199 q 890 210 889 207 q 890 210 890 213 q 1004 178 964 183 q 1115 168 1053 168 q 1158 208 1143 168 q 1168 240 1163 215 q 1175 268 1175 268 q 1176 321 1176 282 q 1179 421 1176 381 q 1181 500 1181 449 l 1182 564 l 1182 624 l 1181 910 q 1185 921 1181 918 q 1200 924 1190 924 l 1344 925 l 1483 925 l 1618 925 q 1651 922 1639 925 q 1671 910 1663 919 q 1681 879 1679 896 q 1685 821 1685 838 l 1685 550 l 1685 539 q 1683 528 1683 536 q 1682 514 1683 519 q 1681 497 1681 506 q 1681 481 1682 489 q 1679 449 1679 469 l 1679 421 l 1678 408 q 1676 315 1678 353 q 1665 240 1674 278 q 1588 90 1644 143 q 1407 -11 1521 29 q 1310 -33 1347 -28 z "},"Ĺ":{"ha":868,"x_min":82,"x_max":831,"o":"m 532 0 q 324 1 389 0 q 232 3 264 1 l 118 4 q 94 15 106 4 q 83 39 83 26 l 83 344 l 83 478 l 82 592 q 85 735 82 649 q 89 828 85 753 l 89 860 q 104 922 89 899 q 126 935 111 935 q 275 932 194 935 q 307 931 286 931 q 375 929 353 931 l 450 929 q 483 929 456 929 q 525 922 510 929 q 550 858 550 908 l 549 847 q 546 826 549 843 q 542 796 542 806 q 546 757 542 781 q 549 735 549 740 l 550 726 l 550 532 l 550 442 l 550 356 l 550 339 q 563 325 550 328 q 581 324 567 324 l 682 324 q 796 325 719 325 q 821 316 811 325 q 831 297 831 307 l 831 32 l 831 29 q 819 11 831 18 q 790 4 807 6 q 733 0 772 0 l 532 0 m 226 1022 q 206 1033 211 1022 q 200 1064 200 1044 q 213 1210 200 1133 q 224 1282 221 1254 q 228 1313 225 1294 q 232 1356 231 1332 q 282 1571 251 1460 l 293 1579 l 353 1589 q 442 1592 415 1589 l 518 1593 l 526 1589 q 543 1592 531 1592 l 557 1592 q 559 1590 557 1592 q 564 1589 561 1589 l 572 1588 l 633 1585 l 642 1581 q 647 1582 647 1581 l 651 1582 q 689 1571 675 1576 q 699 1558 699 1568 q 696 1544 699 1556 l 681 1518 l 661 1485 l 640 1446 q 619 1411 626 1421 q 608 1393 613 1401 q 599 1378 604 1385 q 554 1293 576 1343 q 510 1206 538 1251 l 485 1154 q 432 1043 454 1083 q 408 1022 417 1022 l 383 1022 l 357 1022 l 349 1026 l 342 1022 l 301 1022 q 285 1023 294 1022 q 265 1022 276 1024 l 226 1022 z "},"Ľ":{"ha":868,"x_min":82,"x_max":844,"o":"m 532 0 q 324 1 389 0 q 232 3 264 1 l 118 4 q 94 15 106 4 q 83 39 83 26 l 83 344 l 83 478 l 82 592 q 85 735 82 649 q 89 828 85 753 l 89 860 q 104 922 89 899 q 126 935 111 935 q 275 932 194 935 q 307 931 286 931 q 375 929 353 931 l 450 929 q 483 929 456 929 q 525 922 510 929 q 550 858 550 908 l 549 847 q 546 826 549 843 q 542 796 542 806 q 546 757 542 781 q 549 735 549 740 l 550 726 l 550 532 l 550 442 l 550 356 l 550 339 q 563 325 550 328 q 581 324 567 324 l 682 324 q 796 325 719 325 q 821 316 811 325 q 831 297 831 307 l 831 32 l 831 29 q 819 11 831 18 q 790 4 807 6 q 733 0 772 0 l 532 0 m 644 429 l 638 453 l 636 467 l 633 500 l 631 567 l 631 632 l 629 700 l 629 782 l 633 874 l 636 928 l 643 935 l 671 943 l 694 943 l 733 949 l 751 949 l 756 943 l 761 944 l 768 944 l 771 946 l 772 943 l 776 943 l 779 942 l 810 939 l 814 936 l 817 936 l 817 938 l 818 938 l 833 932 l 844 924 l 844 914 l 835 865 l 828 832 l 819 796 l 811 764 l 810 754 l 804 733 l 797 694 l 790 657 l 783 617 l 778 596 l 775 578 l 768 521 l 757 469 l 747 431 l 722 431 l 719 429 l 713 435 l 710 431 l 681 431 l 664 429 l 644 429 z "},"Ļ":{"ha":868,"x_min":82,"x_max":831,"o":"m 532 0 q 324 1 389 0 q 232 3 264 1 l 118 4 q 94 15 106 4 q 83 39 83 26 l 83 344 l 83 478 l 82 592 q 85 735 82 649 q 89 828 85 753 l 89 860 q 104 922 89 899 q 126 935 111 935 q 275 932 194 935 q 307 931 286 931 q 375 929 353 931 l 450 929 q 483 929 456 929 q 525 922 510 929 q 550 858 550 908 l 549 847 q 546 826 549 843 q 542 796 542 806 q 546 757 542 781 q 549 735 549 740 l 550 726 l 550 532 l 550 442 l 550 356 l 550 339 q 563 325 550 328 q 581 324 567 324 l 682 324 q 796 325 719 325 q 821 316 811 325 q 831 297 831 307 l 831 32 l 831 29 q 819 11 831 18 q 790 4 807 6 q 733 0 772 0 l 532 0 m 308 -521 q 292 -495 303 -511 q 279 -462 282 -479 q 273 -422 274 -436 q 272 -400 272 -407 q 381 -356 346 -390 q 401 -324 396 -337 q 404 -314 404 -315 q 401 -309 404 -310 q 392 -309 397 -308 q 381 -310 386 -310 q 349 -307 371 -307 q 279 -303 311 -307 q 253 -297 269 -303 q 246 -294 249 -296 q 242 -290 243 -292 q 233 -192 235 -225 q 232 -149 233 -162 q 231 -94 232 -107 l 239 -87 l 304 -81 q 364 -75 346 -75 l 425 -75 l 439 -78 q 467 -81 443 -81 q 475 -78 468 -78 q 524 -81 499 -78 q 572 -87 557 -85 q 575 -86 574 -87 q 578 -85 576 -85 l 581 -85 q 597 -89 586 -86 q 610 -94 607 -92 q 616 -104 615 -100 q 617 -115 617 -108 q 618 -120 617 -117 q 621 -132 619 -124 q 624 -164 621 -139 q 628 -192 625 -178 q 631 -217 631 -206 q 638 -282 638 -262 q 636 -310 638 -300 q 586 -429 626 -382 q 469 -494 556 -467 q 308 -521 383 -521 z "},"Ŀ":{"ha":868,"x_min":82,"x_max":831,"o":"m 532 0 q 324 1 389 0 q 232 3 264 1 l 118 4 q 94 15 106 4 q 83 39 83 26 l 83 344 l 83 478 l 82 592 q 85 735 82 649 q 89 828 85 753 l 89 860 q 104 922 89 899 q 126 935 111 935 q 275 932 194 935 q 307 931 286 931 q 375 929 353 931 l 450 929 q 483 929 456 929 q 525 922 510 929 q 550 858 550 908 l 549 847 q 546 826 549 843 q 542 796 542 806 q 546 757 542 781 q 549 735 549 740 l 550 726 l 550 532 l 550 442 l 550 356 l 550 339 q 563 325 550 328 q 581 324 567 324 l 682 324 q 796 325 719 325 q 821 316 811 325 q 831 297 831 307 l 831 32 l 831 29 q 819 11 831 18 q 790 4 807 6 q 733 0 772 0 l 532 0 m 689 488 q 672 490 681 490 l 597 496 l 590 503 q 589 546 589 511 q 592 619 589 594 q 594 654 592 632 l 594 681 q 619 693 599 693 l 653 693 q 669 692 661 693 q 686 690 676 690 q 708 693 701 690 l 736 693 l 746 693 l 757 693 l 767 693 l 774 693 l 786 693 l 799 693 q 821 682 821 693 l 821 681 q 819 665 819 675 l 819 657 l 819 644 q 820 635 819 642 q 821 613 821 628 l 821 521 l 817 510 q 807 496 815 500 l 794 494 q 794 494 794 494 q 793 496 793 494 l 789 496 l 789 496 l 782 493 l 761 492 l 754 490 l 749 488 q 744 488 746 488 q 740 490 742 489 l 733 492 q 732 490 732 492 l 726 488 l 704 488 l 689 488 z "},"ǈ":{"ha":1553,"x_min":82,"x_max":1483,"o":"m 532 0 q 324 1 389 0 q 232 3 264 1 l 118 4 q 94 15 106 4 q 83 39 83 26 l 83 344 l 83 478 l 82 592 q 85 735 82 649 q 89 828 85 753 l 89 860 q 104 922 89 899 q 126 935 111 935 q 275 932 194 935 q 307 931 286 931 q 375 929 353 931 l 450 929 q 483 929 456 929 q 525 922 510 929 q 550 858 550 908 l 549 847 q 546 826 549 843 q 542 796 542 806 q 546 757 542 781 q 549 735 549 740 l 550 726 l 550 532 l 550 442 l 550 356 l 550 339 q 563 325 550 328 q 581 324 567 324 l 682 324 q 796 325 719 325 q 821 316 811 325 q 831 297 831 307 l 831 32 l 831 29 q 819 11 831 18 q 790 4 807 6 q 733 0 772 0 l 532 0 m 1161 -71 q 1090 -75 1125 -75 q 921 -47 999 -75 l 868 -25 l 868 -18 q 869 11 868 0 q 871 22 869 17 q 872 35 872 28 q 875 60 875 57 q 877 78 875 68 q 879 101 879 89 l 881 119 q 883 124 882 122 q 883 125 883 126 q 939 108 922 111 q 993 103 961 103 q 1015 112 1006 103 q 1032 139 1024 121 q 1040 167 1040 163 q 1046 189 1043 183 q 1047 242 1046 219 q 1049 321 1049 263 q 1050 410 1050 353 q 1053 483 1050 463 l 1053 553 l 1050 799 q 1057 810 1054 807 l 1060 811 l 1067 811 q 1071 810 1067 810 q 1101 814 1085 810 q 1133 817 1111 817 q 1185 814 1167 817 q 1236 811 1215 811 q 1265 818 1243 818 l 1283 818 q 1300 817 1290 817 q 1305 814 1303 817 q 1310 811 1307 811 q 1314 813 1313 811 q 1322 815 1318 813 q 1331 817 1326 817 l 1332 817 q 1343 815 1338 817 q 1351 811 1349 814 l 1408 811 l 1418 810 l 1428 811 q 1472 761 1458 811 q 1483 646 1483 718 l 1483 435 l 1483 414 l 1483 374 q 1481 349 1481 360 q 1479 332 1481 339 l 1479 311 q 1469 165 1479 221 q 1401 36 1447 79 q 1244 -53 1344 -15 q 1161 -71 1189 -67 z "},"Ł":{"ha":939,"x_min":63,"x_max":888,"o":"m 588 0 q 381 1 446 0 q 289 3 321 1 l 175 4 q 151 15 163 4 q 140 39 140 26 l 140 368 q 100 361 113 361 q 64 390 64 361 l 64 492 q 63 594 63 522 q 75 622 63 606 q 99 639 88 635 l 119 644 q 128 648 124 646 q 139 650 133 650 q 146 828 140 749 l 146 860 q 161 922 146 901 q 185 935 168 935 q 328 932 247 935 l 365 931 q 432 929 410 931 l 507 929 q 531 929 513 929 q 560 928 549 929 q 581 922 572 926 q 608 858 608 908 q 608 854 608 857 q 606 847 607 851 q 603 826 606 843 l 599 796 l 599 789 q 601 779 599 782 q 650 789 643 786 q 675 794 663 790 q 700 799 688 797 q 756 810 739 810 q 785 783 785 806 q 782 693 785 740 l 782 658 l 782 619 q 771 561 782 582 q 710 525 756 536 q 700 521 708 525 q 693 518 697 518 l 688 515 l 618 497 l 608 494 l 608 356 l 608 339 q 619 325 608 326 q 636 324 622 324 l 740 324 q 853 325 775 325 q 877 316 867 325 q 888 297 888 307 l 888 32 l 888 29 q 876 11 888 18 q 847 4 864 6 q 790 0 829 0 l 588 0 z "},"M":{"ha":1410,"x_min":81,"x_max":1331,"o":"m 242 -4 q 219 -1 228 -4 l 192 -1 l 167 -1 l 157 -1 l 94 14 l 89 25 q 88 40 88 25 q 86 72 88 60 l 85 136 q 83 199 83 157 l 81 306 q 83 401 81 340 l 85 449 q 88 594 88 493 l 88 604 l 88 622 q 85 638 85 626 l 83 647 q 88 719 83 682 q 90 806 90 767 l 89 844 q 88 881 88 860 q 85 885 88 882 q 83 890 83 888 q 94 914 83 904 q 122 928 106 924 q 179 935 144 935 l 414 935 l 522 935 q 526 932 524 935 q 532 928 529 929 q 560 890 543 918 q 569 872 564 882 q 582 839 574 861 q 608 771 592 817 l 625 728 q 650 668 636 707 q 659 646 654 657 q 668 624 664 635 q 674 609 671 614 q 678 603 678 604 q 699 581 688 581 q 721 603 713 581 q 724 609 722 604 q 731 625 725 614 l 751 671 l 807 789 l 831 839 q 837 858 835 850 q 842 868 839 865 q 868 911 847 881 q 881 928 875 922 q 886 932 885 929 q 890 935 888 935 l 999 935 l 1233 935 l 1254 935 l 1268 935 l 1286 935 l 1317 935 q 1324 914 1319 935 l 1328 778 q 1331 594 1331 719 l 1331 514 q 1326 408 1331 467 q 1321 333 1322 350 l 1318 306 l 1318 257 q 1319 199 1319 238 q 1321 136 1319 157 q 1324 81 1321 96 l 1324 40 l 1324 25 l 1319 14 l 1257 -1 l 1247 -1 l 1222 -1 l 1194 -1 q 1171 -4 1185 -4 q 1101 -1 1146 -4 l 1067 0 q 1044 3 1057 1 q 1014 4 1032 4 l 960 8 q 956 7 957 8 l 944 7 q 936 22 938 7 q 928 117 928 50 q 926 186 928 161 l 925 261 q 924 333 924 286 q 914 344 924 344 q 903 331 908 344 l 888 293 l 875 258 q 869 242 872 250 q 863 226 867 233 l 856 210 q 824 147 843 182 q 772 88 803 110 q 743 78 756 78 l 722 78 q 694 81 706 78 l 664 81 l 636 81 q 532 275 581 169 l 511 326 q 500 344 503 344 q 490 333 490 344 l 490 268 q 488 125 490 171 q 478 25 485 53 q 469 7 476 7 l 460 7 l 453 8 q 378 3 406 6 q 319 -1 361 1 q 242 -4 278 -4 z "},"N":{"ha":1213,"x_min":86,"x_max":1133,"o":"m 258 -4 q 235 -1 244 -4 l 207 -1 l 185 -1 l 172 -1 l 110 14 l 106 25 q 104 40 104 25 q 101 136 101 82 q 99 199 101 175 q 97 257 99 238 l 97 306 q 89 446 90 369 q 88 594 88 522 l 90 736 q 92 808 92 760 q 90 881 92 857 q 108 928 86 913 q 157 935 122 935 q 289 938 208 935 l 319 940 q 424 946 403 946 q 451 944 443 946 q 478 939 471 943 q 491 925 485 935 q 500 910 497 915 q 533 863 517 888 q 574 804 558 825 l 665 664 l 710 597 q 713 654 710 633 l 713 783 l 717 882 q 719 897 718 893 q 724 903 721 901 q 728 907 726 906 q 761 928 744 921 q 783 931 775 931 l 863 931 l 879 931 q 918 929 890 929 q 967 928 949 929 l 1014 928 l 1053 928 l 1069 928 q 1118 917 1106 928 q 1133 868 1133 906 l 1132 854 l 1131 832 q 1129 810 1129 824 l 1129 793 l 1129 782 l 1132 768 l 1132 724 q 1131 643 1131 700 l 1131 540 q 1129 439 1129 504 l 1129 358 l 1129 311 l 1129 92 l 1124 39 q 1101 0 1118 7 l 1078 -1 l 1054 0 l 992 0 l 910 0 l 825 0 l 804 0 q 750 7 776 -3 q 722 25 738 13 l 581 224 q 550 275 581 225 q 529 304 539 292 q 523 313 526 310 q 518 317 519 317 q 506 306 506 317 l 506 275 q 504 229 504 261 l 504 175 l 504 122 q 501 81 501 106 l 501 53 l 501 32 l 503 25 q 492 11 503 14 q 469 8 485 6 q 394 3 422 6 q 336 -1 378 1 q 258 -4 294 -4 z "},"Ǌ":{"ha":2068,"x_min":88,"x_max":2001,"o":"m 258 -4 q 235 -1 244 -4 l 207 -1 l 185 -1 l 172 -1 l 110 14 l 106 25 q 104 40 104 25 q 101 136 101 82 q 99 199 101 175 q 97 257 99 238 l 97 306 q 89 446 90 369 q 88 594 88 522 l 90 736 q 92 808 92 760 q 90 881 92 857 q 108 928 86 913 q 157 935 122 935 q 289 938 208 935 l 319 940 q 424 946 403 946 q 451 944 443 946 q 478 939 471 943 q 491 925 485 935 q 500 910 497 915 q 533 863 517 888 q 574 804 558 825 l 665 664 l 710 597 q 713 654 710 633 l 713 783 l 717 882 q 719 897 718 893 q 724 903 721 901 q 728 907 726 906 q 761 928 744 921 q 783 931 775 931 l 863 931 l 879 931 q 918 929 890 929 q 967 928 949 929 l 1014 928 l 1053 928 l 1069 928 q 1118 917 1106 928 q 1133 868 1133 906 l 1132 854 l 1131 832 q 1129 810 1129 824 l 1129 793 l 1129 782 l 1132 768 l 1132 724 q 1131 643 1131 700 l 1131 540 q 1129 439 1129 504 l 1129 358 l 1129 311 l 1129 92 l 1124 39 q 1101 0 1118 7 l 1078 -1 l 1054 0 l 992 0 l 910 0 l 825 0 l 804 0 q 750 7 776 -3 q 722 25 738 13 l 581 224 q 550 275 581 225 q 529 304 539 292 q 523 313 526 310 q 518 317 519 317 q 506 306 506 317 l 506 275 q 504 229 504 261 l 504 175 l 504 122 q 501 81 501 106 l 501 53 l 501 32 l 503 25 q 492 11 503 14 q 469 8 485 6 q 394 3 422 6 q 336 -1 378 1 q 258 -4 294 -4 m 1626 -33 q 1518 -40 1567 -40 q 1251 11 1372 -40 l 1189 39 q 1188 46 1188 40 l 1190 76 q 1196 104 1193 96 q 1197 133 1196 124 q 1203 182 1197 160 q 1204 203 1203 199 q 1206 210 1206 207 q 1207 210 1207 213 q 1321 178 1281 183 q 1432 168 1369 168 q 1475 208 1460 168 q 1485 240 1479 215 q 1492 268 1492 268 q 1493 321 1493 282 q 1496 421 1493 381 q 1497 500 1497 449 l 1499 564 l 1499 624 l 1497 910 q 1502 921 1497 918 q 1517 924 1507 924 l 1661 925 l 1800 925 l 1935 925 q 1967 922 1956 925 q 1988 910 1979 919 q 1997 879 1996 896 q 2001 821 2001 838 l 2001 550 l 2001 539 q 2000 528 2000 536 q 1999 514 2000 519 q 1998 497 1997 506 q 1997 481 1999 489 q 1996 449 1996 469 l 1996 421 l 1994 408 q 1992 315 1994 353 q 1982 240 1990 278 q 1904 90 1961 143 q 1724 -11 1838 29 q 1626 -33 1664 -28 z "},"Ń":{"ha":1213,"x_min":88,"x_max":1133,"o":"m 258 -4 q 235 -1 244 -4 l 207 -1 l 185 -1 l 172 -1 l 110 14 l 106 25 q 104 40 104 25 q 101 136 101 82 q 99 199 101 175 q 97 257 99 238 l 97 306 q 89 446 90 369 q 88 594 88 522 l 90 736 q 92 808 92 760 q 90 881 92 857 q 108 928 86 913 q 157 935 122 935 q 289 938 208 935 l 319 940 q 424 946 403 946 q 451 944 443 946 q 478 939 471 943 q 491 925 485 935 q 500 910 497 915 q 533 863 517 888 q 574 804 558 825 l 665 664 l 710 597 q 713 654 710 633 l 713 783 l 717 882 q 719 897 718 893 q 724 903 721 901 q 728 907 726 906 q 761 928 744 921 q 783 931 775 931 l 863 931 l 879 931 q 918 929 890 929 q 967 928 949 929 l 1014 928 l 1053 928 l 1069 928 q 1118 917 1106 928 q 1133 868 1133 906 l 1132 854 l 1131 832 q 1129 810 1129 824 l 1129 793 l 1129 782 l 1132 768 l 1132 724 q 1131 643 1131 700 l 1131 540 q 1129 439 1129 504 l 1129 358 l 1129 311 l 1129 92 l 1124 39 q 1101 0 1118 7 l 1078 -1 l 1054 0 l 992 0 l 910 0 l 825 0 l 804 0 q 750 7 776 -3 q 722 25 738 13 l 581 224 q 550 275 581 225 q 529 304 539 292 q 523 313 526 310 q 518 317 519 317 q 506 306 506 317 l 506 275 q 504 229 504 261 l 504 175 l 504 122 q 501 81 501 106 l 501 53 l 501 32 l 503 25 q 492 11 503 14 q 469 8 485 6 q 394 3 422 6 q 336 -1 378 1 q 258 -4 294 -4 m 518 1022 q 497 1033 503 1022 q 492 1064 492 1044 q 504 1210 492 1133 q 515 1282 513 1254 q 519 1313 517 1294 q 524 1356 522 1332 q 574 1571 543 1460 l 585 1579 l 644 1589 q 733 1592 707 1589 l 810 1593 l 818 1589 q 835 1592 822 1592 l 849 1592 q 851 1590 849 1592 q 856 1589 853 1589 l 864 1588 l 925 1585 l 933 1581 q 939 1582 939 1581 l 943 1582 q 981 1571 967 1576 q 990 1558 990 1568 q 988 1544 990 1556 l 972 1518 l 953 1485 l 932 1446 q 911 1411 918 1421 q 900 1393 904 1401 q 890 1378 896 1385 q 846 1293 868 1343 q 801 1206 829 1251 l 776 1154 q 724 1043 746 1083 q 700 1022 708 1022 l 675 1022 l 649 1022 l 640 1026 l 633 1022 l 593 1022 q 577 1023 586 1022 q 557 1022 568 1024 l 518 1022 z "},"Ň":{"ha":1213,"x_min":88,"x_max":1133,"o":"m 258 -4 q 235 -1 244 -4 l 207 -1 l 185 -1 l 172 -1 l 110 14 l 106 25 q 104 40 104 25 q 101 136 101 82 q 99 199 101 175 q 97 257 99 238 l 97 306 q 89 446 90 369 q 88 594 88 522 l 90 736 q 92 808 92 760 q 90 881 92 857 q 108 928 86 913 q 157 935 122 935 q 289 938 208 935 l 319 940 q 424 946 403 946 q 451 944 443 946 q 478 939 471 943 q 491 925 485 935 q 500 910 497 915 q 533 863 517 888 q 574 804 558 825 l 665 664 l 710 597 q 713 654 710 633 l 713 783 l 717 882 q 719 897 718 893 q 724 903 721 901 q 728 907 726 906 q 761 928 744 921 q 783 931 775 931 l 863 931 l 879 931 q 918 929 890 929 q 967 928 949 929 l 1014 928 l 1053 928 l 1069 928 q 1118 917 1106 928 q 1133 868 1133 906 l 1132 854 l 1131 832 q 1129 810 1129 824 l 1129 793 l 1129 782 l 1132 768 l 1132 724 q 1131 643 1131 700 l 1131 540 q 1129 439 1129 504 l 1129 358 l 1129 311 l 1129 92 l 1124 39 q 1101 0 1118 7 l 1078 -1 l 1054 0 l 992 0 l 910 0 l 825 0 l 804 0 q 750 7 776 -3 q 722 25 738 13 l 581 224 q 550 275 581 225 q 529 304 539 292 q 523 313 526 310 q 518 317 519 317 q 506 306 506 317 l 506 275 q 504 229 504 261 l 504 175 l 504 122 q 501 81 501 106 l 501 53 l 501 32 l 503 25 q 492 11 503 14 q 469 8 485 6 q 394 3 422 6 q 336 -1 378 1 q 258 -4 294 -4 m 717 1025 q 690 1027 703 1025 q 672 1029 678 1029 q 635 1031 663 1031 l 585 1029 l 501 1029 l 439 1036 l 428 1047 q 383 1128 394 1103 l 342 1207 q 326 1247 336 1225 q 314 1275 317 1268 l 299 1304 q 247 1411 263 1371 q 226 1478 238 1433 l 225 1488 l 225 1496 q 230 1515 225 1507 q 246 1524 235 1524 q 264 1524 251 1524 q 286 1524 276 1525 q 324 1522 300 1522 l 365 1522 l 371 1518 l 378 1524 l 406 1522 l 432 1522 q 451 1512 439 1522 q 476 1485 464 1501 q 536 1404 510 1443 q 610 1283 583 1332 q 657 1350 624 1306 l 690 1397 l 717 1432 q 767 1508 749 1486 q 786 1522 779 1522 l 815 1522 l 867 1524 l 894 1522 l 908 1522 l 940 1524 l 974 1524 q 989 1515 983 1524 q 994 1496 994 1507 l 992 1488 l 992 1478 q 904 1258 968 1381 q 861 1175 881 1208 l 849 1150 q 790 1047 821 1104 l 758 1029 l 717 1025 z "},"Ņ":{"ha":1213,"x_min":88,"x_max":1133,"o":"m 258 -4 q 235 -1 244 -4 l 207 -1 l 185 -1 l 172 -1 l 110 14 l 106 25 q 104 40 104 25 q 101 136 101 82 q 99 199 101 175 q 97 257 99 238 l 97 306 q 89 446 90 369 q 88 594 88 522 l 90 736 q 92 808 92 760 q 90 881 92 857 q 108 928 86 913 q 157 935 122 935 q 289 938 208 935 l 319 940 q 424 946 403 946 q 451 944 443 946 q 478 939 471 943 q 491 925 485 935 q 500 910 497 915 q 533 863 517 888 q 574 804 558 825 l 665 664 l 710 597 q 713 654 710 633 l 713 783 l 717 882 q 719 897 718 893 q 724 903 721 901 q 728 907 726 906 q 761 928 744 921 q 783 931 775 931 l 863 931 l 879 931 q 918 929 890 929 q 967 928 949 929 l 1014 928 l 1053 928 l 1069 928 q 1118 917 1106 928 q 1133 868 1133 906 l 1132 854 l 1131 832 q 1129 810 1129 824 l 1129 793 l 1129 782 l 1132 768 l 1132 724 q 1131 643 1131 700 l 1131 540 q 1129 439 1129 504 l 1129 358 l 1129 311 l 1129 92 l 1124 39 q 1101 0 1118 7 l 1078 -1 l 1054 0 l 992 0 l 910 0 l 825 0 l 804 0 q 750 7 776 -3 q 722 25 738 13 l 581 224 q 550 275 581 225 q 529 304 539 292 q 523 313 526 310 q 518 317 519 317 q 506 306 506 317 l 506 275 q 504 229 504 261 l 504 175 l 504 122 q 501 81 501 106 l 501 53 l 501 32 l 503 25 q 492 11 503 14 q 469 8 485 6 q 394 3 422 6 q 336 -1 378 1 q 258 -4 294 -4 m 482 -521 q 466 -495 476 -511 q 453 -462 456 -479 q 447 -422 447 -436 q 446 -400 446 -407 q 554 -356 519 -390 q 575 -324 569 -337 q 578 -314 578 -315 q 574 -309 578 -310 q 565 -309 571 -308 q 554 -310 560 -310 q 522 -307 544 -307 q 453 -303 485 -307 q 426 -297 443 -303 q 419 -294 422 -296 q 415 -290 417 -292 q 407 -192 408 -225 q 406 -149 407 -162 q 404 -94 406 -107 l 413 -87 l 478 -81 q 538 -75 519 -75 l 599 -75 l 613 -78 q 640 -81 617 -81 q 649 -78 642 -78 q 697 -81 672 -78 q 746 -87 731 -85 q 749 -86 747 -87 q 751 -85 750 -85 l 754 -85 q 770 -89 760 -86 q 783 -94 781 -92 q 790 -104 789 -100 q 790 -115 790 -108 q 792 -120 790 -117 q 794 -132 793 -124 q 797 -164 794 -139 q 801 -192 799 -178 q 804 -217 804 -206 q 811 -282 811 -262 q 810 -310 811 -300 q 760 -429 800 -382 q 643 -494 729 -467 q 482 -521 557 -521 z "},"Ŋ":{"ha":1213,"x_min":86,"x_max":1133,"o":"m 838 -408 q 724 -417 781 -417 q 463 -367 582 -417 l 400 -339 q 399 -331 399 -336 l 401 -300 q 407 -272 404 -283 l 407 -242 q 408 -219 407 -232 q 411 -194 410 -206 q 414 -181 414 -186 q 415 -172 414 -175 q 416 -167 415 -168 q 418 -167 417 -165 q 532 -200 497 -193 q 640 -207 582 -208 q 685 -168 672 -207 q 692 -150 690 -160 q 696 -136 694 -140 l 701 -110 q 707 46 707 -67 l 581 224 q 550 275 581 225 q 529 304 539 292 q 523 313 526 310 q 518 317 519 317 q 506 306 506 317 l 506 275 q 504 229 504 261 l 504 175 l 504 122 q 501 81 501 106 l 501 53 l 501 32 l 503 25 q 492 11 503 14 q 469 8 485 6 q 394 3 422 6 q 336 -1 378 1 q 258 -4 294 -4 q 235 -1 244 -4 l 207 -1 l 185 -1 l 172 -1 l 110 14 l 106 25 q 104 40 104 25 q 101 136 101 82 q 99 199 101 175 q 97 257 99 238 l 97 306 q 89 446 90 369 q 88 594 88 522 l 90 736 q 92 808 92 760 q 90 881 92 857 q 108 928 86 913 q 157 935 122 935 q 289 938 208 935 l 319 940 q 424 946 403 946 q 451 944 443 946 q 478 939 471 943 q 491 925 485 935 q 500 910 497 915 q 533 863 517 888 q 574 804 558 825 l 665 664 l 710 597 q 713 654 710 633 l 713 783 l 717 882 q 719 897 718 893 q 724 903 721 901 q 728 907 726 906 q 761 928 744 921 q 783 931 775 931 l 863 931 l 879 931 q 918 929 890 929 q 967 928 949 929 l 1014 928 l 1053 928 l 1069 928 q 1118 917 1106 928 q 1133 868 1133 906 l 1132 854 l 1131 832 q 1129 810 1129 824 l 1129 793 l 1129 782 l 1132 768 l 1132 724 q 1131 643 1131 700 l 1131 540 q 1129 439 1129 504 l 1129 358 l 1129 311 l 1129 81 q 1122 -104 1129 -42 q 1068 -265 1110 -212 q 921 -386 1015 -349 q 838 -408 869 -407 z "},"ǋ":{"ha":1854,"x_min":88,"x_max":1786,"o":"m 258 -4 q 235 -1 244 -4 l 207 -1 l 185 -1 l 172 -1 l 110 14 l 106 25 q 104 40 104 25 q 101 136 101 82 q 99 199 101 175 q 97 257 99 238 l 97 306 q 89 446 90 369 q 88 594 88 522 l 90 736 q 92 808 92 760 q 90 881 92 857 q 108 928 86 913 q 157 935 122 935 q 289 938 208 935 l 319 940 q 424 946 403 946 q 451 944 443 946 q 478 939 471 943 q 491 925 485 935 q 500 910 497 915 q 533 863 517 888 q 574 804 558 825 l 665 664 l 710 597 q 713 654 710 633 l 713 783 l 717 882 q 719 897 718 893 q 724 903 721 901 q 728 907 726 906 q 761 928 744 921 q 783 931 775 931 l 863 931 l 879 931 q 918 929 890 929 q 967 928 949 929 l 1014 928 l 1053 928 l 1069 928 q 1118 917 1106 928 q 1133 868 1133 906 l 1132 854 l 1131 832 q 1129 810 1129 824 l 1129 793 l 1129 782 l 1132 768 l 1132 724 q 1131 643 1131 700 l 1131 540 q 1129 439 1129 504 l 1129 358 l 1129 311 l 1129 92 l 1124 39 q 1101 0 1118 7 l 1078 -1 l 1054 0 l 992 0 l 910 0 l 825 0 l 804 0 q 750 7 776 -3 q 722 25 738 13 l 581 224 q 550 275 581 225 q 529 304 539 292 q 523 313 526 310 q 518 317 519 317 q 506 306 506 317 l 506 275 q 504 229 504 261 l 504 175 l 504 122 q 501 81 501 106 l 501 53 l 501 32 l 503 25 q 492 11 503 14 q 469 8 485 6 q 394 3 422 6 q 336 -1 378 1 q 258 -4 294 -4 m 1464 -71 q 1393 -75 1428 -75 q 1224 -47 1301 -75 l 1171 -25 l 1171 -18 q 1172 11 1171 0 q 1174 22 1172 17 q 1175 35 1175 28 q 1178 60 1178 57 q 1180 78 1178 68 q 1182 101 1182 89 l 1183 119 q 1185 124 1185 122 q 1186 125 1186 126 q 1242 108 1225 111 q 1296 103 1264 103 q 1317 112 1308 103 q 1335 139 1326 121 q 1343 167 1343 163 q 1349 189 1346 183 q 1350 242 1349 219 q 1351 321 1351 263 q 1353 410 1353 353 q 1356 483 1353 463 l 1356 553 l 1353 799 q 1360 810 1357 807 l 1363 811 l 1369 811 q 1374 810 1369 810 q 1404 814 1388 810 q 1436 817 1414 817 q 1488 814 1469 817 q 1539 811 1518 811 q 1568 818 1546 818 l 1586 818 q 1603 817 1593 817 q 1608 814 1606 817 q 1613 811 1610 811 q 1617 813 1615 811 q 1625 815 1621 813 q 1633 817 1629 817 l 1635 817 q 1646 815 1640 817 q 1654 811 1651 814 l 1711 811 l 1721 810 l 1731 811 q 1775 761 1761 811 q 1786 646 1786 718 l 1786 435 l 1786 414 l 1786 374 q 1783 349 1783 360 q 1782 332 1783 339 l 1782 311 q 1772 165 1782 221 q 1704 36 1750 79 q 1547 -53 1647 -15 q 1464 -71 1492 -67 z "},"Ñ":{"ha":1213,"x_min":88,"x_max":1133,"o":"m 258 -4 q 235 -1 244 -4 l 207 -1 l 185 -1 l 172 -1 l 110 14 l 106 25 q 104 40 104 25 q 101 136 101 82 q 99 199 101 175 q 97 257 99 238 l 97 306 q 89 446 90 369 q 88 594 88 522 l 90 736 q 92 808 92 760 q 90 881 92 857 q 108 928 86 913 q 157 935 122 935 q 289 938 208 935 l 319 940 q 424 946 403 946 q 451 944 443 946 q 478 939 471 943 q 491 925 485 935 q 500 910 497 915 q 533 863 517 888 q 574 804 558 825 l 665 664 l 710 597 q 713 654 710 633 l 713 783 l 717 882 q 719 897 718 893 q 724 903 721 901 q 728 907 726 906 q 761 928 744 921 q 783 931 775 931 l 863 931 l 879 931 q 918 929 890 929 q 967 928 949 929 l 1014 928 l 1053 928 l 1069 928 q 1118 917 1106 928 q 1133 868 1133 906 l 1132 854 l 1131 832 q 1129 810 1129 824 l 1129 793 l 1129 782 l 1132 768 l 1132 724 q 1131 643 1131 700 l 1131 540 q 1129 439 1129 504 l 1129 358 l 1129 311 l 1129 92 l 1124 39 q 1101 0 1118 7 l 1078 -1 l 1054 0 l 992 0 l 910 0 l 825 0 l 804 0 q 750 7 776 -3 q 722 25 738 13 l 581 224 q 550 275 581 225 q 529 304 539 292 q 523 313 526 310 q 518 317 519 317 q 506 306 506 317 l 506 275 q 504 229 504 261 l 504 175 l 504 122 q 501 81 501 106 l 501 53 l 501 32 l 503 25 q 492 11 503 14 q 469 8 485 6 q 394 3 422 6 q 336 -1 378 1 q 258 -4 294 -4 m 751 994 q 619 1033 669 994 q 572 1072 592 1053 q 544 1101 568 1076 q 494 1140 519 1125 q 453 1150 476 1150 q 422 1117 432 1150 q 418 1086 418 1103 q 408 1036 410 1040 q 400 1033 406 1029 q 350 1035 382 1035 q 272 1040 292 1038 q 245 1048 254 1043 q 232 1061 236 1053 q 228 1070 231 1065 q 225 1082 226 1075 q 218 1113 225 1081 q 231 1233 218 1183 q 296 1350 246 1311 q 476 1401 361 1401 q 515 1394 492 1401 q 558 1376 538 1388 q 635 1321 615 1349 q 643 1310 639 1315 q 650 1300 647 1304 q 689 1256 671 1267 q 714 1247 703 1247 q 753 1281 753 1247 q 740 1328 753 1300 q 717 1369 736 1338 q 738 1381 717 1381 l 744 1381 l 956 1383 q 974 1363 968 1378 q 999 1258 993 1322 q 1001 1214 1001 1228 q 985 1138 1001 1171 q 890 1036 958 1079 q 817 1004 860 1015 q 751 994 790 994 z "},"O":{"ha":1193,"x_min":64,"x_max":1131,"o":"m 608 -33 q 347 -7 443 -33 q 144 122 214 28 q 64 435 64 235 q 96 678 64 578 q 194 842 128 778 q 366 935 261 906 q 622 965 471 965 q 844 929 740 965 q 1043 789 972 883 q 1131 493 1131 676 q 1067 160 1131 279 q 882 4 1003 50 q 608 -33 783 -33 m 597 101 q 624 122 614 101 q 653 263 644 167 q 661 428 661 350 l 661 483 l 661 518 q 653 667 661 579 q 624 810 644 761 q 597 833 613 833 q 553 775 567 833 q 539 629 539 694 q 535 456 535 574 q 539 325 535 376 q 553 174 539 260 q 597 101 567 101 z "},"Ó":{"ha":1193,"x_min":64,"x_max":1131,"o":"m 608 -33 q 347 -7 443 -33 q 144 122 214 28 q 64 435 64 235 q 96 678 64 578 q 194 842 128 778 q 366 935 261 906 q 622 965 471 965 q 844 929 740 965 q 1043 789 972 883 q 1131 493 1131 676 q 1067 160 1131 279 q 882 4 1003 50 q 608 -33 783 -33 m 597 101 q 624 122 614 101 q 653 263 644 167 q 661 428 661 350 l 661 483 l 661 518 q 653 667 661 579 q 624 810 644 761 q 597 833 613 833 q 553 775 567 833 q 539 629 539 694 q 535 456 535 574 q 539 325 535 376 q 553 174 539 260 q 597 101 567 101 m 507 1022 q 486 1033 492 1022 q 481 1064 481 1044 q 493 1210 481 1133 q 504 1282 501 1254 q 508 1313 506 1294 q 513 1356 511 1332 q 563 1571 532 1460 l 574 1579 l 633 1589 q 722 1592 696 1589 l 799 1593 l 807 1589 q 824 1592 811 1592 l 838 1592 q 840 1590 838 1592 q 844 1589 842 1589 l 853 1588 l 914 1585 l 922 1581 q 928 1582 928 1581 l 932 1582 q 969 1571 956 1576 q 979 1558 979 1568 q 976 1544 979 1556 l 961 1518 l 942 1485 l 921 1446 q 900 1411 907 1421 q 889 1393 893 1401 q 879 1378 885 1385 q 835 1293 857 1343 q 790 1206 818 1251 l 765 1154 q 713 1043 735 1083 q 689 1022 697 1022 l 664 1022 l 638 1022 l 629 1026 l 622 1022 l 582 1022 q 566 1023 575 1022 q 546 1022 557 1024 l 507 1022 z "}}}
